<mxfile host="app.diagrams.net" agent="Mozilla/5.0 (X11; Ubuntu; Linux x86_64; rv:129.0) Gecko/20100101 Firefox/129.0" version="24.7.7" pages="2">
  <diagram name="smg" id="cVQqBi0PH6_dcprV1V9H">
    <mxGraphModel grid="1" page="1" gridSize="10" guides="1" tooltips="1" connect="1" arrows="1" fold="1" pageScale="1" pageWidth="1100" pageHeight="850" math="0" shadow="0">
      <root>
        <mxCell id="0" />
        <mxCell id="1" parent="0" />
        <mxCell id="ntsP40RUeHHNRaBXLimg-6" style="edgeStyle=orthogonalEdgeStyle;rounded=0;orthogonalLoop=1;jettySize=auto;html=1;exitX=0;exitY=0;exitDx=0;exitDy=0;entryX=0;entryY=0;entryDx=0;entryDy=0;" edge="1" parent="1" target="ntsP40RUeHHNRaBXLimg-1">
          <mxGeometry relative="1" as="geometry">
            <mxPoint x="160" y="40" as="sourcePoint" />
          </mxGeometry>
        </mxCell>
        <mxCell id="ntsP40RUeHHNRaBXLimg-8" style="edgeStyle=orthogonalEdgeStyle;rounded=0;orthogonalLoop=1;jettySize=auto;html=1;exitX=1;exitY=0;exitDx=0;exitDy=0;entryX=0;entryY=0;entryDx=0;entryDy=0;curved=1;" edge="1" parent="1" source="ntsP40RUeHHNRaBXLimg-1" target="ntsP40RUeHHNRaBXLimg-2">
          <mxGeometry relative="1" as="geometry">
            <Array as="points">
              <mxPoint x="582" y="62" />
            </Array>
          </mxGeometry>
        </mxCell>
        <mxCell id="o_QCFbwQWAxBQsPWpwb2-1" style="edgeStyle=orthogonalEdgeStyle;rounded=0;orthogonalLoop=1;jettySize=auto;html=1;exitX=0.5;exitY=1;exitDx=0;exitDy=0;curved=1;entryX=0.5;entryY=0;entryDx=0;entryDy=0;" edge="1" parent="1" source="ntsP40RUeHHNRaBXLimg-1" target="ntsP40RUeHHNRaBXLimg-5">
          <mxGeometry relative="1" as="geometry">
            <mxPoint x="260" y="460" as="targetPoint" />
            <Array as="points">
              <mxPoint x="220" y="440" />
              <mxPoint x="200" y="440" />
            </Array>
          </mxGeometry>
        </mxCell>
        <mxCell id="ntsP40RUeHHNRaBXLimg-1" value="&lt;div&gt;&lt;b&gt;IDLE&lt;/b&gt;&lt;/div&gt;&lt;div&gt;&lt;br&gt;&lt;/div&gt;&lt;div&gt;c_ready&lt;br&gt;&lt;/div&gt;" style="ellipse;whiteSpace=wrap;html=1;aspect=fixed;" vertex="1" parent="1">
          <mxGeometry x="180" y="48" width="80" height="80" as="geometry" />
        </mxCell>
        <mxCell id="ntsP40RUeHHNRaBXLimg-13" style="edgeStyle=orthogonalEdgeStyle;rounded=0;orthogonalLoop=1;jettySize=auto;html=1;exitX=0.5;exitY=1;exitDx=0;exitDy=0;entryX=1;entryY=0.5;entryDx=0;entryDy=0;curved=1;" edge="1" parent="1" source="ntsP40RUeHHNRaBXLimg-2" target="ntsP40RUeHHNRaBXLimg-4">
          <mxGeometry relative="1" as="geometry" />
        </mxCell>
        <mxCell id="ntsP40RUeHHNRaBXLimg-14" style="edgeStyle=orthogonalEdgeStyle;rounded=0;orthogonalLoop=1;jettySize=auto;html=1;exitX=0;exitY=0.5;exitDx=0;exitDy=0;entryX=1;entryY=0.5;entryDx=0;entryDy=0;curved=1;" edge="1" parent="1" source="ntsP40RUeHHNRaBXLimg-2" target="ntsP40RUeHHNRaBXLimg-1">
          <mxGeometry relative="1" as="geometry">
            <Array as="points">
              <mxPoint x="660" y="88" />
              <mxPoint x="660" y="140" />
              <mxPoint x="310" y="140" />
              <mxPoint x="310" y="88" />
            </Array>
          </mxGeometry>
        </mxCell>
        <mxCell id="ntsP40RUeHHNRaBXLimg-18" style="edgeStyle=orthogonalEdgeStyle;rounded=0;orthogonalLoop=1;jettySize=auto;html=1;exitX=1;exitY=1;exitDx=0;exitDy=0;entryX=1;entryY=0;entryDx=0;entryDy=0;curved=1;" edge="1" parent="1" source="ntsP40RUeHHNRaBXLimg-2" target="ntsP40RUeHHNRaBXLimg-3">
          <mxGeometry relative="1" as="geometry">
            <Array as="points">
              <mxPoint x="870" y="116" />
              <mxPoint x="870" y="470" />
              <mxPoint x="838" y="470" />
            </Array>
          </mxGeometry>
        </mxCell>
        <mxCell id="ntsP40RUeHHNRaBXLimg-2" value="PRO_REQ" style="ellipse;whiteSpace=wrap;html=1;aspect=fixed;" vertex="1" parent="1">
          <mxGeometry x="770" y="48" width="80" height="80" as="geometry" />
        </mxCell>
        <mxCell id="o_QCFbwQWAxBQsPWpwb2-4" style="edgeStyle=orthogonalEdgeStyle;rounded=0;orthogonalLoop=1;jettySize=auto;html=1;exitX=0;exitY=0;exitDx=0;exitDy=0;entryX=1;entryY=1;entryDx=0;entryDy=0;curved=1;" edge="1" parent="1" source="ntsP40RUeHHNRaBXLimg-3" target="ntsP40RUeHHNRaBXLimg-4">
          <mxGeometry relative="1" as="geometry" />
        </mxCell>
        <mxCell id="o_QCFbwQWAxBQsPWpwb2-5" style="edgeStyle=orthogonalEdgeStyle;rounded=0;orthogonalLoop=1;jettySize=auto;html=1;exitX=0;exitY=1;exitDx=0;exitDy=0;entryX=1;entryY=1;entryDx=0;entryDy=0;curved=1;" edge="1" parent="1" source="ntsP40RUeHHNRaBXLimg-3" target="ntsP40RUeHHNRaBXLimg-5">
          <mxGeometry relative="1" as="geometry">
            <Array as="points">
              <mxPoint x="782" y="600" />
              <mxPoint x="505" y="600" />
              <mxPoint x="505" y="598" />
            </Array>
          </mxGeometry>
        </mxCell>
        <mxCell id="ntsP40RUeHHNRaBXLimg-3" value="WR_BACK" style="ellipse;whiteSpace=wrap;html=1;aspect=fixed;" vertex="1" parent="1">
          <mxGeometry x="770" y="480" width="80" height="80" as="geometry" />
        </mxCell>
        <mxCell id="ntsP40RUeHHNRaBXLimg-20" style="edgeStyle=orthogonalEdgeStyle;rounded=0;orthogonalLoop=1;jettySize=auto;html=1;exitX=1;exitY=0;exitDx=0;exitDy=0;entryX=0;entryY=1;entryDx=0;entryDy=0;curved=1;" edge="1" parent="1" source="ntsP40RUeHHNRaBXLimg-4" target="ntsP40RUeHHNRaBXLimg-2">
          <mxGeometry relative="1" as="geometry">
            <Array as="points">
              <mxPoint x="540" y="332" />
              <mxPoint x="540" y="230" />
              <mxPoint x="750" y="230" />
              <mxPoint x="750" y="116" />
            </Array>
          </mxGeometry>
        </mxCell>
        <mxCell id="ntsP40RUeHHNRaBXLimg-4" value="ALLOCATE" style="ellipse;whiteSpace=wrap;html=1;aspect=fixed;" vertex="1" parent="1">
          <mxGeometry x="460" y="320" width="80" height="80" as="geometry" />
        </mxCell>
        <mxCell id="o_QCFbwQWAxBQsPWpwb2-10" style="edgeStyle=orthogonalEdgeStyle;rounded=0;orthogonalLoop=1;jettySize=auto;html=1;exitX=0;exitY=0;exitDx=0;exitDy=0;entryX=0;entryY=1;entryDx=0;entryDy=0;curved=1;" edge="1" parent="1" source="ntsP40RUeHHNRaBXLimg-5" target="ntsP40RUeHHNRaBXLimg-1">
          <mxGeometry relative="1" as="geometry">
            <Array as="points">
              <mxPoint x="150" y="492" />
              <mxPoint x="150" y="160" />
              <mxPoint x="192" y="160" />
            </Array>
          </mxGeometry>
        </mxCell>
        <mxCell id="o_QCFbwQWAxBQsPWpwb2-12" style="edgeStyle=orthogonalEdgeStyle;rounded=0;orthogonalLoop=1;jettySize=auto;html=1;exitX=1;exitY=0.5;exitDx=0;exitDy=0;curved=1;" edge="1" parent="1" source="ntsP40RUeHHNRaBXLimg-5" target="ntsP40RUeHHNRaBXLimg-3">
          <mxGeometry relative="1" as="geometry">
            <Array as="points">
              <mxPoint x="260" y="570" />
              <mxPoint x="260" y="520" />
            </Array>
          </mxGeometry>
        </mxCell>
        <mxCell id="ntsP40RUeHHNRaBXLimg-5" value="&lt;div&gt;FLASH&lt;/div&gt;&lt;div&gt;&lt;br&gt;&lt;/div&gt;&lt;div&gt;flash_start&lt;br&gt;&lt;/div&gt;" style="ellipse;whiteSpace=wrap;html=1;aspect=fixed;" vertex="1" parent="1">
          <mxGeometry x="160" y="530" width="80" height="80" as="geometry" />
        </mxCell>
        <mxCell id="ntsP40RUeHHNRaBXLimg-7" value="rst" style="text;html=1;align=center;verticalAlign=middle;resizable=0;points=[];autosize=1;strokeColor=none;fillColor=none;" vertex="1" parent="1">
          <mxGeometry x="120" y="18" width="40" height="30" as="geometry" />
        </mxCell>
        <mxCell id="ntsP40RUeHHNRaBXLimg-9" value="(!flash &amp;amp; ((wr &amp;amp; !rd)&amp;nbsp; | (!wr &amp;amp; rd))) /~c_ready" style="text;html=1;align=center;verticalAlign=middle;resizable=0;points=[];autosize=1;strokeColor=none;fillColor=none;" vertex="1" parent="1">
          <mxGeometry x="310" y="38" width="250" height="30" as="geometry" />
        </mxCell>
        <mxCell id="ntsP40RUeHHNRaBXLimg-15" value="hit &amp;amp; rd&amp;nbsp; / cache_hit, c_rd_en" style="text;html=1;align=center;verticalAlign=middle;resizable=0;points=[];autosize=1;strokeColor=none;fillColor=none;" vertex="1" parent="1">
          <mxGeometry x="385" y="140" width="180" height="30" as="geometry" />
        </mxCell>
        <mxCell id="ntsP40RUeHHNRaBXLimg-16" value="~hit &amp;amp;&amp;nbsp; dirty_bit / cache_miss, w_valid" style="text;html=1;align=center;verticalAlign=middle;resizable=0;points=[];autosize=1;strokeColor=none;fillColor=none;rotation=0;" vertex="1" parent="1">
          <mxGeometry x="900" y="250" width="220" height="30" as="geometry" />
        </mxCell>
        <mxCell id="ntsP40RUeHHNRaBXLimg-17" value="~hit &amp;amp; ~dirty_bit /r_valid" style="text;html=1;align=center;verticalAlign=middle;resizable=0;points=[];autosize=1;strokeColor=none;fillColor=none;rotation=-30;" vertex="1" parent="1">
          <mxGeometry x="630" y="300" width="150" height="30" as="geometry" />
        </mxCell>
        <mxCell id="ntsP40RUeHHNRaBXLimg-21" value="r_resp / cache_alo_en" style="text;html=1;align=center;verticalAlign=middle;resizable=0;points=[];autosize=1;strokeColor=none;fillColor=none;rotation=0;" vertex="1" parent="1">
          <mxGeometry x="560" y="200" width="140" height="30" as="geometry" />
        </mxCell>
        <mxCell id="ntsP40RUeHHNRaBXLimg-22" style="edgeStyle=orthogonalEdgeStyle;rounded=0;orthogonalLoop=1;jettySize=auto;html=1;exitX=0;exitY=1;exitDx=0;exitDy=0;entryX=0;entryY=0;entryDx=0;entryDy=0;curved=1;" edge="1" parent="1" source="ntsP40RUeHHNRaBXLimg-4" target="ntsP40RUeHHNRaBXLimg-4">
          <mxGeometry relative="1" as="geometry">
            <Array as="points">
              <mxPoint x="472" y="430" />
              <mxPoint x="440" y="430" />
              <mxPoint x="440" y="290" />
              <mxPoint x="472" y="290" />
            </Array>
          </mxGeometry>
        </mxCell>
        <mxCell id="ntsP40RUeHHNRaBXLimg-23" value="~r_resp / !cache_alo_en" style="text;html=1;align=center;verticalAlign=middle;resizable=0;points=[];autosize=1;strokeColor=none;fillColor=none;rotation=-90;" vertex="1" parent="1">
          <mxGeometry x="350" y="350" width="150" height="30" as="geometry" />
        </mxCell>
        <mxCell id="o_QCFbwQWAxBQsPWpwb2-2" value="flash " style="text;html=1;align=center;verticalAlign=middle;resizable=0;points=[];autosize=1;strokeColor=none;fillColor=none;" vertex="1" parent="1">
          <mxGeometry x="250" y="230" width="50" height="30" as="geometry" />
        </mxCell>
        <mxCell id="o_QCFbwQWAxBQsPWpwb2-3" value="hit &amp;amp; wr &amp;amp; dirty_bit / cache_miss, w_valid" style="text;html=1;align=center;verticalAlign=middle;resizable=0;points=[];autosize=1;strokeColor=none;fillColor=none;rotation=0;" vertex="1" parent="1">
          <mxGeometry x="890" y="208" width="240" height="30" as="geometry" />
        </mxCell>
        <mxCell id="o_QCFbwQWAxBQsPWpwb2-6" style="edgeStyle=orthogonalEdgeStyle;rounded=0;orthogonalLoop=1;jettySize=auto;html=1;exitX=1;exitY=0.5;exitDx=0;exitDy=0;entryX=0.5;entryY=1;entryDx=0;entryDy=0;curved=1;" edge="1" parent="1" source="ntsP40RUeHHNRaBXLimg-3" target="ntsP40RUeHHNRaBXLimg-3">
          <mxGeometry relative="1" as="geometry">
            <Array as="points">
              <mxPoint x="930" y="520" />
              <mxPoint x="930" y="590" />
              <mxPoint x="810" y="590" />
            </Array>
          </mxGeometry>
        </mxCell>
        <mxCell id="o_QCFbwQWAxBQsPWpwb2-7" value="b_resp &amp;amp; ~start_flash / r_valid" style="text;html=1;align=center;verticalAlign=middle;resizable=0;points=[];autosize=1;strokeColor=none;fillColor=none;rotation=15;" vertex="1" parent="1">
          <mxGeometry x="565" y="440" width="180" height="30" as="geometry" />
        </mxCell>
        <mxCell id="o_QCFbwQWAxBQsPWpwb2-8" value="b_resp &amp;amp; start_flash /~flash_stop" style="text;html=1;align=center;verticalAlign=middle;resizable=0;points=[];autosize=1;strokeColor=none;fillColor=none;rotation=0;" vertex="1" parent="1">
          <mxGeometry x="435" y="570" width="200" height="30" as="geometry" />
        </mxCell>
        <mxCell id="o_QCFbwQWAxBQsPWpwb2-9" value="~b_resp &amp;nbsp; / ~r_valid" style="text;html=1;align=center;verticalAlign=middle;resizable=0;points=[];autosize=1;strokeColor=none;fillColor=none;rotation=0;" vertex="1" parent="1">
          <mxGeometry x="815" y="590" width="130" height="30" as="geometry" />
        </mxCell>
        <mxCell id="o_QCFbwQWAxBQsPWpwb2-11" value="&amp;nbsp;flash_done" style="text;html=1;align=center;verticalAlign=middle;resizable=0;points=[];autosize=1;strokeColor=none;fillColor=none;" vertex="1" parent="1">
          <mxGeometry x="70" y="260" width="90" height="30" as="geometry" />
        </mxCell>
        <mxCell id="o_QCFbwQWAxBQsPWpwb2-13" value="dirty_bit&amp;nbsp; / w_valid, flash_stop" style="text;html=1;align=center;verticalAlign=middle;resizable=0;points=[];autosize=1;strokeColor=none;fillColor=none;" vertex="1" parent="1">
          <mxGeometry x="310" y="500" width="180" height="30" as="geometry" />
        </mxCell>
        <mxCell id="TjajHVcJUFzY8Q6oy_cc-1" value="hit &amp;amp; wr &amp;amp; ~dirty_bit / cache_hit, c_wr_en" style="text;html=1;align=center;verticalAlign=middle;resizable=0;points=[];autosize=1;strokeColor=none;fillColor=none;" vertex="1" parent="1">
          <mxGeometry x="355" y="110" width="240" height="30" as="geometry" />
        </mxCell>
        <mxCell id="-3PmLi9KhIWoqC7AVqxh-1" style="edgeStyle=orthogonalEdgeStyle;rounded=0;orthogonalLoop=1;jettySize=auto;html=1;exitX=0;exitY=0;exitDx=0;exitDy=0;entryX=0;entryY=0;entryDx=0;entryDy=0;" edge="1" parent="1" target="-3PmLi9KhIWoqC7AVqxh-4">
          <mxGeometry relative="1" as="geometry">
            <mxPoint x="1670" y="132" as="sourcePoint" />
          </mxGeometry>
        </mxCell>
        <mxCell id="-3PmLi9KhIWoqC7AVqxh-2" style="edgeStyle=orthogonalEdgeStyle;rounded=0;orthogonalLoop=1;jettySize=auto;html=1;exitX=1;exitY=0;exitDx=0;exitDy=0;entryX=0;entryY=0;entryDx=0;entryDy=0;curved=1;" edge="1" parent="1" source="-3PmLi9KhIWoqC7AVqxh-4" target="-3PmLi9KhIWoqC7AVqxh-8">
          <mxGeometry relative="1" as="geometry">
            <Array as="points">
              <mxPoint x="2092" y="154" />
            </Array>
          </mxGeometry>
        </mxCell>
        <mxCell id="-3PmLi9KhIWoqC7AVqxh-3" style="edgeStyle=orthogonalEdgeStyle;rounded=0;orthogonalLoop=1;jettySize=auto;html=1;exitX=0.5;exitY=1;exitDx=0;exitDy=0;curved=1;entryX=0.5;entryY=0;entryDx=0;entryDy=0;" edge="1" parent="1" source="-3PmLi9KhIWoqC7AVqxh-4" target="-3PmLi9KhIWoqC7AVqxh-16">
          <mxGeometry relative="1" as="geometry">
            <mxPoint x="1770" y="552" as="targetPoint" />
            <Array as="points">
              <mxPoint x="1730" y="532" />
              <mxPoint x="1710" y="532" />
            </Array>
          </mxGeometry>
        </mxCell>
        <mxCell id="-3PmLi9KhIWoqC7AVqxh-4" value="&lt;div&gt;&lt;b&gt;IDLE&lt;/b&gt;&lt;/div&gt;&lt;div&gt;&lt;br&gt;&lt;/div&gt;&lt;div&gt;c_ready&lt;br&gt;&lt;/div&gt;" style="ellipse;whiteSpace=wrap;html=1;aspect=fixed;" vertex="1" parent="1">
          <mxGeometry x="1690" y="140" width="80" height="80" as="geometry" />
        </mxCell>
        <mxCell id="-3PmLi9KhIWoqC7AVqxh-5" style="edgeStyle=orthogonalEdgeStyle;rounded=0;orthogonalLoop=1;jettySize=auto;html=1;exitX=0.5;exitY=1;exitDx=0;exitDy=0;entryX=1;entryY=0.5;entryDx=0;entryDy=0;curved=1;" edge="1" parent="1" source="-3PmLi9KhIWoqC7AVqxh-8" target="-3PmLi9KhIWoqC7AVqxh-13">
          <mxGeometry relative="1" as="geometry" />
        </mxCell>
        <mxCell id="-3PmLi9KhIWoqC7AVqxh-6" style="edgeStyle=orthogonalEdgeStyle;rounded=0;orthogonalLoop=1;jettySize=auto;html=1;exitX=0;exitY=0.5;exitDx=0;exitDy=0;entryX=1;entryY=0.5;entryDx=0;entryDy=0;curved=1;" edge="1" parent="1" source="-3PmLi9KhIWoqC7AVqxh-8" target="-3PmLi9KhIWoqC7AVqxh-4">
          <mxGeometry relative="1" as="geometry">
            <Array as="points">
              <mxPoint x="2170" y="180" />
              <mxPoint x="2170" y="232" />
              <mxPoint x="1820" y="232" />
              <mxPoint x="1820" y="180" />
            </Array>
          </mxGeometry>
        </mxCell>
        <mxCell id="-3PmLi9KhIWoqC7AVqxh-7" style="edgeStyle=orthogonalEdgeStyle;rounded=0;orthogonalLoop=1;jettySize=auto;html=1;exitX=1;exitY=1;exitDx=0;exitDy=0;entryX=1;entryY=0;entryDx=0;entryDy=0;curved=1;" edge="1" parent="1" source="-3PmLi9KhIWoqC7AVqxh-8" target="-3PmLi9KhIWoqC7AVqxh-11">
          <mxGeometry relative="1" as="geometry">
            <Array as="points">
              <mxPoint x="2380" y="208" />
              <mxPoint x="2380" y="562" />
              <mxPoint x="2348" y="562" />
            </Array>
          </mxGeometry>
        </mxCell>
        <mxCell id="-3PmLi9KhIWoqC7AVqxh-8" value="PRO_REQ" style="ellipse;whiteSpace=wrap;html=1;aspect=fixed;" vertex="1" parent="1">
          <mxGeometry x="2280" y="140" width="80" height="80" as="geometry" />
        </mxCell>
        <mxCell id="-3PmLi9KhIWoqC7AVqxh-9" style="edgeStyle=orthogonalEdgeStyle;rounded=0;orthogonalLoop=1;jettySize=auto;html=1;exitX=0;exitY=0;exitDx=0;exitDy=0;entryX=1;entryY=1;entryDx=0;entryDy=0;curved=1;" edge="1" parent="1" source="-3PmLi9KhIWoqC7AVqxh-11" target="-3PmLi9KhIWoqC7AVqxh-13">
          <mxGeometry relative="1" as="geometry" />
        </mxCell>
        <mxCell id="-3PmLi9KhIWoqC7AVqxh-10" style="edgeStyle=orthogonalEdgeStyle;rounded=0;orthogonalLoop=1;jettySize=auto;html=1;exitX=0;exitY=1;exitDx=0;exitDy=0;entryX=1;entryY=1;entryDx=0;entryDy=0;curved=1;" edge="1" parent="1" source="-3PmLi9KhIWoqC7AVqxh-11" target="-3PmLi9KhIWoqC7AVqxh-16">
          <mxGeometry relative="1" as="geometry">
            <Array as="points">
              <mxPoint x="2292" y="692" />
              <mxPoint x="2015" y="692" />
              <mxPoint x="2015" y="690" />
            </Array>
          </mxGeometry>
        </mxCell>
        <mxCell id="-3PmLi9KhIWoqC7AVqxh-11" value="WR_BACK" style="ellipse;whiteSpace=wrap;html=1;aspect=fixed;" vertex="1" parent="1">
          <mxGeometry x="2280" y="572" width="80" height="80" as="geometry" />
        </mxCell>
        <mxCell id="-3PmLi9KhIWoqC7AVqxh-12" style="edgeStyle=orthogonalEdgeStyle;rounded=0;orthogonalLoop=1;jettySize=auto;html=1;exitX=1;exitY=0;exitDx=0;exitDy=0;entryX=0;entryY=1;entryDx=0;entryDy=0;curved=1;" edge="1" parent="1" source="-3PmLi9KhIWoqC7AVqxh-13" target="-3PmLi9KhIWoqC7AVqxh-8">
          <mxGeometry relative="1" as="geometry">
            <Array as="points">
              <mxPoint x="2050" y="424" />
              <mxPoint x="2050" y="322" />
              <mxPoint x="2260" y="322" />
              <mxPoint x="2260" y="208" />
            </Array>
          </mxGeometry>
        </mxCell>
        <mxCell id="-3PmLi9KhIWoqC7AVqxh-13" value="ALLOCATE" style="ellipse;whiteSpace=wrap;html=1;aspect=fixed;" vertex="1" parent="1">
          <mxGeometry x="1970" y="412" width="80" height="80" as="geometry" />
        </mxCell>
        <mxCell id="-3PmLi9KhIWoqC7AVqxh-14" style="edgeStyle=orthogonalEdgeStyle;rounded=0;orthogonalLoop=1;jettySize=auto;html=1;exitX=0;exitY=0;exitDx=0;exitDy=0;entryX=0;entryY=1;entryDx=0;entryDy=0;curved=1;" edge="1" parent="1" source="-3PmLi9KhIWoqC7AVqxh-16" target="-3PmLi9KhIWoqC7AVqxh-4">
          <mxGeometry relative="1" as="geometry">
            <Array as="points">
              <mxPoint x="1660" y="584" />
              <mxPoint x="1660" y="252" />
              <mxPoint x="1702" y="252" />
            </Array>
          </mxGeometry>
        </mxCell>
        <mxCell id="-3PmLi9KhIWoqC7AVqxh-15" style="edgeStyle=orthogonalEdgeStyle;rounded=0;orthogonalLoop=1;jettySize=auto;html=1;exitX=1;exitY=0.5;exitDx=0;exitDy=0;curved=1;" edge="1" parent="1" source="-3PmLi9KhIWoqC7AVqxh-16" target="-3PmLi9KhIWoqC7AVqxh-11">
          <mxGeometry relative="1" as="geometry">
            <Array as="points">
              <mxPoint x="1770" y="662" />
              <mxPoint x="1770" y="612" />
            </Array>
          </mxGeometry>
        </mxCell>
        <mxCell id="-3PmLi9KhIWoqC7AVqxh-16" value="FLASH" style="ellipse;whiteSpace=wrap;html=1;aspect=fixed;" vertex="1" parent="1">
          <mxGeometry x="1670" y="622" width="80" height="80" as="geometry" />
        </mxCell>
        <mxCell id="-3PmLi9KhIWoqC7AVqxh-17" value="rst" style="text;html=1;align=center;verticalAlign=middle;resizable=0;points=[];autosize=1;strokeColor=none;fillColor=none;" vertex="1" parent="1">
          <mxGeometry x="1630" y="110" width="40" height="30" as="geometry" />
        </mxCell>
        <mxCell id="-3PmLi9KhIWoqC7AVqxh-18" value="(!flash &amp;amp; ((wr &amp;amp; !rd)&amp;nbsp; | (!wr &amp;amp; rd))) /~c_ready" style="text;html=1;align=center;verticalAlign=middle;resizable=0;points=[];autosize=1;strokeColor=none;fillColor=none;" vertex="1" parent="1">
          <mxGeometry x="1820" y="130" width="250" height="30" as="geometry" />
        </mxCell>
        <mxCell id="-3PmLi9KhIWoqC7AVqxh-19" value="hit &amp;amp; rd&amp;nbsp; / cache_hit, c_rd_en" style="text;html=1;align=center;verticalAlign=middle;resizable=0;points=[];autosize=1;strokeColor=none;fillColor=none;" vertex="1" parent="1">
          <mxGeometry x="1895" y="232" width="180" height="30" as="geometry" />
        </mxCell>
        <mxCell id="-3PmLi9KhIWoqC7AVqxh-20" value="~hit &amp;amp;&amp;nbsp; dirty_bit / cache_miss, w_valid" style="text;html=1;align=center;verticalAlign=middle;resizable=0;points=[];autosize=1;strokeColor=none;fillColor=none;rotation=0;" vertex="1" parent="1">
          <mxGeometry x="2410" y="342" width="220" height="30" as="geometry" />
        </mxCell>
        <mxCell id="-3PmLi9KhIWoqC7AVqxh-21" value="~hit &amp;amp; ~dirty_bit /r_valid" style="text;html=1;align=center;verticalAlign=middle;resizable=0;points=[];autosize=1;strokeColor=none;fillColor=none;rotation=-30;" vertex="1" parent="1">
          <mxGeometry x="2140" y="392" width="150" height="30" as="geometry" />
        </mxCell>
        <mxCell id="-3PmLi9KhIWoqC7AVqxh-22" value="r_resp / alo_wr_en" style="text;html=1;align=center;verticalAlign=middle;resizable=0;points=[];autosize=1;strokeColor=none;fillColor=none;rotation=0;" vertex="1" parent="1">
          <mxGeometry x="2080" y="292" width="120" height="30" as="geometry" />
        </mxCell>
        <mxCell id="-3PmLi9KhIWoqC7AVqxh-23" style="edgeStyle=orthogonalEdgeStyle;rounded=0;orthogonalLoop=1;jettySize=auto;html=1;exitX=0;exitY=1;exitDx=0;exitDy=0;entryX=0;entryY=0;entryDx=0;entryDy=0;curved=1;" edge="1" parent="1" source="-3PmLi9KhIWoqC7AVqxh-13" target="-3PmLi9KhIWoqC7AVqxh-13">
          <mxGeometry relative="1" as="geometry">
            <Array as="points">
              <mxPoint x="1982" y="522" />
              <mxPoint x="1950" y="522" />
              <mxPoint x="1950" y="382" />
              <mxPoint x="1982" y="382" />
            </Array>
          </mxGeometry>
        </mxCell>
        <mxCell id="-3PmLi9KhIWoqC7AVqxh-24" value="~r_resp / !alo_wr_en" style="text;html=1;align=center;verticalAlign=middle;resizable=0;points=[];autosize=1;strokeColor=none;fillColor=none;rotation=-90;" vertex="1" parent="1">
          <mxGeometry x="1870" y="442" width="130" height="30" as="geometry" />
        </mxCell>
        <mxCell id="-3PmLi9KhIWoqC7AVqxh-25" value="flash / flash_start" style="text;html=1;align=center;verticalAlign=middle;resizable=0;points=[];autosize=1;strokeColor=none;fillColor=none;" vertex="1" parent="1">
          <mxGeometry x="1730" y="322" width="110" height="30" as="geometry" />
        </mxCell>
        <mxCell id="-3PmLi9KhIWoqC7AVqxh-26" value="hit &amp;amp; wr &amp;amp; dirty_bit / cache_miss, w_valid" style="text;html=1;align=center;verticalAlign=middle;resizable=0;points=[];autosize=1;strokeColor=none;fillColor=none;rotation=0;" vertex="1" parent="1">
          <mxGeometry x="2400" y="300" width="240" height="30" as="geometry" />
        </mxCell>
        <mxCell id="-3PmLi9KhIWoqC7AVqxh-27" style="edgeStyle=orthogonalEdgeStyle;rounded=0;orthogonalLoop=1;jettySize=auto;html=1;exitX=1;exitY=0.5;exitDx=0;exitDy=0;entryX=0.5;entryY=1;entryDx=0;entryDy=0;curved=1;" edge="1" parent="1" source="-3PmLi9KhIWoqC7AVqxh-11" target="-3PmLi9KhIWoqC7AVqxh-11">
          <mxGeometry relative="1" as="geometry">
            <Array as="points">
              <mxPoint x="2440" y="612" />
              <mxPoint x="2440" y="682" />
              <mxPoint x="2320" y="682" />
            </Array>
          </mxGeometry>
        </mxCell>
        <mxCell id="-3PmLi9KhIWoqC7AVqxh-28" value="b_resp &amp;amp; ~start_flash / r_valid" style="text;html=1;align=center;verticalAlign=middle;resizable=0;points=[];autosize=1;strokeColor=none;fillColor=none;rotation=15;" vertex="1" parent="1">
          <mxGeometry x="2075" y="532" width="180" height="30" as="geometry" />
        </mxCell>
        <mxCell id="-3PmLi9KhIWoqC7AVqxh-29" value="b_resp &amp;amp; start_flash / do_flashing" style="text;html=1;align=center;verticalAlign=middle;resizable=0;points=[];autosize=1;strokeColor=none;fillColor=none;rotation=0;" vertex="1" parent="1">
          <mxGeometry x="1945" y="662" width="200" height="30" as="geometry" />
        </mxCell>
        <mxCell id="-3PmLi9KhIWoqC7AVqxh-30" value="~b_resp &amp;nbsp; / ~r_valid" style="text;html=1;align=center;verticalAlign=middle;resizable=0;points=[];autosize=1;strokeColor=none;fillColor=none;rotation=0;" vertex="1" parent="1">
          <mxGeometry x="2325" y="682" width="130" height="30" as="geometry" />
        </mxCell>
        <mxCell id="-3PmLi9KhIWoqC7AVqxh-31" value="&amp;nbsp;flash_done" style="text;html=1;align=center;verticalAlign=middle;resizable=0;points=[];autosize=1;strokeColor=none;fillColor=none;" vertex="1" parent="1">
          <mxGeometry x="1580" y="352" width="90" height="30" as="geometry" />
        </mxCell>
        <mxCell id="-3PmLi9KhIWoqC7AVqxh-32" value="dirty_bit&amp;nbsp; / w_valid" style="text;html=1;align=center;verticalAlign=middle;resizable=0;points=[];autosize=1;strokeColor=none;fillColor=none;" vertex="1" parent="1">
          <mxGeometry x="1850" y="592" width="120" height="30" as="geometry" />
        </mxCell>
        <mxCell id="-3PmLi9KhIWoqC7AVqxh-33" value="hit &amp;amp; wr &amp;amp; ~dirty_bit / cache_hit, c_wr_en" style="text;html=1;align=center;verticalAlign=middle;resizable=0;points=[];autosize=1;strokeColor=none;fillColor=none;" vertex="1" parent="1">
          <mxGeometry x="1865" y="202" width="240" height="30" as="geometry" />
        </mxCell>
        <mxCell id="1AtQalo0nMctWGIllylj-2" style="edgeStyle=orthogonalEdgeStyle;rounded=0;orthogonalLoop=1;jettySize=auto;html=1;entryX=0;entryY=0;entryDx=0;entryDy=0;" edge="1" parent="1">
          <mxGeometry relative="1" as="geometry">
            <mxPoint x="3551.715728752538" y="248.1357287525379" as="targetPoint" />
            <mxPoint x="3460" y="170" as="sourcePoint" />
          </mxGeometry>
        </mxCell>
        <mxCell id="1AtQalo0nMctWGIllylj-1" value="" style="shape=image;verticalLabelPosition=bottom;labelBackgroundColor=default;verticalAlign=top;aspect=fixed;imageAspect=0;image=data:image/png,iVBORw0KGgoAAAANSUhEUgAAA2cAAAD6CAYAAAAlWz9lAAAABHNCSVQICAgIfAhkiAAAABl0RVh0U29mdHdhcmUAZ25vbWUtc2NyZWVuc2hvdO8Dvz4AAAAqdEVYdENyZWF0aW9uIFRpbWUARnJpIDE2IEF1ZyAyMDI0IDExOjMxOjQ4IFBLVI+eVf4AACAASURBVHic7N13dBRVG8Dh3+ymh/RA6L2F0EMHP0AEURQQBBVBAUEEVERRFBCxi2IH6UgRBJQSSiAEEpASJLRAQu8tgfSebJn5/tgQQhIkQSNLfJ9zOGfJzN69M/vOnfvO3DuraJqmIYQQQgghhBDivtLd7woIIYQQQgghhJDkTAghhBBCCCGsgiRnQgghhBBCCGEFJDkTQgghhBBCCCsgyZkQQgghhBBCWAFJzoQQQgghhBDCCkhyJoQQQgghhBBWQJIzIYQQQgghhLACkpwJIYQQQgghhBWwyuRs4MCBKIqCoih07979flenWB7kugshhBBCCCHunxJPzjRNY9GiRXTp0oWyZctia2uLh4cHtWvXpnv37kyePJnIyMiSroYQQgghhBBCWDWbkixc0zT69evHqlWrbvt7UlISSUlJnD17lqCgIHQ6HQ0bNsxdXrNmTfz9/QGoW7duSVZRCCGEEEIIIaxCiSZn69atuy0x8/Lywt/fH71ez8WLFzl37hxZWVkF3vfRRx/x0UcflWTVhBBCCCGEEMKqlOiwxpCQkNzXvr6+XL58maCgIAIDA4mKiiI+Pp7ff/+dNm3a3Pa+u83b2rZtG+3bt8fJyYmyZcsyePBgrl+/TqdOnXLfN3DgwNz1z5w5k/t3RVHYu3cvS5cuxd/fH0dHR3x8fBg5ciRpaWm3fc727dsZOHAgjRs3xsfHB3t7e5ycnKhTpw5Dhw4t9nDM8+fPM3z4cGrVqoWDgwMODg5UrFiRdu3a8frrr3P27NlilSeEEEIIIYQoPUr0zplOdyv3c3R0xNbW9rblTk5O9O3bt1hlrl69mv79+2M2mwHIzMxk0aJF/PHHHzg5ORWpjMmTJxMcHJz7/6ysLGbNmsW1a9cICAjI/fv27dtZunRpgfefOXOGM2fOsHTpUrZs2ULHjh3v+pmxsbG0bt2a2NjY2/4eHR1NdHQ0YWFhPPzww9SqVatI21Cw/DhGjXkTb28vunTqyNN9et9TOfn1nRzFqN4V6dLcgz1RKXyy+AKBUxsX6b2btwSzbsMmYuPi+OKTD6lVs8Y/UichhBBCCCFKoxJNztq2bct3330HwMGDB6lRowbdunXD39+fli1b0qxZM2xsil6FtLQ0hg8fnpuY2dvbM2TIEOzs7Fi4cCHnz58vUjnBwcHUqVOH1q1bs2XLFm7cuAFYhmGePn2aOnXqAGBjY0OXLl3o1q0blSpVwsXFhUuXLvHjjz9y6tQpDAYDb775JgcOHLjrZ65atSo3MfP19WX8+PG4u7tz5coVIiMjWbduXZH3w1/54esvCyTB/5SaFRwY2atS7v8HfXac/p3K8WQ7r0LX796tK927dWXAi0NLpD5CCCGEEEKUJiWanPXr14/FixezceNGAK5cucKCBQtYsGABAJ6engwdOpQpU6bg7Ox81/LWrFlDQkJC7v8XL15M//79AejTpw+dOnUqUr38/f3ZuXMnjo6OHDp0iObNm+cu279/f25yNmHCBCZNmpS7LDs7G6PRSM2aNenRowdgSTrj4+Px8io8QbkpPT0993WHDh144YUXUBQl928//fQT2dnZRar//VLe0+6OiZgQQgghhBDi7ynROWeKohAQEMC8efNo165dgbtkCQkJTJs2jT59+hSpvLx3qJydnXn66adz/9+xY0eqV69epHJGjRqFo6MjAM2aNUOv1+cuS0xMzH2dkZHBhx9+SNOmTXPniLm4uOQmZjddu3btrp/ZokWL3Ndz587F29ub//3vf4wYMYIFCxaQkJCAg4NDkep/rzQNftseS78pUXQcc5hBnx3n4KnU3OVGk8a0FZfpOi6Cx8YfYeHmmNvevycqhcfHHwHg65WXOXs1kx9XX6H3pEjGzz5XonUXQgghhBCitCvx3znT6/W89NJL7N69m6SkJLZv385HH31E1apVc9fZsmULYWFhdy0rKSkp93W5cuVum9MGUL58+SLVKf+8Lnt7+9zXqqoCYDKZeOSRR5gyZQoRERF/eVerKHe8OnbsyLhx43LrnJCQwM6dO5kzZw4vvfQS1atXZ8eOHUWq/71aEXqDpVuv8+mwmoR+15RhPSowdsZZricaAJi3MZrwE6n8MtGXgE8acj3RwJXYwrftrf5VqFXJkdf6VGbtJw2ZOqJmidZdCCGEEEKI0q7Ek7O8nJ2d6dixI++//z6bNm26bdmJEyfu+n53d/fc17GxsWiadtvymJiY/G8pVN5kDLhteOFNISEh/Pnnn7n//+GHH0hOTkbTNPbs2VOkz8nvq6++4uLFi8yfP58333yTHj164OLiAljm040dO/aeyi2q5SE3ePnJitSt7IhOgY5N3GlSy5nQQ5akd31YPC/1qICPhx12tjpe71MZ/b8aIUIIIYQQQvx3leics6+//poLFy7wwgsv0LJly9uW5U/GijLnLO/QwLS0NNauXctTTz0FQGhoKBcuXPj7lc6RtyydTsfIkSNzh2XmTyyLIjk5GWdnZypXrszQobcekBESEkKXLl0AOHbs2N+r9F/QNLgWb2BmwFXmb4zO/XtmtpkG1Z3RNIhLMlCl7K3E1dFeh5dbyTxcRAghhBBCCHG7Ek3OUlNTmT59OtOnT8fDwwM/Pz/c3NyIiYnh4MGDuevZ2dnxv//9767l9e7dG09Pz9yHggwYMIDnn38eGxubQh95/3dUqVIl97WqqgwbNoxevXoRFhbGt99+W+zyNm3axGuvvUbfvn3x8/OjUqVKmEwm5s+fn7uOt7f3P1L3wiiK5YEeY/pWoktzj0LX8Xa3Iz7FmPt/s6qRlGb6izIL3nEUQgghhBBC3JsSTc7ydt4TExPZtWtXoet98cUXRZovVqZMGebOnUu/fv1QVZWsrKzc5KZGjRpUq1aNqKgogALz0Yqra9euNGnShIiICAAWLVrEokWLAHjsscfu6e5ZXFwcs2fPvuPy9957794qW0TPPlyOGWuvUcnbnnpVnDCYVCLPp1PB046K3vY80daLZVuv08rXFTsbhRWhsWRmq3csz9vNlovXs0q0zkIIIYQQQvxXlOiMogkTJrB161bGjh1LmzZtqFatGg4ODtjb21OtWjWeeeYZtm/fXqy5Vn369CEoKIh27drh4OCAl5cXL7zwAnv27MFkunWXJ+/8tHthY2NDSEgII0eOpEqVKtjb29OgQQOmT5/Op59+Wuzy2rRpw8SJE3nkkUeoVq0azs7O2NjYUL58eXr06MH69esZPXr036rz3Tz3cDkGPlKOKQsv0OmNwzw5IZIlW65jzsm/hvWoQPUKjgz85BijvztNWqaZqj53foLki4/6sP1wEp3HHmbUd6dLtO5CCCGEEEKUdoqW/6kaVi4zMzP3Mfh5RURE4O/vn/sD1YsWLeKFF174t6t338THJ/D2e5NwcXGh0/868FSvJ+93ldiyNYSNm4JITUtj8oTxVK9W9e5vEkIIIYQQ4j/qgUvOfvnlF7744gueffZZ6tati62tLVFRUfzwww/ExsYCULFiRU6dOlWkh4wIIYQQQgghhDUo0TlnJSUqKor333+/0GVly5Zl7dq1kpgJIYQQQgghHij6KVOmTLnflSgOBwcHsrOzyczMxGQyYTQacXNzo2nTpgwfPpyFCxdSp06d+11NIYQQQgghhCiWB25YoxBCCCGEEEKURiX6tEYhhBBCCCGEEEUjyZkQQgghhBBCWAFJzoQQQgghhBDCCkhyJoQQQgghhBBWQJIzIYQQQgghhLACkpwJIYQQQgghhBWQ5EwIIYQQQgghrIAkZ0IIIYQQQghhBSQ5E0IIIYQQQggrIMmZEEIIIYQQQlgBSc6EEEIIIYQQwgpIciaEEEIIIYQQVkCSMyGEEEIIIYSwApKcCSGEEEIIIYQVkORMCCGEEEIIIayAJGdCCCGEEEIIYQUkORNCCCGEEEIIKyDJmRBCCCGEEEJYAUnOhBBCCCGEEMIKSHImhBBCCCGEEFbApqQKXrJyXUkVLYQQQgghhBAPhEH9exZ53RJLzgC6d+lYksULUWI2b9sh8StKlMSYKO0kxsWDRmJWlITN23YUa30Z1iiEEEIIIYQQVkCSMyGEEEIIIYSwApKcCSGEEEIIIYQVkORMCCGEEEIIIayAJGdCCCGEEEIIYQUkORNCCCGEEEIIKyDJmRBCCCGEEEJYAUnOhBBCCCGEEMIKPNjJmekQ3/RsQauWzWnTZRI7svIsOvglPVs3tyzrNY3DplvLMrdPpEur5rRq2YK+P0RivuvnHGDakzmf0+trInLK0pIOs3bebObOmc3P286j/tPb97epXPllMO1bNqdVyza8vTnjL9c2R33P020s++XRT8Mw/ku1FDn+o/H89+NO5WLoz8ydM5u581ZxKEErgVo+gP6j8ST+g9SrLBvWmlYtm9/616oF7R7qxBPPDGfSzCDOZtzHdsG4i48fsRwjbftP5/hdD6q/p3htaiqBb7ax7LN2Q/n1mhyp90VaIOPaN78thlu3bkmHzt14eug4vlsbSfJ9/GryxtQnn3x0T2UcP34sd9vutYzQ0BDLuX7ObJKSku6pjAfBg52c2dSlsZ8jCqCmR3HkzM0WT+Xq0UjicgJZvXGUyOibUW3idMRR0jVAKYNf41ro7/HjtaRDrJ0/m7lz57Aw5Dymu79FiDuTeL5HJi6GLmDe3NnMnb+KQ4mSnAEST+K/TVMxZaVw49wBtiyYyMhJ64iWvEM8QDTVjCEtjktHQ1j22UjeWnLmP9+OhoaEMHfubObOLd3Jmc39rsDf44hf47rYbD2E0XyNo5E3UBtWQKelEnXkLGZFQQE081mORKVDFRdQrxN59DoqoNjWo7Gf/V9+gmo0otnUps/kb2mTDYp9JWrea2+llFGNRjRb23vuvIn8JJ7FP+k/Gk+qESO22D7Ylx7FvdJ58+jE7xhU10Ts4WV8830wl00qSWGr2Hr1SQZVkcD4e0wYTTbYPuC9R2umOLRjzKzX8NcSORnwHdMCTpGlpRMZsIETz79BQ9n3pd4D/hXrKNuwMeV1h7ismjgdEUnWsxVwMp7gyPFsNF112rQ0sG9vNMeOnMDYvSW2GZEcOW259qCr1JiGnjrAQOjEzry7JRPNpgGv/DASVs9kzd4zJPi8yM+LWrHuo7GsjFHRVXye2avewHZ2P15aeCFnyI9G5pZxdNgCoKfa4IUsH+2HHo3UU5tYsvB3th86w7UkAzZuFanX8lGeG/4inao6/OXWmc+s4fOf1nPs7GVik1JJzwY7t3JU9+vAky8O46kmnnlufaokHVnO99//yh8nY9E86tK+36s8faeyb4Sx8JsfWRN2jhRbH3w7D+TVhwtb8y77ZulI6uqLup1GovcsZvbiTYSfukJiBti7euDlU5VaTXszeuxjVNWBlnqC9XNmsWrnUS7eSMFoUwZXD28qVq9PpxffZmBzV5RiRMmDo3THMxQj7rQE9s6byi87T3MhJp7UtAyMemc8K9XDv8uzvDSoM1UdsAwFeXQSfxhy3mc6waxnWzALwK4jHwZ9S7eY4hxHpUlpjieN+NWj6PX5nxiwo807c+gVM5/5gQe4kNKAN1bPor+PDjUhgrULF7N+VwTnr6dgsvOkSoP29HhhOM+0Lo9tTmlZF4JZMHsZIYfOEJOUjeLkhodXearVbcczb4ygQ1kd6tl5vDjwJ06aFJy7T+brxkeZuzyEqJgsHCs1o/vQcYzsXoNbtVZJPraeRYvWsOPwWa6nGLFx9aFmk470fnEoT/i558Td7ft3+Dcj0G+YS0DYKeLMrtRo/QxvvDuEFp45UarGc3jlTOav28Pxy3Gkq/aUcfOgbKWaNOj+CuP71s/Zrr9/vD6YbHGvUpe69W2oW9eD81tC+OGoCdRYYm6okJucFXH/FLUtuslwiW2zv2bexv1cznCkUtPHGPpqY4p8P7+Yn1f0czmgpXN6/Y98u2gLkTEGXKq3pueIlylfyKq3x/vHTG91hJ8WB3P0cgbtPg7li64O/+jxVdT+wX+CzpWKdepRzw7qVn2e7YFT2GXQ0GKjuXHb3d9MLm7/hZ9XBrP/xGUSs3SUKV+bZp37M3TI49Qtk9NTKsmYuoPY2Bt8Pe0r9u4NQ29jw8MPd6Fbt0cLXXfb1mB++20lly5dJDU1FVVV8fb2pmXLVrw84hXKlfPBYDDQoX2b297Xv1+f3Ne7du9FURQ+mDyJM2fPEB8XR3p6Oo6OjtSqVZs+ffryeI8nircR99EDnpyBTe3G+JVRuJyikRkVwSlTVxpfPkJUoorOvRl9emZx7M+rJEQe4arakkonDxOVpQE6XBs2pkb+q7zqZVZOeovEBAMaoPe515ppJO76glfe/Z3z2RqKjRPuHmXITrjIoc2zidizn9EzpzOo7p2vTJtjDhG6K4J0Wxc8Pb3xNiQRl3iFYzuXczz8MAlzFjLc1w4Aw6mFvPXaDI7eHFcfE0nQ9DEc9HYoMGdES9/Pj6+N5ddzhpwTxmUOrZ3K67u9+cszSKH7pujbqZ5ZxPi3Z3LCoKHYlsG7nAtaejxXTl7nyo0q9Hn9MaoqyYR++RqfbY5HVXQ4upfD2y6b5OvnOHrtEvq2I3m+1CZnpTueixV3Wiqn94Sy74SGk7s37t6OpMfHEXs2nE1nDxB+7lMWf/oo3kWoeXGOo9KmNMfTLSZOzBtLeGIiZg1u9gjV6EAmvTyFbTEmNMUWZ08PHNPjOLdvDT/u30nExAV80bMy+uwDzHjjPVZeVUFnh4t3WZxMKcRfPEbM5UwaDHyZDmVv/8TM7V8yZpsN7j5O2KrJJJ4PY/kHrxCrW8In3cqhQyVuxye8MiGAS4ZbwW1IuExk6C9E7f6DI5/OY0In79svDJjPsnT8WLLM9tipRoymOE6FzuQ9rQLLv3wcL0Uleu1kxn4TRrqmYOPkSTkPPRmJ1zh7+AqX3B/lzb71sf1H9++DTIdOl3O2UFxxd7155ijG/ilqW6QDtHi2fzaSSYHRllgkk/Nhy/jgRDCemUVMz4rxecU7l6tcDZjAq5/vJDGng591KpQF449S1vWvB8tl//ktb2yJz5nzZGkr/+njq0j9g/9KcpaHotPnthGKizu3QjidiDkjeWNBJOmqgs7eFS9XE0lXjhKyOJKwvWf4dtbrNHdRSjCmCpeZmckrI17m8uVLuX8LWLuGPbt3F7p+ZFQkBw8ewNbWFk9PT1JTU4mOjmbdugDCw/exYuUqdLq7f/lGo5GtW4MBcHNzw8vLi7i4OI4cieDIkQjSMzLo169/0TbiPnvwQ93ej8b1bC3zKmKPcPSameSoI1wwK9g1aEyTpk2pZ6tgPn+EyBQzV48eJV4FFBvqNW5AgS6ZmkayfXve+GkNgUGBLJn8GBUK7CU9DUavZvdvr9HABkDBsds0doUfZF94OL+N9kNvOMiCr1ZxPltDV7EHH/++jaDArWxa+iatXXSoKQeZP31jvqsgt7Op1oMJs9cS/Md2AtdvYF3QdgKm9aGKHrSsU6xavR8DgJbM9gWLicrQQHGg3rPfsmrrdtb9NISq2an5JuKrxGyYw6rzBjR0uDR/hZnrtxO8+ht6eqWQ8Vdj8gvbN6aibqdGcuQhzhk0sGnAiCXb2LhuI4HbdhO8ah4fj+xERT1gPsfhiERUdLh3+4INQYEEbNhG6I7NLPl2Ik/7lSm1iRlQiuO5mHGnuOM/9GuWBO4idMsmAtZtJjh4Oa+2cEZBJX7HCrbEqFDmcabt3su0x5wtcWFTn1eW72df+EH27f6Wx8oU4zgqjUptPN1WKZLTPXhs4kLWBgWzZv5Y2rmmsv2nbwiJMYFdHZ79fgPBm4MI2riAwQ3sQI1j5/RZ7EzVUK8dJuK6iqbY0Wr8erZs3Mi6oJ1sD1rJjx+8SCvv/C2OhkZNBs4JZN2aQNbPf5mGDgqaGkvIrGUcMwHZB/j563VcMmgodjV56vM1hOzeye9f9KG6rYJmuMSGb+ZxKDt/0UZsGr7Ooi27CN3wJY+X0wEqKXu3si8NwMSpQ0fI0EBX+Rl+3BxsOTZ2/MHaBdN48/Haltz0H92/DxqVrOR44mOvcWLbYjYcNwEK9vW60fnmmNvi7J+itkWA+dRKZm+2JGa6sh0ZtzCIbUEr+KC9A0nGIvZsi/x5xWxTs8NZMm83iSooNlXp8dFKgkKCWDC2IVrSXwWChik5m8r9v2Dx+mACV81laKOsf/j4KmL/4L9CyyY1IZ64mDPsXvQ7B00aKDZU7vooDW9efDq7jGmLokhXdXg+NJ6lW0LYuHkbv03pSlmdRubpZXz32zlL/6+kYuoO1gWszU3MGjZqxJq161mx8ndcXFwKXb9D+w78svRXdu3ey/oNm9gWsoPnnhsAQHR0NKGhIdjZ2bEv/CDduz+e+76Vv622nOvDD2JnZ4etrS1TpnxE6PadBG8NZWNgEL+vWpv7ub8u++Vevo374oG/c4bOi4aNKqMLP4fZfJYjUQnUjDiOUdNTt1Ej3DwNNK6iI/z8MY4cT0A5cs5yJ0lXnUZ+HgU7+ooTHUa+z7Mt3VEAb0/AFF/saplP7SLsugoo6I1nWPvpGAIAyMLSjmtkRvzJ0ew+dHG8w6ZV8adZ2g42zV/J2egEUjONqMZosjQAldRLl0hQ21HefIz9h9Is80Qc2zNoREeqlAFaDGZot9Uc+v1GngQtgyP7IzFoln3X9aXB+Je3A/7H8Bc6sG7iVsvDAApTyL4xRwYUeTvbe5fFWQcG8ylWTnmHK01qUbVqTeo09KdDLx8cFQAvynnrUaKNJO/8gXcm/kn9GlWpVrM+Tf0fp5v7gx+yf6nUxnMx405xw9e/GuHbfmXG8YvEJmdgMJtJjsWSaJgvc+myGSre/fpSkY+jB/9SVUGlNp5u20i8H3uTt3s1xhHA0wsMu1gQlmRpE/XpHFnyPmOWWMpNS7BslZq8n30nTHSsXY6ydgonMowcWvA2E441pHrVatSo24QWXZ7Eq5CbqrZNnqKfn+WCgJNvH3o0+pnIcANq9AEOXFGpn7qHvTnbZ9t8AC93qUYZBco8PJLn1m7gi70G1Ot72XPKhH+jvJviycMvPEs9ZwWcW9Gqng2BNwxopnjiklRw0eNVzhsd6ajXAvlyfAr+dapTtXptfJu1onejMuj+8f37gFGvE/D2YznbCyj2VGj1HOMmvUjtnA5+8fZPUdsiuHFoP5fMAHpq9BpBX7+y6CnLo688x7qgqRwoyqNoi9z2ZRerTTWf28+hnKcA2TR+llcerY2HDjz6jqDXmp3MO3PnR0jqqz3DO2O6Ud8GwAtvwy6W/8PHl2OR+gf/DVpmKB8/GZr7f8XWi8a9xjJpVPOcYdMqV/fu5pxRAxS0q1v5ZlyIZWVTbM5FeyNn9x8gfnAtyupKJqbuZP/+8NzXw4ePoFKlSgC8OHgIH0yeVGD9Zs392b17F5s2BRIXF4fJaCQuLi53+cWLF4q032xtbfFv0ZK1a1Zz/sJ5MtLTUVUVFEvwXLlyBbPZjF5v/Zl+Kejp6qnRuCGuunMkqtkcOxhI1ahkVJ03jRpVRqfXaNzQHd3ZJCIPBmI+ZrlVq3NvSONqhfTG9JWpV+fvD5szJyWSlNPIG2NPsj+24DqaKYXkdI3CW51sTiwezaszDpJyh6sVmiHbchCaUkhOs6ykeFSgfO7YYRt8KpRDR57kTE0jOcVsuTut86Giz60QcChfAQ+FOx98heyb4mynQ9vhvNXzFF9tOEnCiR1sOLHDsoKiw63hEL74bhT+rlXoNWYE+9+fR1j0FQ4EX+FATjmKfWW6vDudj5+oWoofQlJK47mYcafGhfDJ8AlsvGIofCSFZiSrSFeii3EclUqlNJ5uY0P1enXIO+1Hy0okKdPyhWuZ1zgWfq2QD0ghOU1D8ejGyNd3cfnHbVy8foSQgCM5KyjYlm3D6G+/YUC9vMP/FPRuHtyczoHihrtbzsNV1GSSUlXU5ASSNMu6Dt7lbg1FUlwp5+0IGEBLJjH/s7F1ZamQe2zYYntz0g4qak6nv8GAcQw4+iErDsdxPiyQ82E5ReucqfXUR3z/Tmfc/tH9+6AzkhJ7g6SsW/u6OPGnpocWsS3SSElKyTnX6vGpUD53aJLOowI+DgoUoc0qcttX3DY1JYmUnJi0L18Bj9zKlaeCjx7umJwp2NaqR808vcWSOL6K1j8o7bF6B+Z04m4kkGG2JGOgkpyQlDNlRSXx3H7CzxV8m5aSTArgVUIxdSd5n6J4MzEDqFixYsGP1jTeemssu3ftvGN52dn5hxgU7uDBA4x5/dW/XD87OxsnJ6cilXc/lYLkDOx8m1LfZj1hBpX43SsJSlBRHBrQuJ4toOHbtAF263ZxPnAlyYmWq2V2DZpQ37aw0v6ZpxDp3T1wUyBF0+Ha/SvWfdyZYoWDYR8rFh8mRQWdRwfGfD+FvvU8sU0JYGyPD9mTtzdp44pbGR0kqJCWTGruOSjvySKHrgxurnoUjJaORIrKzdGtanIyaX9ZqYL7pnjbWYluE5fRadQFThw/zYVLFzi1Zx1r914lOXIJC7b0o9nT5XBpMpTv1j5LzKkoTp6/wKVzhwleHcSJlCuEzFxG3+7v4l8qIrdwpTKeixV3Klc3LWLzFQOaYkOtftOYNro9FZ00jnz3FCOWXi36b2YV5zgqpUplPOWvVb5KKQ7uuDvqwKCiqziAWb+Po2mh22NRu+9UlveI5dzx45y9eImLUaGsXX+YuNi9zFu0k96fPZIn+dMwRV/hhgqVdYAaw7WYmx0aN9xddOjwxF2BVE0jK+4GKRp4KYCWwo3YzJxKuuHhrofbZgXr0OX2P5WbF3xvo/Nqz2tzAhl8+QTHTp/n0qUz7AtcxR/n0zkTMIeApzsy5B/evw8UXQWembWWMbWvsXveRD749Rjp5zcxdWJ5avz8Kg3tixN/KpeXFLUtUnB1d7XcuUQlJTkFDcsdZi0rmZQitTXFaPuKeS7XU7aU/gAAIABJREFUuVrmK8UDhpRkMjWwy4nJ5Dtducqht7W97YJMSRxfTvqi9Q9K4wCH/BSn7kwN/phW8Qf49eN3mRuexLWd3/HetzX4ZUJ7XBQdbp7u6LiEqtjRZsJGvu/tdYeLZiqXSyim7sTd3T33dVJSElWrVst9nd+xY1G5iVmDBn58MfUrypcvT2hoCOPfGVdw3/xFfr540cLcxGzS+x/Qvftj2NnZMeC5/pw5c6aItbcOpSLOFfeGNK5uuZeixkZzw6yhr9WEBs4ACq5+Taih1zDfiCZWhZtXk13+7kUYB0ccFAAN47XzXMq6dUlBX6c9bX0s8wVS/1jA/L03cn4IUsOQcIbdK6Yy9tsdd75ib0glNWcCseLtR4u6ntjpTFwL2UZk/rm7Ng1o0cwynEVN3c3aoGuYADVhDwGhV/J1ZJ1o3KKhpVFWrxIasIcEFTBdY0vA7jveXbiT4myn+dxWlm34k2u6SjRq15Wezw5jxHOtczotKqkpaaAlcWDtckJOpOJatyUdH+vHoBGjeKyOjeUkl5aSJ/ksnUplPBcr7jRSU1JzrvA5UL1Zcyo56SE1gpA9MYVc+VOwd3SwnJjUOC5eSLrV3S3OcVRKlc54ugvbxrRv7WZpE2MCmbv0CEk5QaFmXudYyCI+eXu25ce3s6MIXLqJI/GO1Gj2Px7tPZBhI/vSyNkyF8aQmkJWvqAzRS3np4BjxKbEciJgBr8fsxSuq9AC/8o6bOq2y9k+DeOBX5i19TwpWSlc2DqDXw8aLXcnfdrQrk5xxwCoRO9ayepd5zD4NKD1w0/Sb/BIhnaubBlNoKaQkqqW/P61ego2LtXo+OoUXvS1Q0HDcGY5M9ZazodF3z/FaYt0lGvegqp6ADOnNq3haJoGZHN+3XoOGopwy6FYn1e8c7m+ZguaeefE5MH1rDuXDWikR65h88li/ip2CRxfReof/KfocarQiiHvv0qrMgpoKjEbf2DZSSOgo2LrdtS0VUAzcmDpDEKuZOXEh5GUi/sI+GEcn2+4gVqCMXUnLVq0zH3928oVqKqKyWRi9arfC6yblZmZ+7pevXqUL18eTdPYsiWo0LJd3dxyX589cxpNu7UFmXnKateuPXZ2dpw6dZLz588XreJWpHTcf9BVpVFDD3SnYnMSEcsjpG9OVNdVbkwjLx3Hr+dEls6Lhg0r/+3MVOfdAN/yOg5eVjFFzmDAQzNAceXxb7YwpYM/Q97uzb5313AhI4olr/dglbsXzqSTlJSBUdOw69L8zg+/cWpKu2ZO7PwzHfOZhbw1/Dj1HK8SERlNgWHrihudhr6AX9gMjmYk8Mcn/ei50Ad9/BWSzLYoZOf5HB3ln3iZvquP8Os5A1fXvUXfvVXwMl/nWqqGjQJFOofcZF/07VSv72bhxwF8p+mwdXLH3clMSnwK2SoottVo27oKOu0GJzd8y3cRX6Lo7Cnj6YZtZgKJ6SY0dLi36pA7IbbUKo3xXKy401OzTRvKL7nIVXM6oZ8P4bWgiqSfOMi55Px3GgBsqO3ni8OaXWSocWx69xE2ATYNx7B8bteiH0elVamMp7tQ3Og0aiydIz4i5HoS4TOG8PhCTzwcTaQlppBp1tCV7Ud3DTBeJOSnSfzxnYLOrgzu7vYYk+JJM2igONGgrT/utyWqCnovlUNTB9Hjs1s1VHRleXjEc5aHoNj4M/itnoRNCOCy4QIBE/remgMFKHZVeeLNYTQr9sMSNRIjlvPVwi+Yqtjg4OpBGV0aCUmZmFHQlWtL27o2xWqXSzXb2vQf+SRrx6wiWs3g0OJ5hD3+Ae1dirp/itcW6ev05+VH1zNhUwyG04sZ1SuYSq6ZXLuRiaJTyHmE418ozucV81xu35JBw9oR8vkukjIOMP2Fx1lT0ZHkqwkYi3uwl8DxZS5K/6CY1SwNdBWeYOQzKziw4DRG41lWztlEn2k9KVt7AOMG7uSNhVFkXFjLhL6bcPFywyYziaR0A6pmi/87b1OiMXUHPXv1ZuXKFVy+fImgoM2Eh4djNpvIysoqsK5vAz88Pb1ISIgnIGAtN2Jjib1x47YnPebVsGEjVvArAO+9Nx6A+r6+LF68lA4PPcShQwcBeHn4UGrVqk14eDi2traYzcW8AHGflZJYt6V+kwbY547rz/nx1dzF9Wns55h7y/fWkJ6/yaYRg99/jUd8fXC21eW73arg9dAE5i/4iMGP+lPD2xFTaiJpqhM+tZvRpf9o3n2+GXesha4ivadM45VH6lPWUSX+TBQX8Wf016/RopCU2q7uYL7+4U0eb1QRZxsTGZm21O37MV+8WK9ABq44t+C1H75heJf6lHXUYUzPokyzwUyd0vceHopQ9O3UV3mIp3p0pGmtCrjqM0mMT4MyPtRp3YtXv53OcD9bUFxp+GgfurZuQBVvJ9SUeJKN9nhWbczDg6Yw/YPHKPDwtFKnFMYzxYs7B//X+Pr9frSo4opNxmWOnUygfK9PmdynYiGNloLXY+OY0L8V1Twc0OeteDGPo9KpdMbT3egrPcEni+YwfsDDNKrqiZ0xmeQMBdeK9WjZfRCvvdmHujaAfR0efvpx2jeqTrkykJ6QQJbenYq+D9HvnRlMfbZagZiz93+DHz8ZRLuaXjja2eNerS3PfDiTyY/eHHalw7vjJObPmczznRtRxdMJW70tjh6VadhpIBNmLyz4GP0iUSjXoic9O7egTiUP7IzJJKSYcfKuSbPuw/l8xtu0df539u+DwrnVSwxt45LzxNLNzFl5FlMx9k+x2iLFi84TZ/LJ8x2o6WkPWemYyj7E6O/epUuZop24ivN5xTuX66jU63OmT+iHfxU3bLVM0pWqdH/ne15tWfxI+KePryL1D/6T7Kg/4BW6eufc6d09nyWHM0EpQ9NRs1k4dSRPtK6LTxmFjMRkjPZlqd6oI08NH89LHTzQUZIxVThHR0dmzZ5D584P4+joSHZ2Fi1btuKTTz4rsK6TkxPf//AjzZv7Y29vz9EjR6hTty7vvjex0LK7du3GoEEvUq6cT4HH6z///CBeGjYcHx8fbty4wdWrV3j//cnUrl27aBW3IoqW957gP2jJynV079KxJIoWosRt3rZD4leUKImxB8ttP8r72DcEfdSx4E8NiNtIjIsHjcSsKAmbt+1gUP+eRV6/lNw5E0IIIYQQQogHmyRnQgghhBBCCGEF/jOzLoQQQoh7pas1jCVhw+53NYQQQpRycudMCCGEEEIIIayAJGdCCCGEEEIIYQUkORNCCCGEEEIIKyDJmRBCCCGEEEJYAUnOhBBCCCGEEMIKSHImhBBCCCGEEFZAkjMhhBBCCCGEsAKSnAkhhBBCCCGEFZDkTAghhBBCCCGsgCRnQgghhBBCCGEFJDkrCaYDTHuyBa1aNqdNr6+JMN3vCv2z1LPzGNS2Oa1a+tN58g4M97tC4q5K93emEb96JB1aNqdVyzaMCUhEu99VEsVU2r9DA6ET29O6ZXNatR3Eogvq/a6QKDGl/Lsu5f2b0qJ0n/Nh9arfadWyOa1aNidg7Zr7XZ1/nCRnQgghhBBCCGEFJDkTQgghhBBCCCtgc78r8CBSkyLZuGQJ63ce5uy1JLL1ZfCqVIdmfccyqW+9fDtVI+NsIN/NWMDmw1fIcKhEsydf5d2RnamQs6L5zBo+/2k9x85eJjYplfRssHMrR3W/Djz54jCeauKZk0UbCJ3YmXe3ZKLZNGD4NyPQb5hLQNgp4syu1Gj9DG+8O4QWnjosw4RG0evzPzFgR5u3ZvJk3BIWBYZzIVnBs25HBo4bTz+/Mii5dc3k4vZf+HllMPtPXCYxS0eZ8rVp1rk/Q4c8Tt0yCsIaaaSf3cqyJasI3X+CKwlZKE4eVKjZhB4jJzGwWZl8qxu49sdMZs4J4M/zSdiUa0y34e/y+uM1cQDQEtg7byq/7DzNhZh4UtMyMOqd8axUD/8uz/LSoM5UdbAUpZ6dx4sDf+KkScG5+xR+aHGMuUu3EnE1Fdv85RYrfnMYovnztwX8uimMqEuxZGhOeFdvzEO9hvJSnyZ4yOWlB0Q2l3ctZ8lvQew7dom4dBV79/JU9+vC0PEjae+dr20xx7F/8dfM/P0PTsVTsL0qqRg1HWDaUyNYGaOiq/gcn0+qxO65K9lxLJosp8o0z9d2A6gJEaxduJj1uyI4fz0Fk50nVRq0p8cLw3mmdXls/50dLP4tphscWL2I5Zt2c/RcDCkmO1zLVcG33SDefKs7VfK1SWpKJKs++5FlIZFcN7pQPX87lxXBsk/nsPXkea7Fp5CWbgBHdyrUasb/+gxlyGP1sJx6i3dOL17bbCk/9dQmliz8ne2HznAtyYCNW0XqtXyU54a/SKeqDghrcf/O+ZgO0L3HuyQkxFO2bDk+/fRzfvrpR44dO4aXlxdPPNmTl14ajk5nie+JE94lOHgLAD/9NJvVq39n794wbGxsaN2mLW+//Q6urm65VTWZTCxfvozNmzZx6dJFNE2jevUa9O79FH36Po2i/Df6oZKcFZMavZkPXvmALdeMeeZEJBJ9eh/x4Zd4L39ylrSNz0Yt53pKzrjzzPOELZnEB17LmDWgGjrAHHOI0F0RpNu64OnpjbchibjEKxzbuZzj4YdJmLOQ4b52t1fEfJal48eSZbbHTjViNMVxKnQm72kVWP7l43jdFr8mIma+yr5sFQcbE0aDmZjIjXwz3p6qKyfRxgnQ0omYM5I3FkSSriro7F3xcjWRdOUoIYsjCdt7hm9nvU5zl//GgfHg0EgM+4rR76zgTFaeWTrJ1zl3KJQ9Z8byfL6G2nDgW0YFXyfOnLP+lf2s+ng8LtWXMbKBLWipnN4Tyr4TGk7u3rh7O5IeH0fs2XA2nT1A+LlPWfzpo3jn64Rk7pjKqC0GFHsdBqOBzPzl5lWU+DWcYcVbI/j2z0RUdNi5eOJGCtdP7mTll3sJO/4FcyZ2xksSNOumZRA5fzRj5kaQmmf6jSH2Akd37iDq5VfyJWcmTv78OmOvX8eQE6IF26uSj1Etbi1TxmRjsrEHgwljdsG2W40OZNLLU9gWY0JTbHH29MAxPY5z+9bw4/6dRExcwBc9K6Mvif0q/n2Gc/z29gi+DotHzW1uDSRcOU5Y6CGuv5EvOVOvsPq9Udy4kZHTX8gu0M5phouEh4QRZXLA1csDL8dMEmPjuRgRzJKjezmetpjp/avlG+ZUhHN6HnePe43EXV/wyru/cz5bQ7Fxwt2jDNkJFzm0eTYRe/YzeuZ0BtW1L6k9K4rMes75SUmJjBo1Ap1Oh8FgIDo6mrlzZuPtXZannupToOZvvfUGBoNl9pvZbCZo8ybQND7+5DPAkpi9/vpo9oeHA+Di4gKKwsmTJ5g69XOioqKY/MGUf2Y3Wjnp1hSHlsKOn6YRfM2Ipuip0GkcMwN2smvnNlYv+Jzh7SsUOAmrmXHo/N9i5opVzHn7YcrpAC2TqNDdxOR0VGyq9WDC7LUE/7GdwPUbWBe0nYBpfaiiBy3rFKtW7y84mVMzYtPwdRZt2UXohi95vJwOUEnZu5V9aflXVsl2bs/E37YTGrKW8e1dLR2L2O1si7CUrJ5dxrRFUaSrOjwfGs/SLSFs3LyN36Z0paxOI/P0Mr777RylbGrzg89wmJ+nrrQ00jpPWg7/nt+27WXnto0snjaGrtUduD2d1jDGZ1Nz2Pcs+20JH/asjh7QTBcIDT2NGUBxx3/o1ywJ3EXolk0ErNtMcPByXm3hjIJK/I4VbInJHwkamrEsj321npAdofzySmPslHzl3rb63eJXJWbDN8z8MxEVZ5q+vICNwVsI3LKRb/pUR68ZubzhGxZFlLZpzqWPeu5Xvvz5CKkq6Jz9ePbzFQTt3Eto4Eq+f7s39QvckVdJTC3L058vZeXSbxjga2+5E5Cnvfo3YlQzalR/fg4bt+9k86wB1NBze9utJbP9p28IiTGBXR2e/X4DwZuDCNq4gMEN7ECNY+f0WexMLV2PNvnvUrm+8WtmhMWjagp2NZ5k0s+b2b57F5t+m8P7A5rjmb9HpaaQ6PwIkxas4tfpI2nhWvA8rdg3oP+niwkI3UVw4EYCNoSwdfUHdPbSgZrKod/Wc7JAA3r3c/otRYh7w0EWfLWK89kauoo9+Pj3bQQFbmXT0jdp7aJDTTnI/OkbuSEdgPvPas75YDQaefrp/vyxcw8zZ83J/fuWoM2FVr1u3XoEbw1lY+BmPD29ANi6NRhVtZS9LmBtbmL20rDhBG8NJTg4hJ49ewGwYcM6IiIO/80d+GCQO2fFYTzCrrAkVEBxfIgRE5/D310BnKnc6FFebFTwLYpdSwa/8yz+3gpU7kmLWaEEpmqY42+QoEJFHeiq+NMsbQeb5q/kbHQCqZlGVGM0losiKqmXLpGgtqN83oZf58nDLzxLPWcFnFvRqp4NgTcMaKZ44pJUuO0Ol55qTwzh8Sr2KFSgVYvq6HcfQVXTiIvPRMOGq3t3c86oAQra1a18My7E8lZTrCUx1Iyc3X+A+MG18CqRnSvuhfnUH+yJUQEF20ZDmDDsISrpACpQv+MA6uesl7d7aFN3AG8O7UBNHVTv1YE5Gy5wVVWJj4vHDOgVN3z9qxG+7VdmHL9IbHIGBrOZ5FgsnWTzZS5dNluCN2+5jfoxpIMPNgrUaN2M8nOOcMmcp9y8K98tfsukcmDXITI1QKcjIewnJhzM2Zak1JyKxLA//CLmZrVLYM+Kf4bKtbCdnDVogJ6q/d7l9UfqWE48DrVp2/fmd5c3QnVUePINRnXxxY56PNWlDiuPR2LKba/sUP6FGFUc2zJgUDPcdQo0akPDMr9yPlm91XarR2+dD/TpHFnyPmOWWLYlLcHS/qrJ+9l3wkSnliWyc8W/SUvlwM6bbZIX3d94l54NHQFwqt6CHtULeY/Olc4j3+bJRs6g9aN7w/ns35P3PK0D+9r41z9M6NqZLD0fQ1JaNiY1g8s5T0FUoy9w2QC+jnkLvts5/faRNneLe07tIuy65TyiN55h7adjCAAgK+ciskZmxJ8cze5DFxmne19Z0zlfp9PxyshR6HQ6/P1b4OjoSGZmJjEx0YXWffCQoZQpUwYog2+DBuzetROz2UxsbCw+Pj7s3PlH7rr7w8M5EhEBQGJiQu7f9/35J02aNP2be9H6SXJWDFpWIomZlgxf8apG1SLMwVI8alDdPWc9xR4HewVSNTCbc67UZnNi8WhenXGQlDtcldIM2QXvnOnKUsHn5tdni21ug6miFrjKpqdcxXK5t0lt7W413KpZBVSSE5Jy6qOSeG4/4ecKqUdKMikgyZkVMSclkpQTNw5VqlL2rvfCFeyq1aRyznqKgyMOOeFpiQVQ40L4ZPgENl4xFP44c81IljH/EgVbnwq3hhja2uV2D26We5u7xa+WQmKS2fL5aiqXjuzjUsGKkJaSUsoeuV7aqCTlti16KlWrUoQhfjZUqVktd66Wg+OtK8H/ZowqbhXwcbr5yXliNKft1rISSco5H2iZ1zgWfq2QeqSQnCYRWipoKSQkmSzxpqtAtSpFGOKnq0CNajlZleKAY+60rZvnaY3U/T8w8q3FnMooPE40zYDBqEG+5Oyvz+l53T3ub51HNIyxJ9kfW0g9TCkkp2vgftetFiXIes754O7ugZPTrTG0trZ2ZGZmYjAYC61JpUqVc1/b3Trp5w51TEi4lYTd6Q5ZcnJSoX8vbSQ5KwbFwQMPRx0YVLT4C1xK1WjocZcETafLM3ZUR4G5jIZ9rFh8mBQVdB4dGPP9FPrW88Q2JYCxPT5kzx1HbenQ5ZalFCw3/9rKrVoUnFCpw83THR2XUBU72kzYyPe9vbhTkTKywXro3T1w10GKGbIuXeSG+lBuI3wnii7PCoqS73tWubppEZuvGNAUG2r1m8a00e2p6KRx5LunGLH06h2/f0W5vdy/dpf4VVzxcNejYEKz8WXksiUMqXGnDZPOr/XS4e7pjp5LqJi5euESZhre9cSj0/1Ve/Uvxehtx0bBGFUc3HHPOR/oKg5g1u/jaHrHuwoy/PaBp7ji6W5jaZPUaC5ezoYqjnd5kx59bsgV0s5pyexYuoLTGRroKvLo5O9559GauOgusWhIP2Ycu/OPiP31OT1f1e8S93p3D9wUSNF0uHb/inUfd8apwFo55HfN7itrOufr9bdfartbk5p3/cJi1tPTM/f1ipW/U6NGzb8usBSTOWfFYduYDm3dsUwb28WsT38h/EoKWRkJXIkKYdnGSAq/XvAXDKmkZlo6l4q3Hy3qemKnM3EtZBuR/1ojqKNi63bUtFVAM3Jg6QxCrmTldHmNpFzcR8AP4/h8ww1JzKyMvu5DtCtveTqnMfJnPp3zB+cTM8lMvsbJ3b8REJ5czNRFIzUlNec9DlRv1pxKTnpIjSBkT8y/lwYpLjRv1xRHBTCdZPWstZxJz4k+czrXDgcy9/1JLD8rEWnddFRs+xC17BTAzMXfvuC7oBPEZWSSev0M4Rt+Y1d0cb9DK4lR28a0b+1mmesTE8jcpUdIyhm1oGZe51jIIj55ezaHpTNbOigu+D/UzNImqfFs/vYz1h6NIS0rjbiLhwlaHszZAqNW7kJLJyU1Z4SAvhJNWtXAxUYh68xW/jhX3MLunb5Oe9r6WObDpf6xgPl7b+T0ZTQMCWfYvWIqY78tfT9k/CAqted8oEOHh3Jf//DD96SmpACWh4ccPnyYCe+N5/z5QoZ1lUJy56w4FFc6jhpH1yOWpzXG7PiW0Tu+zV1s12UqfXs0LF6ZTk1p18yJnX+mYz6zkLeGH6ee41UiIqOLn+j9DfraAxg3cCdvLIwi48JaJvTdhIuXGzaZSSSlG1A1W/zfeftfrJEoErtmDBnfn/B3VnA2K5ED89/gmfk3F9ri/87/eLKl21+VkI+emm3aUH7JRa6a0wn9fAivBVUk/cRBziXroeCjPUqIjgo93+TlkBH8sD+J6yGfMnDX93i62ZGdkkhatoqmr82wFyzzJIX10tV8jneG7LI8rTHjGCsnDWDlzYX62gxb0ocOxfoOrSRGFTc6jRpL54iPCLmeRPiMITy+0BMPRxNpiSlkmjV0ZfvRXW7slhI6fHq8yejQV/h6bzyGCxv5bOhGPru5tGw/pvftSrEezakrT8s2tbA7cgKD8QDTR4zgz5pw7sBx4ktiE+7E3p8hb/dm37truJARxZLXe7DK3Qtn0klKysCoadh1aS5jFKxBqT3nQ89evQkO3sLBgwfYvWsnXbs+jKenJykpKblDH18aNvxfq8/9JHfOiklXoTsfLprPxEFdaVrdmzJ2Ntg6uVO+Tku6tCjKfIr8BVak95RpvPJIfco6qsSfieIi/oz++jVa/Jups1KGpqNms3DqSJ5oXRefMgoZickY7ctSvVFHnho+npc6eEjAWB0Fj7ZvM+/nzxn2eEtql3PF3sYWB1cfajTrRLvazsVOXRz8X+Pr9/vRooorNhmXOXYygfK9PmVyn4r/7vdvV4cB3y3l+zFP0963Iq76LJKSs7HxrEqDdj0ZPPY1ulWSiLR6ihMNh81i4dev07ttfSq4OWJrY4+LdzUaduhIA/fiJ9fWEqP6Sk/wyaI5jB/wMI2qemJnTCY5Q8G1Yj1adh/Ea2/2oa5cAi097GrR75ulzBj3LB0bVsHDyQ4bO2c8KvnSplNTfIrdAdBT58Wv+PSFh6jpaYfh+gmOXXOm03tTefFfDRwFr4cmMH/BRwx+1J8a3o6YUhNJU53wqd2MLv1H8+7zzeQ3+6xC6T3n29ra8uP0nxgzZiz1fX2xt7cnJSUFT09P2rZtx1tvvU3FipX+xRrdP4qmaSVyMWTJynV079KxJIoWosRt3rZD4leUKIkxUdpJjIsHjcSsKAmbt+1gUP+eRV5fLjsLIYQQQgghhBWQ5EwIIYQQQgghrIAkZ0IIIYQQQghhBSQ5E0IIIYQQQggrIMmZEEIIIYQQQlgBSc6EEEIIIYQQwgpIciaEEEIIIYQQVkCSMyGEEEIIIYSwApKcCSGEEEIIIYQVUDRN00qi4CUr15VEsUIIIYQQQgjxwBjUv2eR17UpwXrQv/djJVm8ECVm5dpNEr+iREmMidJOYlw8aCRmRUlYuXZTsdaXYY1CCCGEEEIIYQUkORNCCCGEEEIIKyDJmRBCCCGEEEJYAUnOhBBCCCGEEMIKSHImhBBCCCGEEFZAkjMhhBBCCCGEsAKSnAkhhBBCCCGEFZDkTAghhBBCCCGsgCRnQgghhBBCCGEFrCI5Uy8v4vnGvvg2G85vsdqtBeZjfP+EH42H/MoNLe87jIR92JEGvo0ZvOw66m2L/uSjTn60GLORE4sG0sTvUb48bLzDB1/ll0FN8Ov+FRG5q2gkrn+Vlr6+NHx6DmfNBd9mPvEjPf0aM3RFHFrBxYBKzNIXadSwDzNP3ywgi01jmlC/fn3q16+Pr68fDZu2ouNjzzBiwg+sPniDO9RSWB0Dez54CL+WbxKUfvuStMAxtPD1peXYzaTdvoTNY1vg1/FDwlJ3MbmjH81fWU184QFE1p4pdPbz55U18bkxdsfj5CbjXj78nx/N3grGcKeqF7KOJZ7r58SmLw38muDf/hF6v/AGn/68jbNpd6ikKGG3txn16/vi69eEVp2f4uVPVhKZogEql++pncti1+T/0aC+H92+OFBIvBTWhhVlHWnnxL0pWvvW4FZsNfCjaavO9B4+haWHEiz9gKx7a1sxR/F/9u48Lqqyffz458wMiwq4oKi477IIzAygoiKouCHkbtqqaVlWmmVPPS2W1fOtLG21zTJzybBFZxBEzS13h800l8x931AQRGBmfn8AsgtjENjver9e/MGce845DNe5znXf5z5n5g7xorNnEM//er3kmyS3CuBWziuUkz276OgxYCzPfLSWY5m5be4sJ1dG7VlaG8nJd6Ma0DkzczTGSHK2FWvmLgxxZwo6W+r2+OvqY94TNyQiAAAgAElEQVRnIvlG4bccIT7xMvaOav6IT6bIomPxJF5S4eGvo/3ACPR2p1htTORmaVs+sRpjUg7twofgbZf3ovUia1du5brVSs5+I6sOlVWY3BlVg1Cmf/I5n332MXP/9yKTwj0gaRGv3D+E+2Zv44rk6ruAHd4BfjhkJGH6I6fQ69nsi99DloMDWUkm9hfOeNn72Z10A0cff7ycA4no35SbO6JZc95SfOVABjuMa7lQpyeRfRqgALc9TiqFBo/73uGzzz/j0w/fYebUsfRwO0vc3CcZds/TRB0u7QgS/4T8nPH5558x74O3mDqkMUeXv8aE537kjEVFszvJc2lbMKy7hAUzp+OMmDKrZp8lz4mKqXh+cwh4jI8//5zPPv2AN57sh8vB5bw58WkW/mUGxzvJrZCVZCTmqBksKWxcuYmrlRqfklv/ddQtiXx1Hp9//hkfz36RcV5pbPp8GhPe2kSq9Q5zstSeopDq75yZDxJt3A/tetHTPYckYywnbsWkHd7+vtinJ2PaX1AEW68kkXC8OZEjArEkmShYZCUl0cQRayv0ejc0bmHc06MW59dGs7tE8WHmSEw0+/BkSHhH1HmvWk7HYdydRZMewXRSHWGV8fdKHVVQHJqhDQkhJKQPYYOHcf+Tr/HFyl+YHVmPPxbMYFbM5TJHRERNoeDkp8dDdYGEhOPcClfzMeITU/AYMQKPlATijxckV/PxeBIvqvAI8MMJe7SRg2mVbSJ69ekSRYg19TeMG65SL/QeguvmlQ+3PU4qg4r6HXsQEhJCaL+BRI5+hBnvLSN60VP4pv3KmzO+5A8ZXqsWBTkjhNCwIdz37Ie8MaIx6TvXsC3FisrmPGfl6qaVbLzmRGCwFvsLazFsTy+x3crZZ8lzogIqnN8UVG7e9A4JISQ0jIgHX+KzN4bhdiOJlav/wnwnuZVMTIbVnLHzJbhbPdK3GFlf1mW3OyK59V9HcaJNQG9CQkLoO3AUU2bP4ylfFWdjV7I9gzvIyVJ7iqKqvXOWvcdIzFEVXsP+w9SINlj2Gok+nJ+VFZz9/OmsOkdC/MlbRfCNpN3sc/Sj96iutL+cQMLxgik1Sbv3kVNPi387NSj1CY3sjfPldRi3FpuqYN5P9KpDqP0iGNw6//AwcyzGSFJOC8Kf/C8j/TScijUQX9UDW3bNGfTfGQysl8L6pUZOVe4lEVEFVE116Jpb+cuUeGuU1ZqSSPzRxugHDUbf+CjxiVfzkp2Vq4km/rK2RK9rggrQeA4hvKOF5FWxHCtShFhJ2Whkc1oj+t0ThFPeq7c/TqqKgovvY8yc4IH1YBTf76zkyyviDmlwdq4DVkDB9jxnvcQ6w1bS6/djwsz76FknhQ2GzaRW9ZlZ8pwow9/Jb7U9vGirsXDl4mUs2J5bub6Nlesu4tj9Xl6d2J9GN3dgWHOukmcmFCe59V9F7Y6npyuqm5e4lGqR2lP8bdXcOcsdsTql0RI5qC2eQyLorBxmVfQ+8i+GqZrp0Llb+TMhMa94yOFAfDJZ3nr82mrRuh3BlHQttwjOOUB88nXsff3xtgdQcOkVQZ/619hg3My1QsVHVlI0scfsCYgYiHv+p2D+k1XR+7C0C2eIT0sGRARgf2ENhu0ZVf5JKC7dCNU7kr0/kb2Sp2s+dUf02rpk7zXxe14CzUw2sc/BF72XF3o/R/bG78mb0nCTPfF7yannh75DXjJWt2NIhDeqP6JZVfieHuslfjVuJcN9ABH+jnkvln+cVOEfSpvgYFopV0hOPEZVdwdFaXLIzMggIyOD9NSLHN7yNR/9chTnoIH0qKdga56znF2DYddN3MIi6Obem8je9bi+2cD6f2Bei+Q5UdLfy2+WC2e5YFbj3rJZbkFjU261cm3zSjak1KFnRB+aBUYwwD2bBEMsJ6s82Ulu/dewpnP+XCpW5+Y0q69Cak/xd1Vv5yxjB4Y1F7APjKB/UxXqtoOJ8FVzIsZAYv4dtepOBGhdyN5jYs9NwHyKhISLtNFrqWfXGZ2PHXtNuUWw+XQCCWdUdPLX4pI/Y6F2dyIHuJG+JZoNt4qPTOKj4zhdO4jIfo1ufQjZvxuI/kvBc0g4HdQqGvWLpEftK6w3bqn6UWVq0cS9Aarsy1xMkeGLms8BX38f7FKTMB00AzkcNCWT6emPj6MDPnpPMhNNHMwBcg6yOzENuy4B+Njnv19Ni0GR6Oz+ImZVQRFiObsG464sWg+KwC+/bUWOkyqkauxOE7WVy3kj0+KfZT67jEmBOnQ6HfrAXgyZ9CG/N5/I3P8bTtP85FXhPGfOjZvsZgyM8MdRcaZnZF9cM7djWHv+H/j/Sp4TxdiY36w5N8nIyCAjPZULB9fx4dtRnG45gslDW+RNEbMht1qv8KthC+n1Q4kMroti70fEoNaY9xpZdaTqu0uSW+9WFrIzcwfMrqecxLRsFp9ucSBw8nh65Pf7pfYUf0M1ds6spG5ayfqU2vSM7EdDBVDlFgx259Zg2Jn/mA8HugR0we5aEvF/mrGmJWE6XB+trhVqHPHVe5KRFM8hs5W0RBOHrO7odO6F/jAH9BGDaH5jG8ZfL+QmwLyTgXPwPYTUz+/F3STBGMspjR9DBrdGDSj1Q4gMdiF1s4GNKVU/qmy1yozfu4eCi1ZPR+U0CYlnsJjPkJBwntZ6PxooCvX9dLQ+n0DCGQuWMwkknlHoFKDFWSlYg6rJACK7OXAiNjqvCDFzMtZAorkj4REeaICKHydVySpz0auRynUAr3y3hCVLlrBk0Td8+sYkfC5+y9TJ80i+NbBawTxnPkx09F4sbQYxxDf3TvRaXSPp3yQbk3E1p/+Bc7PkOVHA1vxmJTPuObrpdOj0gQTf8xTzj3gx4+OXCWlQkFwrllvBci4Ow45MGvaNoIcTgAaPiHA6cYhVxv3/wMwEya13pZwDzBsVgE6nw797GPfP+hXNyHf54IEO2N1qJLWnuHPV1zmzXmG9YTNpTt3oo1eTlppKaup1anfri97+Er8atpAGgEI9P3/aKydJSDxH5h4Tv6t90HvYAQquflpank0g4exN9sbvIcvZD//OmiKbsusSwZB22ZiMazhrsZK6xciGq/XpE9Gz4ApbxnZWxp1H49OXHs7XSU1NJTUNfPr0oF76VgzrLlbxyNYNzp9NwWLXELf61X4roKgAdQsduiYWDsQnk5aWiOmwC3663OSqbqPDt+4hTElppCaZOGBpik7X7NbNvwAoDegb0Ys6Z9cQbcoE8xFWrdqH4h1BeNv8+4MqepxUHcv5M5w3KzR0c63uedD/X1LsG9FRp0ev16MPCKLvyGl88NYoXPZ+xYfGgqtdFclzOXuNrPoT2oT2pll6am6ey2xHaIg75uR/4mqB5DlRiM35TcGh+zMsXLKEJYvm8/5zg2mTsZ3Zz39KcuEpWRXJrXkdtoTsRgSHepCVmns8pDcKpk8nhWOxRpKqeGaC5Na7lLo1o95ZxJIli/l23izGB9Th2Pcv8mp00XsVpfYUd0pTfpOqYTm/FsP2DCyZa3mxz9oSy5VNBjZd7ceQegrqVjp0jS38tNtE4qVE0juNwbdObjt1Oz1+Tt8Rb0ogJfEqGm9/fB2KrUzdkfAhnnz5cTSxxwbT2LCZNLcIIrvXzmtgJfU3I+uvWLh56R2GdH2n+N6w2xjHmZEP0LyKYteauoMN8ZnYeenwdiy/vagBNB7o/eqwaOduEuIt7FF8ecErb9xM44W/j8I7pgQSSCbLKajEoAEo1O19D6H11rHOsJ1nXZKIOahB999BtMirH2w5TqqGmSObNnPM6spwbeuinUtRbRxat6OFOpujf57AQuO8e23Ky3O5I7QnzGbMX42j21fF16omOvogk6Z5Vtn/WfKcKOxO8puqQVu0ej32AAHd8XG6yohZC5i9bCgLH26VF7vl51bMR1hl3EuWOYflj/dgefGNq+Mwmp7BP6iqAlVy611LqY27py7vHnJ/unVtRc6ICSydM4+tobPolf+0Gak9xR2qps6ZhVOxBkzZbgx+9W3ubV80LeXsX8SMd7diWHeZ8JENUTSeBPjVYcmuGBZfOE3TQC1N8gPVzgtdFwvvxS7mwnGF9hFaStapaloPjsTv03cwLvwc160ZNB8biT6/E2dNYYNhE6lOPZn+/qP4FencWTi1YiavGI3EHBvHo22rIIVmn2b1/2az+mp9+o8Lp5kMXtwlauEX4I0m1sQPyy1c7zAaX6e84FOc8NF1IG35D0SRkjtoUFricwrinn6NiF79E58oBznq0I0JA5rkjaLaeJxU+t9nJTX5S2YtOIC68xOMDZTMXVPcOLSfY2YFV7cGhf7v5eS5GzsxxJ1D4zuRD6cHF4zcAlhT+PWd51gca2TPFE+0dlQ+yXOiiMrIb2pajJzBQ1GjmLfwa7aPmkXPvIHb2+dWyPnDSPQhK+3GvMsr4U2KXrnK2MWn0z9j3cptzAjqU/Bkx0ojufVfpU4gT0wbSMyzBr74cSJBD7e8df+j1J7iTlRP58x8hBjjHswtHuKhUd3xLV4I+CoM+m49PxrjODv8PtxVtfD190Ids5mNV+oR+XiHglEmxRk/fQeuvr+Ry6rG3KdrVeoIlKrZACIC5jAzagmo2vH4kC635gZbLqzDsO0GDQbez329AqlT7L36+vew2PAp0av+5JGnOue/i8v7NhAX51L0pKFyxTNYR1m1jfXmaRI3biRdYyX7xjUuHE3mt+hofjum4DXhA14e6FoFRbaoGgoNtHraKp+waZOKluN1BQ9oQIW71o/G733LJosajwgd9Uv9xzriHzkA9x+/Y/EKBaewafRxzb8/yMbjBAAr5rOJrI2zFD24FTVNfPvg26Csv8VCyqGtbNxYF8WcxfXLpziwew3GNcmkNOzHy+9OwqMqCnZRroKcAViyuHp8Fz8v+InzLr2YEt6mSL67XZ5L22Lg18uOdJ8+nr5di+cZCy1HB/DDG6sxmKai7Z73xARrKoe3riHuSNGztsq5Pd27t6nAPkueE2W4o/xWCk0n7n9iEMumGvnyl0kE3d8ir6N1m9xKFonGGI6rvZk+PpxurYtVDdbOpIQuZvqGlWy+Fsrg2iC5VZRNoX7Y4zzouY6PFi1g5+iZBOVdHPtna0//Mo8Tycl3l2rpnJkPGIk+CJ2mDC34dvTCHLQMi2jD918biD1xL4+0VuOq1dNGtZ1Ddt74dyk8vKCmudaPJqpkTtfWEuBZRpZTGhF2Tw9mb/2VGx4RhHe69dV/nFltwJTVlNHDu5c4OADU7SK4x+8L3l1lZO/kzngDkMPBqFeYFlWssX13Xls3n5Ay/nbLlQ3MeXIDKApqe2dcm7ams+5+3nhzLBE6tzI7daJmUrfRo22osP+CE37+nYocUJpOenzqfMvx9EZo9aUPGgDY+0UyuM1ivjhSl5DI3reu/Np8nDTLfTkr4RueTSjWVnFk0Ie7mBta1l+Sw/4l/+HxJQqKSkOtuo1o3r4L/ad9wphRfWjvJGm7utzKGYCi0uBYz52OAY8w+6nHGFx8qLOsPGdNYaNhE6kuIQzv26CUk7CKxgOG0WvOC6wx7GBG9+Dcl82nWPX2M6wq1lrj8RQ///g4LuXts+Q5UYY7zW8lKdQNnczDXdYwZ+G37B75Cl3zLkSVlVvJ3IUx7ix2/pMIb1lKZlZcCB7Wn4arV2FYf4VBQ3JfltwqyqRux9gp4Xw/ZSXzV06i29i8B9P9o7XnN4wqY/ckJ99dFGsVPaZlUZSB0UMHVcWqhahyUStiJX5FlZIYE/92EuPibiMxK6pC1IpYHhgdWeH2MsNUCCGEEEIIIWoA6ZwJIYQQQgghRA0gnTMhhBBCCCGEqAGkcyaEEEIIIYQQNYB0zoQQQgghhBCiBpDOmRBCCCGEEELUANI5E0IIIYQQQogaQDpnQgghhBBCCFEDSOdMCCGEEEIIIWoAxWq1WqtixYuiDFWxWiGEEEIIIYS4azwwOrLCbTVVuB+MHjqoKlcvRJWJWhEr8SuqlMSY+LeTGBd3G4lZURWiVsTa1F6mNQohhBBCCCFEDSCdMyGEEEIIIYSoAaRzJoQQQgghhBA1gHTOhBBCCCGEEKIGkM6ZEEIIIYQQQtQA0jkTQgghhBBCiBpAOmdCCCGEEEIIUQNI50wIIYQQQgghagDpnAkhhBBCCCFEDVAjOmeWkwu5z8cDD+0kll+0Fiww/8GHQ7zwGf89F6yF35HN9td74+nhw8NLz2Mpsmgns0K88J8aQxpgPvAxkV6d6dy5M507e+Dh5UtA8BAefOErtp7LKboj2Tt4Pdgzr23xny7cu+BE0W3dbt9LXacHHp7e+AX0YsCICcyYvZRtpzLzVnSWX54IwqvXs8ReKrmejPh3GeLjx+jP95NV4U9WVI0sts3shVfAdOLSiy65HjMVfw8PAp5ZzfWiS1j9jD9evV9nezZAJrFTfQviy8MTb79u9B35BO+s2E9akRAo1rbYj+/jK0gtvovmfcwd4kVnzyCe//V68aUl1unh4YW3XyC9B43hsf9+xM8JF8gGIIfD39yH3nsAb2xPo3hkWlPW82KoF4ETf+Ck2dbPUdxe8f97bv4KDB3Go29GsTfVWnbbyo4nMtnyajCenb3o/3Z8KTlI4kn8PbadSzvj4emFX2AoQye9xpLEK8XqABvaSn4VFWbh3JKH6FIoJ3t20dFjwFie+WgtxzKLtral/izattiP10De21MyACqr/rRe3chLfbwInLCUEyU2k8Ph+WPRdRnE/3all9iEqBqa6t4BMHM0xkhythVr9i4McWcYcX+z3F6juj3+uvp8udpE8o2xhNXOf8sR4hMvY+9oxx/xydwY1586+YuOxZN4SYWHv5Y6kJfsNHjc9xZP96qLkpPO2T1GFiycw+N/pLEoajq+jkX3yF43gf97yLfYh6OiXudGxXqzt9n3YhwCHuO9R7TYWbO5ce0iJ/ZtJ/bn/zFx6VKG/9+XvD7QnXtefpa44a/y9tv9CZw9AFcl782ZyXwxazGnOj7G0vEe2N/5hy0qhR3eAX44/JiE6Y8cBgTkR0o2++L3kOXggJJkYn/2QALs8hftZ3fSDRx9/PGyK1iTqkEo02aNoaPGQtbVI/y2dD4L//sIJ/mFj4Y2LhJLqvrBTHllBO3VRfdG5eZD7aIvkZVkJOaoGSwpbFy5iat9wqmnUELh7WdnXOP8kWR+i1nEKysWs2z8B3z+XBDtH3iNyWvH8NGsjxmw/L8EOuW92XqNzXPewpjelf++OpIW6pLrF39fwf8IrNnXObMnmm+/e40JJxRWfD4Kd1VpbSs3nkjbgmHdJSxYOB1nxDRNT5Bj8UYST+JO3dm5NO3kLpbPX8qbEw+TFbWQ8e3Ud9xW8quoMHVLIl96gcHuKsyZFzmwZiFffz6N5IvzWDGrNy5FYsGW+lNDp9EzebyHC0VWoapDm9bFj4bKrD9789zLkWx76gNmLe/FF/e2ID/ccv5axOuf7cVtzFc8HVCnlLWLqlD9nTPzQaKN+6FdL3re2MZOYywnxk6ktRrADm9/X+x/Ssa0P4cwfe7uWq8kkXC8OZEjWhGzwcT+nP74awCspCSaOGJtxXi9GyogdxBARf2OPQgJaZgb8P3C8GI4Y782YEh+Gt+uhT8GBXVTLWEDwsrvBN123wtTULl50zskpGCdQ8cx8bGtvDNxCotffhEPz2+4r+UwXnl2DSNe+z/eHRjA2/0aoJDJ71++zrfH2zNp8UQ8He78oxaVRcHJT4+HagMJCccxB7TLTWTmY8QnpuAxYgTKTwnEHzcTkHemNx+PJ/GiCo8AP5wKr8mhGdqQEHL7d30I69WQywNfZPPK9VyMHEvjQplWcWxJYP8BBJR71GZiMqzmjJ0vwQEn2LrFyPrLgxnesGT1UHT7AMO4/7GJxLwygecXzGCWp4G54R14+LXJrLv3Y17/JIyoFwKog5XUbR/w1i+pBLw4kzEtpXKoKiX+R2FhtEsfyCM/rWFbykhGuipltK2seLJyddNKNl5zIjC4Hb9vXYth+wyCQkueqCWexB2543NpGH1a3WDw4ytYufovHpzSEfUdtZX8KmygONEmoDchHXL/L33DulL7bDjvxq5k+wu9GVAkNdpSf6pw9QplwICGlNLXL6qy68/QGbw0ZDtT577Jz70+Y1QzFZiPseyNeSQ2HMWXU7viVO5OicpS7dMas/cYiTmqwmvYf5ga0QbLXiPRh/Ovqyo4+/nTWXWOhPiT5L96I2k3+xz96D2qK+0vJ5BwPH9JJkm795FTT4t/u9slM3s6eXXAzpLCxcs5t2n3d/a9fOqGPXj2pdE0v2Fi6Y/7MaOi2fCXeSboBtFvzWZDipWsP77m9W/+ou3415noLT2zmkLVVIeuuZW/TIlczZtNYE1JJP5oY/SDBqNvfJT4xKt5V26tXE008Ze1JXpdk9sedEo9T7yaqTFfvsSVUmYpVMj1baxcdxHH7vfy6sT+NLq5A8OacyWm5JbJrjmD/juDgfVSWL/UyCkL2HV6mNce8+D00tf5ND4D6/WdfPTGclL0T/Pqva2Q0uGfpMHZuU7utIByTpaVEk/WS6wzbCW9fj8mzLyPnnVS2GDYTGpF1yfxJMrxd86ltT28aKuxcOXi5XJznC1tyyT5VRSndsfT0xXVzUtcSi0vEmpo/ak0oO/z/2Ww4xbmvPELZyxmTkS9wUem+ox8dRrdnaVn9k+q5s5Z7gjUKY2WyEFt8RwSQWflMKui95EfsqpmOnTuVv5MSMwrBnI4EJ9Mlrcev7ZatG5HMCVdyy2Ccw4Qn3wde19/vG972cvCxbMXMKua0rKZXYml1qwM0lJTSS38k5bOzSJxX/6+V4SDXwjdG1g5kZzMRQugbsHIV6bRNd3Am29/xdzX5vNnq4d47bEulDKLSFQXdUf02rpk7zXx+83clzKTTexz8EXv5YXez5G98XvIXXSTPfF7yannh75DOafZ7POcu2zFwb1FkascAFizSC8el6lpZGQXPhlYubZ5JRtS6tAzog/NAiMY4J5NgiHWpnsWFJduhOodyd6fyN5MAHs8xr/GpI6nWPza+8yfPYsfLmmZMnMsbaRyqGI5ZGZkkJGRQXrqRQ5v+ZqPfjmKc9BAepQ2l6qwvx1PYDm7BsOum7iFRdDNvTeRvetxfbOB9Tb09iSeRNn+3rnUcuEsF8xq3FuWPqWrwm0lv4o7ZU3n/LlUrM7NaVa/3Ci8Tf1pJSczrUT9mXY9k6LhVTX1p+Iaxn9eHIjdb+8za96nzPpgJy7DX2Z6kEv5V/JEparezlnGDgxrLmAfGEH/pirUbQcT4avmRIyBxPw7ztWdCNC6kL3HxJ6bgPkUCQkXaaPXUs+uMzofO/aacotg8+kEEs6o6OSvLTbn14o5K7e4yUi7zNGtX/Pmgt9x7fcE47oUz3xWMtf+hx6BgQQW/uk2go/3FTo8KrLvFaFqTLPGKiyXL3A5r9ZRtxzNzKmBXDfO4dsDLXjw9cdL3BcnqpsDvv4+2KUmYTpoBnI4aEom09MfH0cHfPSeZCaaOJgD5Bxkd2Iadl0C8CkxaJBfeKdz7ezvGN6ew6obHjz0aH8aFMuG5nNRTA4qFpeBQUxYfKpg1NZ6hV8NW0ivH0pkcF0Uez8iBrXGvNfIqiO23FFeiybuDVBlX+ZiSt7aHTyZ+NpE2p9cyvtR5/GdMpP721b/zOh/O/PZZUwK1KHT6dAH9mLIpA/5vflE5v7fcJqWyOCVHE+Yc3NadjMGRvjjqDjTM7IvrpnbMaw9b8PVB4knUQYbz6XWnJu55/L0VC4cXMeHb0dxuuUIJg9tUeIKky1tJb+KirOQnZlbU15POYlp2Sw+3eJA4OTx9ChRq9lSf2az6/8GFYvBQLr2m8WW7ELNqqz+VGjY/wVe6K9m8yefsd1pKC8/26tYPS3+CdV45FtJ3bSS9Sm16RnZj4YKoOQWAB+8sQbDzmcJ6FULcKBLQBfsjEnE/2kmuEUSpsP10T7XCjUafPWeZHwXzyFzb1ommjhkdWeszr1YrzObnW/1R/9W/u8qnHye4Ou3I4vcTJ/PodvTfPaEf9EPR3Gkabv8xhXd9wp+EiUGoNW0GjWJQZ/v5Bev8Uz0rfi6xD9FwUWrp6OylYTEM1i8rSQknKd1sB8NFAX8dLQ+v4WEMxa6kEDiGYVOo7UUnxmQW3gvK1irpimD3lnKU7oSj2RA5RrGC7MfoHPRwMS5ZcGDHizn4jDsyKRhZAQ9nAA0eESE0+mbT1ll3M+j070rfNBbSwYmDt4TeKTXfGbsDmPi2PY14KbVfz+V6wBemvsgndWA5SZXj+9i+RcLmDrZnq8WTMG3UKhUdjxhPkx09F4sbSYyxDd3lLdW10j6N/mZKONqTo9+mBYVHOKTeBIl2XoutZIZ9xzd4vJ/V1A1COKl714mpPjog01tJb8KG+QcYN6oAObl/6440m7cx3zwQAdKzsWypf7U4DV+Ls+H1i1ypUrRNKLjrWCo4vpT1YgBk0Yyb81X1Bk3iV51pWdWHarv2LdeYb1hM2lOQfTRq0lLzX1Ybe1ufdHb7+BXwxae7xWGMwr1/Pxpr2wnIfEcmSkmflf7EOmRewi4+mlp+c5OEs7eJDV+D1nOPfHvXPzP0tDlkY/4T5+6WG9e4eDqL/jwx895/m1fol7rRdHYU1C5dsA/MLDsB4JUeN8rwHye0+ctqNo1psj9xCo77DQKisYOOzk2aiR1Cx26Jhai4pNJG2rGdNgFv2mtc0dk2+jwrfsNpqQ0hmHigKUp9+qalRitvVV4q3K4fmoX33/0BatfewE/j695sNioqWLfGI/AwNvcsG7mZKyBhOxG3BPqQVZqau4jzxsF06fTPD6LNZL0pDf+FXrc5w3On03BYtcFtyLTNDTY2yugtsdOptv8IxT7RnTU6dHn/98DgujR8jpDxn/Fh8aRzB9TUDxWbjxBzl4jq/6ENryvf1wAACAASURBVBN60yw9Ne+R4u0IDXHn+x+MrDryAJOLP96uVBJPohQ2n0sVHLo/w5dP+qOx3OBc8i/M+ySW2c9/ivfSqcVmmNjSVvKrsIG6NaP+9wZDmytkXzvCpm8/5LvvX+RVvx/5IKL4feW21J8q6rbWEhh4mweC/BP1p5099oqCnZ1GpjNWk2rrnFnOr8WwPQNL5lpe7LO2xHJlk4FNV/sxpJ6CupUOXWMLP+02kXgpkfROY/DNexqOup0eP6fviDclkJJ4FY23P74lnpuhwrmlD3p9bsAHdNfRKGMY0396h29GduWZLrY9nN6WfS9PZvIGtqcotNL60bDaH88ibKLxQO9Xh0U7d5MQb2GP4ssL+c/J13jh76PwjimBBJLJcgoqZdCgWOHt35XundTcN/YT5s2NYdBHkTSyJTOaj7DKuJcscw7LH+/B8uLL1XEYTc/gX9oz0Iuxpu5gQ3wmdl46vGVKbY3j0LodLdTZHP3zBBYKOmeVGk/cJMEYywmzGfNX4+j2VfHlaqKjDzJpmme5DyyQeBKluZNzqapBW7R6fe7gaUB3fJyuMmLWAmYvG8rCh4s+PMOWtuWS/CryKbVx99Tl3UPuT7eurcgZMYGlc+axNXQWvQo/klnqT3EHqqlzZuFUrAFTthuDX32be4uNvObsX8SMd7diWHeZ8JENUTSeBPjVYcmuGBZfOE3TQC1N8gPJzgtdFwvvxS7mwnGF9hHaUr9vpAjFlbBnJhO44U2WfbmaBz+KxLXCRYuN+36bNZkvbWXOW8s5XSuQl4Z3licy3XVq4RfgjSbWxA/LLVzvMBrf/GfNKk746DqQtvwHokjJHTSowEnY3mM8z434hQk/fMnifYN4xrvkJImy5PxhJPqQlXZj3uWV8GKjdxm7+HT6Z6xbuY0ZQX2KPM6/hOzTrP7fbFZfrU//ceE0k6Rd49w4tJ9jZgVXtwa3zTF/J564sRND3Dk0vhP5cHpw0fsOrCn8+s5zLI41smeKJ9rbrVbiSZSqMs6lalqMnMFDUaOYt/Brto+aRc8yv4rJlrYlSX4VZaoTyBPTBhLzrIEvfpxI0MMty67npP4UFVA9nTPzEWKMezC3eIiHRnXHt/iJ3Vdh0Hfr+dEYx9nh9+GuqoWvvxfqmM1svFKPyMc7FASS4oyfvgNX39/IZVVj7tNVbDRM1Ww4U0Yt5KHFX7N0/2Ce8sz/KKyYzyayNs5S7MNRcGihJ7hTim37nrdOy4W9bNpoh501h8y0S5zYt43VxvUcuNGa4W+/xb0tJUPffRQaaPW0VT5h0yYVLcfrCj2gQYW71o/G733LJosajwgd9SuUgGsRMHESQYbXiZq/hofmht96kIM18wS71sRxpfiXpDq3o1v3lhwwxnBc7c308eF0K/5lJ9bOpIQuZvqGlWy+Fsrgunkv3zxN4saNpGusZN+4xoWjyfwWHc1vxxS8JnzAywNdZVpDNSv4HwGWLK4e38XPC37ivEsvpoS3KSff3Wk8tYctBn697Ej36ePp27V4HFhoOTqAH95YjcE0FW334vsq8STKYWsdUNZ6NJ24/4lBLJtq5MtfJhF0f4uyn3R2m7aSX8WdU6gf9jgPeq7jo0UL2Dl6JkElb/O9pez608LlfRuIiyv+dEQVTXz74NvoqNSf/5+ols6Z+YCR6IPQacpQSh3IddAyLKIN339tIPbEvTzSWo2rVk8b1XYO2Xnj36XwvEU1zbV+NFElc7q2lgDPio4MO6IbP5ngn1/m+6/Xcf97A6mftyQr4RueTSjeXkWje+ezdtRO2/a9We7LN3d/wVO7QVHU2NWpR5OWnfAZ9iLP3TuCoBYyr+FupW6jR9tQYf8FJ/z8OxU5oDSd9PjU+Zbj6Y3Q6is+hUbV9B6eHLOQcQu/5vuDA5jSOfd1S8pmPp6+ueQ+dHiCH5fpMMadxc5/EuGlfWGp4kLwsP40XL0Kw/orDBqWO2RsubKBOU9uAEVBbe+Ma9PWdNbdzxtvjiVC51bKzc3in3brfwQoKg2O9dzpGPAIs596jMEVGHa/o3j65QEOGzaR6hLC8L6lXZ1T0XjAMHrNeYE1hh3M6N6t6L5KPIly2FwHNCtrTQp1QyfzcJc1zFn4LbtHvkLXsi9blGybd/qV/Cr+FnU7xk4J5/spK5m/chLdxpY5nEBp9acLADkcjHqFaVHF2zvQf85O5ra6s2NG6s+7j2It7ZFBlWBRlIHRQwdVxaqFqHJRK2IlfkWVkhgT/3YS4+JuIzErqkLUilgeGB1Z4fZyLVMIIYQQQgghagDpnAkhhBBCCCFEDSCdMyGEEEIIIYSoAaRzJoQQQgghhBA1gHTOhBBCCCGEEKIGkM6ZEEIIIYQQQtQA0jkTQgghhBBCiBpAOmdCCCGEEEIIUQNI50wIIYQQQgghagDFarVaq2LFi6IMVbFaIYQQQgghhLhrPDA6ssJtNVW4H4weOqgqVy9ElYlaESvxK6qUxJj4t5MYF3cbiVlRFaJWxNrUXqY1CiGEEEIIIUQNIJ0zIYQQQgghhKgBpHMmhBBCCCGEEDWAdM6EEEIIIYQQogaQzpkQQgghhBBC1ADSORNCCCGEEEKIGkA6Z0IIIYQQQghRA0jnTAghhBBCCCFqAOmcCSGEEEIIIUQNoKnuHQCwnFzIA+Fvk6Duyaw1XzKqkZK7wPwHH94ziq8bvcy6b8bipuS/I5vtr/fjkWUpBL6ylm/GNS7oZWbvZFbYBAy+s9nw4WCcy9tGHvOBjxk24lMOmQEUVGp7atVrRIt23gSERnDvqD60cyr8nkxip3blmbibACiKGrVDHVybtqGztgcDRt5LhM4Nu4K/knNLxhP2xk6yyduGXS3qu3ciMHwCUx8No7Vj5X2moiplsW1mXybFBDBn4xwG1ClYcj1mKiHPrkEZOJcNcwfiVLCE1c+E8GxCBPPXzaS7na3xU4h5H3PvGc0XR+oS+fEa3u3rBOZjzB83hPeSc26/6/bdeW3dN9zrpgCZbHm1P49GXab5w98R/YIe+7/92YjKUzRGQEFR2+Ps1ha/vmN5+ulReLsopbdVVGgcXGjcXkf/+5/iiXs8cFbKWm9RDqFv89tnQ3EB4AZH18znk4Wr2HHgDKlmR+o1akobTz0hYybzcJAbquK5TVFQ29WhQQtPegyfzDMPBdG4RpxpRE1W3jma7B283ncC31+wAKCo1Dg4udHatzejnniasdoGpYw2l5fjSoldTS2cG7rT1lNP8OAxjBnoSX11wTtsrhXuaL9FzWRbHWd7XZnPSorxKfo//ys3vJ5h5Q+P0k4N1mu/MLnXi2zKuv1eajye4ucfp9BRXYHjStRINeCUaeZojJHkbCvW7F0Y4s4w4v5muclK3R5/XX2+XG0i+cZYwmrnv+UI8YmXsXe044/4ZG6M609+fWw+Fk/iJRUe/lrqVGQbRWjwuO8tnu5VF3IySbtymoO71mCc+yQ/LO7Hy1+8x+j2DkXeoWoQyrRZY+iosZCdcY3zR5L5LWYRr6xYzLLxH/D5c0E0KHwsqFsS+dILDHZXYc68yIE1C/n682kkX5zHilm9cZHj5i5gh3eAHw4/JmH6I4cBAfmHUTb74veQ5eCAkmRif/ZAAvJ7V9n72Z10A0cff7wK9bhsjh8gK8lIzFEzWFLYuHITV/uEU0/lRr/pc2lx1ZLXKofkhS/y7Z/+PPbaGDrn76LKFc+6eStM24Jh3SUsWDgdZ8Q0TU+QDBDUOAUxAtbs65zZE823373GhBMKKz4fhbuqtLYWsq4e4bel81n430c4yS98NLRxkZynqh/MlFdG0F5dbHtuPuSmWgunf5rO/a9uw7HbGCa+rKN5rUwunDzC/l0bif7tJA8GuRWss3Buu3GBfTEL+Ob9yexN+ZYfn9MhoSXKVtFzNDgEPMZ7j2ixs2aTdnIXy+cv5c2Jh8mKWsj4dsWCuaI5rnDsZl0n5fSfJGyM5ovnfmTRj9OY9/FEfIsU0bbXCjbtt6jZbKrjbI8VrBdZu3Ir161WrPuNrDr0CE97qFHqdOWx9z9keP5p3nyYn974lO0t7uetR/Tkr0Xl3D7vvFDx40rULNXfOTMfJNq4H9r1oueNbew0xnJi7ERaqwHs8Pb3xf6nZEz7cwjT5+6u9UoSCcebEzmiFTEbTOzP6Y+/BsBKSqKJI9ZWjNcXKhpuu43CVNTv2IOQkIbcOrZGT+Cx5M+YMukT3pzxJd5RT+FZqLhWHJqhDQnhVn3OMO5/bCIxr0zg+QUzmOVpYG64a8H6FCfaBPQmpEPuxvuGdaX22XDejV3J9hd6F7kKI2oqBSc/PR6qDSQkHMcc0A41gPkY8YkpeIwYgfJTAvHHzQTkVb7m4/EkXlThEeBX6GraHcQPmZgMqzlj50twwAm2bjGy/vJghjesTeuuYbS+1S4L1ZqX+fZ4c/z7D6BHiUtwVq5uWsnGa04EBrfj961rMWyfQVCoBGBNUyJGwsJolz6QR35aw7aUkYx0Vcpo24ewXg25PPBFNq9cz8XIsTQudFZWHFsS2H9AodgrxvwXKxf/xjXPp1n05aO0LZwvJ00nJ8dc9ARSPLf1D6DWuEjm/hjF9id1hErvTJSlwudoBZWbN71DQvKugIXRp9UNBj++gpWr/+LBKR0peIsNOa5Y7AKMHD+ZCUun8/CbH/Ds+16snBlUaMDX1lrBlv0WNZ5NdZztdaXldBzG3Vk06RGMy66trDL+zuMefthp3NGFuRc0zGnA7tnz2OnmQ78BA6hNMRU+rkRNU+0d6Ow9RmKOqvAa9h+mRrTBstdI9GFz3lIFZz9/OqvOkRB/kvxXbyTtZp+jH71HdaX95QQSjucvySRp9z5y6mnxLzQSdfttlEfBxfcxZk7wwHowiu93Zpb/FrvmDPrvDAbWS2H9UiOnLLdpq3bH09MV1c1LXEq9XUNRk6ia6tA1t/KXKZGr1tzXrCmJxB9tjH7QYPSNjxKfeJXcRVauJpr4y9oSva5J+Qfd7eLn+jZWrruIY/d7eXVifxrd3IFhzTlsjhzrJdYZtpJevx8TZt5HzzopbDBsJtVq64rEP0+Ds3MdsALlXGlX6nni1UyN+fIlrtj6v7WmcDnFiqaxO26lnMw1mnLO8OoW+Hi7QvpZzlyV3CbK9nfO0bU9vGirsXDl4uWiefBv57hatL93Jk93d+CMcSm/Xi3vjbbVCmXut7j72FzH3S5WzByLMZKU04LwJ//LSD8Np2INxJc+C/22/l7tK6pTNXfOcq8CnNJoiRzUFs8hEXRWDrMqeh/5d86omunQuVv5MyExL6nmcCA+mSxvPX5ttWjdjmBKupZbBOccID75Ova+/njbV3wb5VPTJjiYVsoVkhOPUZHQVly6Eap3JHt/Intvl6Ot6Zw/l4rVuTnN6ld7X1lUlLojem1dsvea+D0vaWYmm9jn4Iveywu9nyN74/eQu+gme+L3klPPD32Hig1ZlR4/Vq5tXsmGlDr0jOhDs8AIBrhnk2CI5aSN+dZydg2GXTdxC4ugm3tvInvX4/pmA+ttruBF1cshMyODjIwM0lMvcnjL13z0y1GcgwbSo145vbPs85y7bMXBvUWRq2YAWLNIT00ltchPGhnZecWFuh1dPGuTteUzXvt2IwcuZtpWRFpTOXsmFavGhXp1JLeJsvy9c7TlwlkumNW4tyw6XatScpzKjV6hXqgz9pB4oCJ7U/Faoaz9FnehO6rjyogV85+sit6HpV04Q3xaMiAiAPsLazBsz7Bxpyqj9hXVpXpzQsYODGsuYB8YQf+mKtRtBxPhq+ZEjIHE/Bse1Z0I0LqQvcfEnpuA+RQJCRdpo9dSz64zOh879ppyi2Dz6QQSzqjo5K8tmPNbkW1UgKqxO03UVi5XeJSrFk3cG6DKvszFlMLvsJCdmVtoXU85iWnZLD7d4kDg5PH0kGk/dxEHfP19sEtNwnTQDORw0JRMpqc/Po4O+Og9yUw0cTAHyDnI7sQ07LoE4FPhJ26UEj/WK/xq2EJ6/VAig+ui2PsRMag15r1GVh2xpXdmzo3/7GYMjPDHUXGmZ2RfXDO3Y1h7XkZxaxjz2WVMCtSh0+nQB/ZiyKQP+b35ROb+33Calsjg+R25dK6d/R3D23NYdcODhx7tX+LeRfO5KCYHBRIYWPgniAmLT+XGgOJKxEv/Y1ynFFa/M5mhwf4EhtzDQ8++w+ItJyk55lQot105zs7vZvLxb5nU7RlGV6cSjYXIZeM52ppzk4yMDDLSU7lwcB0fvh3F6ZYjmDy0RaGpgZWV41S4Nm2Cg/UaFy9VrGAoq1ao2H6Lu0Pl1HGlxUr27wai/1LwHBJOB7WKRv0i6VH7CuuNW2yb2VJJta+oHtV4z5mV1E0rWZ9Sm56R/WioAEpuIv3gjTUYdj5LQK9agANdArpgZ0wi/k8zwS2SMB2uj/a5VqjR4Kv3JOO7eA6Ze9My0cQhqztjde55vc6KbqNi+2vzrCBrKe/IOcC8UQHMy/9dcaTduI/54IEOpT+ZT9RQCi5aPR2VrSQknsHibSUh4Tytg/1ooCjgp6P1+S0knLHQhQQSzyh0Gq0t9MS88hWPH8u5OAw7MmkYGUEPJwANHhHhdPrmU1YZ9/PodO+KHdDmw0RH78XSZiJDfHOjrlbXSPo3+Zko42pOj36YFjKUW2OoXAfw0twH6awGLDe5enwXy79YwNTJ9ny1YAq+hW40yO3ILbv1u6JpyqB3lvKUrsTdCKhcw3hh9gMFD4vJfQfOLQseHKJuFsbLy3oxce82ftuRwO97Etmx+Tveil3Oykc/Z8FUf249J6FYblNUtWkRPIUPXhuSm3uFKMHWc7SVzLjn6BaX/7uCqkEQL333MiGFRx8qOcdZ87ZV0dYlz/wV3G9xd6i0Oq54rNwkwRjLKY0fzw9undtprx9CZLAL6zcb2JgSRmSF4qUya19RHaqvBLNeYb1hM2lO3eijV5OWmkpq6nVqd+uL3v4Svxq2kAaAQj0/f9orJ0lIPEfmHhO/q33Qe9gBCq5+WlqeTSDh7E32xu8hy9kP//xqo8LbKJ/l/BnOmxUaurlW8EO7wfmzKVjsGuJW+DK3ujWj3lnEkiWL+XbeLMYH1OHY9y/yavQd3DckqpW6hQ5dEwsH4pNJS0vEdNgFP11uQlW30eFb9xCmpDRSk0wcsDRFp2tmwwhp8fgxczLWQEJ2I4JDPcjKm4aW3iiYPp0UjsUaSargaFjOXiOr/oQ2ob1plp43nS2zHaEh7piTbb0KJ6qaYt+Ijjo9er0efUAQfUdO44O3RuGy9ys+NBa9CqByHcAr3y1hyeKFfPH2FHq7XWT1ay+w+EjJiSyKfWM8AotfOQvAo0mxJ4cpjjTp0odRk55j1sdLWL1uCVN8rexb8DErzxXaen5uW7qUZVEriNuyjbjPp9DNVXr6ogw2n6MVHLo/w8IlS1iyaD7vPzeYNhnbmf38pyQXupRbeTnOwqUz58hS6uHWsGJld+m1QsX2W9wlKqmOKxErGdtZGXcejU9fejhfz43bNPDp04N66VsxrLtYsfVXYu0rqke1XTmznF+LYXsGlsy1vNhnbYnlyiYDm672Y0g9BXUrHbrGFn7abSLxUiLpncbgm/c0HHU7PX5O3xFvSiAl8Soab398HWzfxu2ZObJpM8esrgzXtq5QgW1N3cGG+EzsvHR4F77MrdTG3VOXd++RP926tiJnxASWzpnH1tBZ9JLpP3cPjQd6vzos2rmbhHgLexRfXsh/Tr7GC38fhXdMCSSQTJZTUMGgQQWUiB/zEVYZ95JlzmH54z1YXvwN6jiMpmfwL/dZ+LkjcyfMZsxfjaPbVyVWRHT0QSZN85SpNjWYQ+t2tFBnc/TPE1gouNJ1qyOnAfy70r2TmvvGfsK8uTEM+iiSyviKG1VdX8YM9eXLPUc5ctLCrbmVRXKbEOW7k3O0qkFbtPq87ysL6I6P01VGzFrA7GVDWfhwK9SVmeMs5/ltwz7MtXug86hI/i67Vih/v8Vdo1LquOKxYiX1NyPrr1i4eekdhnR9p/hG2W2M48zIB2heznhX5dW+orpUU+fMwqlYA6ZsNwa/+jb3FvuinZz9i5jx7lYM6y4TPrIhisaTAL86LNkVw+ILp2kaqKVJfnDaeaHrYuG92MVcOK7QPkJLbrzZto2yWUlN/pJZCw6g7vwEYwMrMKE4+zSr/zeb1Vfr039cOM1udyDVCeSJaQOJedbAFz9OJOjhlpKk7xq18AvwRhNr4oflFq53GF3wXTiKEz66DqQt/4EoUnIHDSo6F72U+Mn53Uj0ISvtxrzLK+HFnviYsYtPp3/GupXbmBHUh9ueF27sxBB3Do3vRD6cHlz0+1isKfz6znMsjjWyZ4onWplnW2PdOLSfY2YFV7cGt51sZe8xnudG/MKEH75k8b5BPONtwz/Veo2Tx3No0tq12FSdGxw5dAqz0pDG8oWm4o7ZWAeUug41LUbO4KGoUcxb+DXbR82ip6qyctwNDv8wi4933qTZveMIrVterNtSK5Sy3/ItJncvm+u4UmLFeoUNhk2kOvVk+vuP4ldkAoOFUytm8orRSMyxcTza9nZrr4zjSlS36umcmY8QY9yDucVDPDSqO77FE6SvwqDv1vOjMY6zw+/DXVULX38v1DGb2XilHpGPdygIfMUZP30Hrr6/kcuqxtynyxuBsnEbjQGwkHJoKxs31kUxZ3H98ikO7F6DcU0yKQ378fK7k/Aoth7rzdMkbtxIusZK9o1rXDiazG/R0fx2TMFrwge8PNC1nOBXqB/2OA96ruOjRQvYOXomQSVvDxE1kkIDrZ62yids2qSi5XhdoQc0qHDX+tH4vW/ZZFHjEaGjfimBULH4ySLRGMNxtTfTx4fTrfiXlFg7kxK6mOkbVrL5WiiDb1NEpG0x8OtlR7pPH0/frsVj00LL0QH88MZqDKapaLvLE2pqgoIYASxZXD2+i58X/MR5l15MCW9TThFQi4CJkwgyvE7U/DU8NDf81oNBrJkn2LUmjivFv4TauR3durfH2fwXSyY9wupGYUSEBdK5eX3ssy5y8LefWWo8Tf0+U4hopQaZkC3uhK11QFnr0XTi/icGsWyqkS9/mUSXxrbkuLwnNFmvc3T3JjaeVmHJTiflzGESNkYTs/MMtbtO471nulGn2HpsrRXK2++g+1vIUxvvWrer4yoWK5bz6zBsu0GDgfdzX69AivfV9fXvYbHhU6JX/ckjT3UuO+/bXF9X5ucgKku1dM7MB4xEH4ROU4ZS6kCug5ZhEW34/msDsSfu5ZHWaly1etqotnPIzhv/LoWHFNQ01/rRRJXM6dpaAvK+yc/WbTwMQA77l/yHx5coKCoNteo2onn7LvSf9gljRvWhvVPJotdyZQNzntwAioLa3hnXpq3prLufN94cS4TOrWI3h6rbMXZKON9PWcn8lZPoNtZdkvRdQt1Gj7ahwv4LTvj5dypyQGk66fGp8y3H0xuh1Zc+baVC8ZO5C2PcWez8JxHespS1KC4ED+tPw9WrMKy/wqBhZQwIWFPYaNhEqksIw/uWdsVFReMBw+g15wXWGHYwo3tIyS+1FP+4WzECKCoNjvXc6RjwCLOfeozBt70sn0vV9B6eHLOQcQu/5vuDA5jSOW+9KZv5ePrmEu3VHZ7gxxVP46Fuz9Bnn8S6djObvpvNoovXydbUwa2lF8FPfsTj4/uW8rRIISrG5jqgWVlrUqgbOpmHu6xhzsIvWNDBlhwXnLczJzDMegKDoqBSO+DcsDltvYJ4bPYYxgz0pH6JtGt7rXD7/f6W3SNfoauMh929SqnjclUkViycWW3AlNWU0cO7l+iY5a4+gnv8vuDdVUb2Tu5cstOV507qa1HzKNZSHyn49y2KMjB66KCqWLUQVS5qRazEr6hSEmPi305iXNxtJGZFVYhaEcsDoyMr3F7GPYUQQgghhBCiBpDOmRBCCCGEEELUANI5E0IIIYQQQogaQDpnQgghhBBCCFEDSOdMCCGEEEIIIWoA6ZwJIYQQQgghRA0gnTMhhBBCCCGEqAGkcyaEEEIIIYQQNYB0zoQQQgghhBCiBlCsVqu1Kla8KMpQFasVQgghhBBCiLvGA6MjK9xWU4X7weihg6py9UJUmagVsRK/okpJjIl/O4lxcbeRmBVVIWpFrE3tZVqjEEIIIYQQQtQA0jkTQgghhBBCiBpAOmdCCCGEEEIIUQNI50wIIYQQQgghagDpnAkhhBBCCCFEDSCdMyGEEEIIIYSoAaRzJoQQQgghhBA1gHTOhBBCCCGEEKIGkM6ZEEIIIYQQQtQAmureAQDLyYU8EP42CeqezFrzJaMaKbkLzH/w4T2j+LrRy6z7ZixuSv47stn+ej8eWZZC4Ctr+WZc44JeZvZOZoVNwOA7mw0fDqb2gY8ZNuJTDpkBFBS1Pc6NWuMbei9PTh2Dbz0VYOHckvGEvbGTbHLbqexqUd+9E4HhE5j6aBitHYvvdRbndv7AVwtWsin5CBfSwalJB/R9hjNh0ki0rurcVhtfoOfjK0i13u4TUNP0vgWsfSWwZvxDRDmy2DazL5NiApizcQ4D6hQsuR4zlZBn16AMnMuGuQNxKljC6mdCeDYhgvnrZtLdDsg+y5aFHzN/xRb2nbhClkNdXBu3wkPbnWGTniD4yEsVj50XLLzVdwLfX7AAoKjUODi50dq3N6OeeJqx2gaFRmIyiZ3alWfibub9nndcuLXFr+9Ynn56FN4uSinbEkKIqlFmHZAvewevVzTHldbWpQnt9QN44OkniOzkhAKYS6kPnFxb4BF0D49NG0+PJiXPyDdObGDRF4tYtW0vxy/fROPSjM5dwxg98RGGeLigAqzXfmFyrxfZlHX7v1nj8dT/a+/Ow6Is1weOf9+ZQQgBFRIFFHdRQWBmAJVyTdz1uKepqZmpWWmdNDvZqZ9mZplLp7yyItfjgkuJ5paWluU2rGquzhR5TgAAEnBJREFUuZCCqKiBIMosvz+YUXaHU+Ro9+e6+EPmmZcZvJ9n7vtZXli/djyN1X/gFyf+QuXLFcsTX4XbFqGuy7Mrv+HV4PxAMWXEserjhazdlciZK7mo3byo4d+Y4IjujBzfiwAX7O4DwjE5QC1g4szmjSTlWbDkHSB2Wyr9hvrlD7LqhoTpqvHZVgNJNwcT5Wp7ymniEjKo5OLEL3FJ3HyqE7b82HQ2joQrKpqGaakM5Oe1GpoOmcFLraugGLO5ELeeL5ZP55njN1m97Bka2gZGtT+93phCN18VptzLHNu+hOhPJ5J0eQFfT2vL3Xw1hyOLXuC52QcgqCdPTRhBo2oWLh/fzfoV0xi27Qfe/HwOTzZ0RhM0lPfmtyfPmmCb07bz4Qdbcf7HVF5s62ntHAou/o2Q8flB4URQeCjOaxMx/GKkc7itG+VxJC6Z287OKIkGjuZ1IdzJ9tBRDibexCU4jEAnwHKVnf8ewoTY2wT3e5rJz9fDw3iV1DNHMezexM6TY+gQUp7YOQ6Ac/gYZo/S4mTJI+u3A6z5YgXvPHuK2zFLGNmgcISpPNszcdqTNNaAJe8GqcmbWLz0bZ5JUfj60wH4yrq6EOIvUUYeUER5xriCbTPP/syqL5bw+sizmNd9TB8f29UL5wdpyRtZtGQO437JYlnMK4TcSbYtXN83lzEvfcHRyhH0GzyJMfXcuZ16mJ1rljNl8Hb2zozmna6+qCu3YMyH8+lrtr29U6yb/gl7aw9lxig9ztZvq9wbyjj7ILI7VwT74yu/bcDAtxj3mEfhwklVmXp1rYGSc5APR4xmyaX6dBv6MqOaeKFcS+XMyST2bNtO8oieBLjcfbZ9fUA4mvtfnJmOs2njUWjQmsdv/sz+jVtIGfwsddUATgSFhVBpXRKGo0ai9Pkv13I1kfhztejVrw6bvzdw1NiJMA2AhWsJBk5b6jBS740KyJ+EUFGt8WO0a/dofsB3fIKm9GHY0lWsO/Q0r4VaA1Rxo154W9o1yh/gn4hqgWtad97fsoG9U9reWSG5eWAer8zeT6Uu7/Pf97vja/s86NyTAb0ieGnI/zHj1YUExbxE4KNBdOgUdPftnjzN57NVuDZpQ6fOJX/4CEen4Baqp6nqe+Ljz2EKb5BfWJvOEpdwjab9+qGsiyfunIlwa+VvOhdHwmUVTcNDcQMsl7fz383p+D29lC9f01NwfB45wUieUYNKU47Yyct/XSrvINq2a0clAKLoUOcm3cZ9zYatv/L0+MaFJgAUZz+07dpxp7aMiqJBdhdGrdvOz9f6099L5tWEEH+BMvOAgsozxhVt25F2dW7S/YVNrPwmhV7P1rW2K5ofRBFIXwZHxxKb9BIhLWx5x7e8MymaX7wHsWDJVFp72UbgLvQe0JWFo4cz/83XCQz8kqH+vuiifO++bKMnBz9YwH7vYDp27owr4oFmZ66Yz774srX1CmxP586Plrqqlb1nFWtOV6b7/MXM6li4iHthihGjUvA79+4DsijgmO57bZCXvJHNZ1QE9nmNCT3rYT68kU2nbOu6Cu6hYTRRXSQ+7jds372ZeJAjLqG0HdCChhnxxJ+zPZJL4sEjGKtqCWtQVsi5EBjaBCfzJVLTjKU3U/vSrJkXqltXuJJpnQKzXGX74vX85tqGCa93u1uYWVWq2583ntOinFjF0h+zy/8LEQ8ElY8OXS0LvxoSuG5d2bJcSyDuTA30Xbuhr3GGuITr1pVbC9cTDPxq8Uevq4kKMF/P4JpJRfWaNa2DZkEanP6kaRPXpoHU15i5ejkD8z1ba3B3r5y/3Cx1mRDiL1J2HlA2+8c4BfegEBqozVy8cLGMtpUICGyEk/kalzNs+YGZ3zYsZnuGJz1f/WeBwsz2IgJ55l9DqH/TwJIVSdYtb+Jvo6RcsVQlxZe9LGRnXOUWVfHxqVz8Y1qtQVNmVm9vHxD3230uznIxxG7lvEZLr671adajJ02UU3yz6Qi2kFX56dD5WjgZn2A9e2PkWFwSt4P0hNbXovU+jSHx9/wk2HiMuKQbVAoJI6h4xluAmfQLaZgUN6pUKaOIs2STfjETi3st/KpZf1W3k9kXn4NT6BO0KXFlQYVvu/Y0Uf3Owf1HKW/XEw8IdWP02irkHTZwyHp0KzfJwBHnEPSBgehDXTgcl0z+Q7dIjjuMsWooeutMm7pWEM2qmUhcMp1PtyWTlm1fIlJe5ktpXDKp8fUvaZXWSG5ODjk5OWRnXubUnmg++uoM7pFdeKyqVGdCiL/CvfOAspQ9xhVmSrtAulnBo6pHGW3NXE67hEnlg7+fdV+6JZP4/b9gdI+kY8vKJT7LKaADbWtB2sEDnKuY4Vw4qpJyxVKVEF93L4QxN4uszEwyC3xl3ci1Lk4oeAYG4ccZ1s6aS2xcCpnlTDLt6wPifru//zc5+4jdfolKET3p5KNCXb8bPUPUpGyOJcF2kFYdQLjWg7xkA8m3ANN54uMvU0+vpapTE3TBThw25CfBpgvxxKeqCAjTFtnza8F0Oz8Jzcm6wqldC3g7OhlzjQ50CinYOczk5ea3u3HtNwyrpvHJHmcixo7kMeu+M0tWOuk54OHnh3sp+au6Ri18NWaupqXLDNpDy5mQsGCcMhMxHDcBRo4bkshtFkawizPB+mbkJhg4bgSMxzmYkIVT83CCbZMGrm14ZdZYws17+c+EgXSICOPxHkN5cXo0357Kosx7gJTBYryVH+fZmVw6voP578Vwwb8fY3vXLrZ9wZS2itEROnQ6HfqI1vQYPZ9DtZ5l7sy+yFZ0IcRfwp48oIDyjHEF26b/soXZ767mnKo+T3QoeMa7YH6QwZmfonln0SG8Oj7PU82trcxXSLtkRKnhh0/RfNpG7UMtHxXm9DQuyZLEQ+7eueJddsTXHXkcmNmViIiIQl8tOk5jjzWZ1DR/jlmTOuB2KJrJQzrTUt+Kzk+O5c1PNnL4WvFZAfv6gHA09/HMmYXM3Rv47porj/fqyKMKoPjRpWcY86ZvJ3b/Pwlv/QjgTPPw5jhtTCTupIk2tRMxnKqG9tU6qNEQom9GztI4Tpja4p9g4ITFl8E63yJVZx77Z3RCP8P6T0WNR4MuTJk5iccKToIZj7FgQDgLbP9WXGjw1H+YN6wRRcdje9YV/tcEWzwIFDy0ehorPxGfkIo5yEJ8fDp124TiqSgQqqNu+h7iU800J56EVIWAgdoCBb2CV+RLLPp2CMf2/cjeuCQOJR5g7+rZ7Fi3joFzl/F2e69y7i60kLvtVVpuu/szVJ6RvLF0Ku08i19J5dWZN+Y+TRM1YL7F9XMHWLNwERPGVuLzReMJkYMRQogKZW8ecLe9/WNc8bZOXkH0mz6Tcc0LfqIXyQ9Q4Rb8PNHv9Spwsw7LnWuU/lYs8pn/d1GOXNG++LLREDhyLpPbVykUaYqmOo1t2briTvCIj9nc5zQH9/yMISGJxLh9xH68m6/W7uCdZXPoXctWdtnbB4SjuX/FmeUq38X+QJZbJB30arIyMwFwbfkE+kr72Bm7h8mto3BHoWpoGA2VvcQnXCT3moFD6mB6Nc0PLK9QLf6z9hOfdovMuGRuuz9OWJOib0tD81Ef8VqHqqg0+bcyrVerSvFOpK7LgHen07uWQt7vp9m9eD5LV77Ov0PXMq9n/lkhxb0G3q4Ql5pKlgVKyHkxXbpAqlGFV03vEjqqeFioa+vQ1TQTE5dEVm8ThlMehE60HrCtpyOkypcYErPog4FjZh8G6fyKz1Q5edGkdW+atO4NQM6J5Uwc8S5r565gcJsX8wsnuyk4t3qZz14IQ2O+ycWkr1jw8RY+mPwJQSsmFLkrFCiVqtNYp0dv6y7hkTzmf4MeIz9n/sb+fPFkDdn2IISoOHbnATblGePutnVSaXB298a/ng/uxcZUW35QBcutqxzfupD5az9l8nshxLzdmioKoKpOTW81loTzpOVB05LGZfNFLqSZUXn74C0D58PNjlzxLjvi6w4VVepqiYgo/YYgd15Clfq07F6flt2HArf4bdNURry2mXnRB+j2VivrWXZ7+4BwNPetODOnf0vs3hzMud/yeodviz2u7I5l9/WO9KiqoK6jQ1fDzLqDBhKuJJAd8CQh1hUvdQM9oW5LiTPEcy3hOpqgMEKci15Nhbt/MHr9PQJeccW3mc56LiiMli3qYOz3DCvmLOCn9tNo7QZUak5L7SPEGnbyw9W+9C527sxM2q7vOWb2oHPLZg5wO0xRYTRN0YdWZtn+g8THmUlWQpgSaC3HNYGEBSvMMsQTTxK33SJLmDQozrVxf/q3nMOP350hxUg5izNQedZHq9fnD8zhrQh2u06/aYv4YFVvloyoc89tDM51G1BbnceZkymYkeJMCFFxypMH2JRnjCvUtlSF84PwVjqq5/ThlXWz+LJ/C15uXgkUd/QRTVH/sJed+7Pp0Lb4uTPjiV38cB58hoVTR5Lfh5s9ueIddsTXH+ZM7S4Daf/hZmLOnuN3Syuq2366XX1AOJr7lHuZOb8lFkOeN93+vYilS5cW+vry9Sg8s38idkdG/jYBTTPCQyuTm7iZ5fsv4KPVUtP2yp0C0TU3k7BlOfvOKTQM1/Kn3cugcgTPT+xC1UuxLFybkn8gU/Gi0/De1MrZzUfvbSWtyBbfvJT1zPwsHkujJxnWuuSDw+Jh8Qih4UForhpYvcbAjUY6Qtyswae4EaxrRJZhNTGGa/mTBgVmdS3ZqZxNzy1+ybwUTp69jap6DR79wx/wamr3n8TwJiYSlkSz146bh948cZSzJgUvb0+5YaMQogKVMw8oUfnHuHtSvIh6eSwRzqdZ9dlWMizWn/OP4UR5ZrBx9jx+vlbkFd08yqKZy/nVRcewQaGyY+bvpqRcsTQlxpf98tLPcj67+JPMl09x+rqFR7y9S70fgnhw3J+FHdNpNm9MxlR7OMMHtCKk6EgWotB16Xes3biNtL5D8FU9QkhYIOrNP7DralV6jStwkFFxJ1TfiOsf7iJDVYMhunuvDthPoVrUOJ5utoOPli1i/8C3iHQF1xavMHviKcbOm8SA83sY0ieShtUsXDn+I+v/u4mjlVrzrw/G8qdMiAgHpuCp1VNf+Zjdu1X4j9QVuJGGCl9tKDVmL2a3WU3TnjqqFRgwzembmNR3Caa2PekaGUgdr0cwXj/NwdgVrD3mim5yP4L/jN6pCWDo811ZNWEjn301msihte/MyFhuXSBh1y6yNYD5NtfPHWD9onWke7RmfPd6clhYCFFxypsHlHadMsa4/5XKry/jByxh+PJoVhztxovNNCheXZj6/iFSJixmXL9f6f9Ud8LquHH74mF2xqxiR4onPWa8y5Dif5xNPPRKzhVLU1J85TOTceR7tm0r8keoUVEzpAMhNVVk/TiDHu+n0bJHd9qE1MfbDW6kJLJl1Ur2WRozelAkxe5JIh4496U4Mx3byKbjEDC+N0ElTTE5a+nTsx4ro2PZkjKIUXXVeGn11FPt5YRTEGHNC+5bVFNLG0pNVRIXXLWEN/uT56zUDRg8vjsrx2/giw2jaTnYF5VSmeDRn7MucCWfLdnAmg+/4XKOglvNRuh6TmXK6AHoq8uGxr8DdT092kcVjl5yIzQsoFCH0gToCa68mHPZ1dHqC08aqH2iGP/PTLbu+pnV81dz8ffbqFy9qB0QxjOzxvBsj4Z/UudUqNJ+LCOab2fOksUc7P8mLawjt/nq98x54fv8VioNLlV9aRw+ig9eHEM3P9nQKISoOOXOA/xKu1IJY9wfro9c0I0cS5v1U1kZvYOhs7tQTVHwjJzE0jV6li1czjfLZ7EuIxe1hy8BEYN4d9YoejWrKlvB/65KyBVLVzy+PAAwcjzmTSbGFG3vTKc5+/momwsekaOYMvQbdu35mk82pHE914JLVV8a6gbx9vvP0b/o4XLxQFIsFkuF3GBoWUwsA3t3rYhLC1HhYr7eIvErKpTEmHjYSYyLB43ErKgIMV9vYdjAXna3l0keIYQQQgghhHAAUpwJIYQQQgghhAOQ4kwIIYQQQgghHIAUZ0IIIYQQQgjhAKQ4E0IIIYQQQggHIMWZEEIIIYQQQjgAKc6EEEIIIYQQwgFIcSaEEEIIIYQQDkCKMyGEEEIIIYRwAIrFYrFUxIWXxcRWxGWFEEIIIYQQ4oExbGAvu9tWWHEmhBBCCCGEEMJ+sq1RCCGEEEIIIRyAFGdCCCGEEEII4QCkOBNCCCGEEEIIByDFmRBCCCGEEEI4ACnOhBBCCCGEEMIBSHEmhBBCCCGEEA5AijMhhBBCCCGEcABSnAkhhBBCCCGEA/h/Zr4ADM3bSckAAAAASUVORK5CYII=;" vertex="1" parent="1">
          <mxGeometry x="3620" width="531" height="152.42" as="geometry" />
        </mxCell>
        <mxCell id="1AtQalo0nMctWGIllylj-3" value="rst" style="text;html=1;align=center;verticalAlign=middle;resizable=0;points=[];autosize=1;strokeColor=none;fillColor=none;" vertex="1" parent="1">
          <mxGeometry x="3420" y="152.42000000000002" width="40" height="30" as="geometry" />
        </mxCell>
        <mxCell id="1AtQalo0nMctWGIllylj-6" value="w_req" style="text;html=1;align=center;verticalAlign=middle;resizable=0;points=[];autosize=1;strokeColor=none;fillColor=none;" vertex="1" parent="1">
          <mxGeometry x="3680" y="264.42" width="60" height="30" as="geometry" />
        </mxCell>
        <mxCell id="5JMpv9uT-XaPiylW07l9-1" style="edgeStyle=orthogonalEdgeStyle;rounded=0;orthogonalLoop=1;jettySize=auto;html=1;exitX=1;exitY=0.5;exitDx=0;exitDy=0;entryX=0;entryY=0;entryDx=0;entryDy=0;curved=1;" edge="1" parent="1" source="1AtQalo0nMctWGIllylj-7" target="1AtQalo0nMctWGIllylj-10">
          <mxGeometry relative="1" as="geometry" />
        </mxCell>
        <mxCell id="CuS0chB3o9pkuQW-1lCh-3" style="edgeStyle=orthogonalEdgeStyle;rounded=0;orthogonalLoop=1;jettySize=auto;html=1;exitX=0;exitY=0.5;exitDx=0;exitDy=0;entryX=0.5;entryY=0;entryDx=0;entryDy=0;curved=1;" edge="1" parent="1" source="1AtQalo0nMctWGIllylj-7" target="CuS0chB3o9pkuQW-1lCh-1">
          <mxGeometry relative="1" as="geometry" />
        </mxCell>
        <mxCell id="1AtQalo0nMctWGIllylj-7" value="IDLE" style="ellipse;whiteSpace=wrap;html=1;" vertex="1" parent="1">
          <mxGeometry x="3490" y="247.42000000000002" width="120" height="80" as="geometry" />
        </mxCell>
        <mxCell id="1AtQalo0nMctWGIllylj-11" style="edgeStyle=orthogonalEdgeStyle;rounded=0;orthogonalLoop=1;jettySize=auto;html=1;exitX=0.5;exitY=1;exitDx=0;exitDy=0;curved=1;" edge="1" parent="1" source="1AtQalo0nMctWGIllylj-10">
          <mxGeometry relative="1" as="geometry">
            <mxPoint x="4140.142857142858" y="514.4200000000002" as="targetPoint" />
          </mxGeometry>
        </mxCell>
        <mxCell id="5JMpv9uT-XaPiylW07l9-6" style="edgeStyle=orthogonalEdgeStyle;rounded=0;orthogonalLoop=1;jettySize=auto;html=1;exitX=0;exitY=1;exitDx=0;exitDy=0;curved=1;" edge="1" parent="1" source="1AtQalo0nMctWGIllylj-10" target="5JMpv9uT-XaPiylW07l9-5">
          <mxGeometry relative="1" as="geometry" />
        </mxCell>
        <mxCell id="1AtQalo0nMctWGIllylj-10" value="&lt;div&gt;WRITE_START&lt;/div&gt;&lt;div&gt;&lt;br&gt;&lt;/div&gt;&lt;div&gt;aw_valid&lt;/div&gt;&lt;div&gt;w_valid&lt;/div&gt;&lt;div&gt;b_ready&lt;br&gt;&lt;/div&gt;" style="ellipse;whiteSpace=wrap;html=1;" vertex="1" parent="1">
          <mxGeometry x="3790" y="334.42" width="170" height="102" as="geometry" />
        </mxCell>
        <mxCell id="5JMpv9uT-XaPiylW07l9-12" style="edgeStyle=orthogonalEdgeStyle;rounded=0;orthogonalLoop=1;jettySize=auto;html=1;exitX=1;exitY=0.5;exitDx=0;exitDy=0;entryX=1;entryY=0;entryDx=0;entryDy=0;curved=1;" edge="1" parent="1" source="5JMpv9uT-XaPiylW07l9-2" target="1AtQalo0nMctWGIllylj-7">
          <mxGeometry relative="1" as="geometry">
            <Array as="points">
              <mxPoint x="4240" y="424.42" />
              <mxPoint x="3990" y="424.42" />
              <mxPoint x="3990" y="204.42000000000002" />
              <mxPoint x="3592" y="204.42000000000002" />
            </Array>
          </mxGeometry>
        </mxCell>
        <mxCell id="5JMpv9uT-XaPiylW07l9-2" value="&lt;div&gt;WRITE_DONE&lt;/div&gt;&lt;div&gt;&lt;br&gt;&lt;/div&gt;&lt;div&gt;b_ready&lt;br&gt;&lt;/div&gt;" style="ellipse;whiteSpace=wrap;html=1;" vertex="1" parent="1">
          <mxGeometry x="4070" y="514.42" width="170" height="102" as="geometry" />
        </mxCell>
        <mxCell id="5JMpv9uT-XaPiylW07l9-10" style="edgeStyle=orthogonalEdgeStyle;rounded=0;orthogonalLoop=1;jettySize=auto;html=1;exitX=1;exitY=0.5;exitDx=0;exitDy=0;entryX=0;entryY=0.5;entryDx=0;entryDy=0;curved=1;" edge="1" parent="1" source="5JMpv9uT-XaPiylW07l9-5" target="5JMpv9uT-XaPiylW07l9-2">
          <mxGeometry relative="1" as="geometry" />
        </mxCell>
        <mxCell id="5JMpv9uT-XaPiylW07l9-5" value="&lt;div&gt;W_WAIT_DATA&lt;/div&gt;&lt;div&gt;&lt;br&gt;&lt;/div&gt;&lt;div&gt;w_valid&lt;/div&gt;&lt;div&gt;b_ready&lt;br&gt;&lt;/div&gt;" style="ellipse;whiteSpace=wrap;html=1;" vertex="1" parent="1">
          <mxGeometry x="3605" y="536.42" width="170" height="102" as="geometry" />
        </mxCell>
        <mxCell id="5JMpv9uT-XaPiylW07l9-7" value="aw_ready, w_ready" style="text;html=1;align=center;verticalAlign=middle;resizable=0;points=[];autosize=1;strokeColor=none;fillColor=none;" vertex="1" parent="1">
          <mxGeometry x="3940" y="452.42" width="130" height="30" as="geometry" />
        </mxCell>
        <mxCell id="5JMpv9uT-XaPiylW07l9-8" value="aw_ready,~w_ready" style="text;html=1;align=center;verticalAlign=middle;resizable=0;points=[];autosize=1;strokeColor=none;fillColor=none;" vertex="1" parent="1">
          <mxGeometry x="3670" y="444.42" width="130" height="30" as="geometry" />
        </mxCell>
        <mxCell id="5JMpv9uT-XaPiylW07l9-11" value="w_ready" style="text;html=1;align=center;verticalAlign=middle;resizable=0;points=[];autosize=1;strokeColor=none;fillColor=none;" vertex="1" parent="1">
          <mxGeometry x="3850.5" y="556.42" width="70" height="30" as="geometry" />
        </mxCell>
        <mxCell id="5JMpv9uT-XaPiylW07l9-13" value="b_vaild / ack" style="text;html=1;align=center;verticalAlign=middle;resizable=0;points=[];autosize=1;strokeColor=none;fillColor=none;" vertex="1" parent="1">
          <mxGeometry x="4015" y="382.42" width="90" height="30" as="geometry" />
        </mxCell>
        <mxCell id="CuS0chB3o9pkuQW-1lCh-7" style="edgeStyle=orthogonalEdgeStyle;rounded=0;orthogonalLoop=1;jettySize=auto;html=1;exitX=0.5;exitY=1;exitDx=0;exitDy=0;" edge="1" parent="1" source="CuS0chB3o9pkuQW-1lCh-1" target="CuS0chB3o9pkuQW-1lCh-6">
          <mxGeometry relative="1" as="geometry" />
        </mxCell>
        <mxCell id="CuS0chB3o9pkuQW-1lCh-1" value="&lt;div&gt;READ_START&lt;/div&gt;&lt;div&gt;&lt;br&gt;&lt;/div&gt;&lt;div&gt;ar_valid&lt;/div&gt;&lt;div&gt;r_ready&lt;br&gt;&lt;/div&gt;" style="ellipse;whiteSpace=wrap;html=1;" vertex="1" parent="1">
          <mxGeometry x="3180" y="352" width="170" height="102" as="geometry" />
        </mxCell>
        <mxCell id="CuS0chB3o9pkuQW-1lCh-5" value="r_req" style="text;html=1;align=center;verticalAlign=middle;resizable=0;points=[];autosize=1;strokeColor=none;fillColor=none;" vertex="1" parent="1">
          <mxGeometry x="3335" y="258" width="50" height="30" as="geometry" />
        </mxCell>
        <mxCell id="CuS0chB3o9pkuQW-1lCh-10" style="edgeStyle=orthogonalEdgeStyle;rounded=0;orthogonalLoop=1;jettySize=auto;html=1;exitX=1;exitY=0.5;exitDx=0;exitDy=0;curved=1;" edge="1" parent="1" source="CuS0chB3o9pkuQW-1lCh-6" target="1AtQalo0nMctWGIllylj-7">
          <mxGeometry relative="1" as="geometry" />
        </mxCell>
        <mxCell id="CuS0chB3o9pkuQW-1lCh-6" value="&lt;div&gt;R_WAIT_DATA&lt;/div&gt;&lt;div&gt;&lt;br&gt;&lt;/div&gt;&lt;div&gt;r_ready&lt;br&gt;&lt;/div&gt;" style="ellipse;whiteSpace=wrap;html=1;" vertex="1" parent="1">
          <mxGeometry x="3180" y="556" width="170" height="102" as="geometry" />
        </mxCell>
        <mxCell id="CuS0chB3o9pkuQW-1lCh-8" value="ar_ready" style="text;html=1;align=center;verticalAlign=middle;resizable=0;points=[];autosize=1;strokeColor=none;fillColor=none;" vertex="1" parent="1">
          <mxGeometry x="3260" y="484.42" width="70" height="30" as="geometry" />
        </mxCell>
        <mxCell id="CuS0chB3o9pkuQW-1lCh-11" value="r_valid /ack, ~r_ready" style="text;html=1;align=center;verticalAlign=middle;resizable=0;points=[];autosize=1;strokeColor=none;fillColor=none;" vertex="1" parent="1">
          <mxGeometry x="3400" y="506.42" width="140" height="30" as="geometry" />
        </mxCell>
      </root>
    </mxGraphModel>
  </diagram>
  <diagram id="NpASZR5QDtDJktb7SZUF" name="i-o">
    <mxGraphModel grid="1" page="1" gridSize="10" guides="1" tooltips="1" connect="1" arrows="1" fold="1" pageScale="1" pageWidth="1100" pageHeight="850" math="0" shadow="0">
      <root>
        <mxCell id="0" />
        <mxCell id="1" parent="0" />
        <mxCell id="vsZ_btFCeawxVtwOrlOw-1" value="&lt;b&gt;&lt;font style=&quot;font-size: 20px;&quot;&gt;Cache&lt;/font&gt;&lt;/b&gt;" style="rounded=0;whiteSpace=wrap;html=1;" vertex="1" parent="1">
          <mxGeometry x="490" y="90" width="170" height="330" as="geometry" />
        </mxCell>
        <mxCell id="vsZ_btFCeawxVtwOrlOw-2" value="&lt;b&gt;&lt;font style=&quot;font-size: 20px;&quot;&gt;Processor&lt;/font&gt;&lt;/b&gt;" style="rounded=0;whiteSpace=wrap;html=1;" vertex="1" parent="1">
          <mxGeometry x="200" y="115" width="120" height="240" as="geometry" />
        </mxCell>
        <mxCell id="vsZ_btFCeawxVtwOrlOw-3" value="&lt;div&gt;&lt;b&gt;&lt;font style=&quot;font-size: 20px;&quot;&gt;Main &lt;br&gt;&lt;/font&gt;&lt;/b&gt;&lt;/div&gt;&lt;div&gt;&lt;b&gt;&lt;font style=&quot;font-size: 20px;&quot;&gt;Memory&lt;br&gt;&lt;/font&gt;&lt;/b&gt;&lt;/div&gt;" style="rounded=0;whiteSpace=wrap;html=1;" vertex="1" parent="1">
          <mxGeometry x="830" y="65" width="190" height="395" as="geometry" />
        </mxCell>
        <mxCell id="vsZ_btFCeawxVtwOrlOw-5" value="" style="endArrow=classic;html=1;rounded=0;" edge="1" parent="1">
          <mxGeometry relative="1" as="geometry">
            <mxPoint x="320" y="160" as="sourcePoint" />
            <mxPoint x="487" y="160" as="targetPoint" />
          </mxGeometry>
        </mxCell>
        <mxCell id="vsZ_btFCeawxVtwOrlOw-6" value="c_addr_in" style="edgeLabel;resizable=0;html=1;;align=center;verticalAlign=middle;" connectable="0" vertex="1" parent="vsZ_btFCeawxVtwOrlOw-5">
          <mxGeometry relative="1" as="geometry" />
        </mxCell>
        <mxCell id="vsZ_btFCeawxVtwOrlOw-7" value="" style="endArrow=classic;html=1;rounded=0;entryX=-0.017;entryY=0.242;entryDx=0;entryDy=0;entryPerimeter=0;" edge="1" parent="1">
          <mxGeometry relative="1" as="geometry">
            <mxPoint x="322.89" y="190" as="sourcePoint" />
            <mxPoint x="489.89" y="190" as="targetPoint" />
          </mxGeometry>
        </mxCell>
        <mxCell id="vsZ_btFCeawxVtwOrlOw-8" value="c_data_in" style="edgeLabel;resizable=0;html=1;;align=center;verticalAlign=middle;" connectable="0" vertex="1" parent="vsZ_btFCeawxVtwOrlOw-7">
          <mxGeometry relative="1" as="geometry" />
        </mxCell>
        <mxCell id="vsZ_btFCeawxVtwOrlOw-9" value="" style="endArrow=classic;html=1;rounded=0;entryX=-0.017;entryY=0.242;entryDx=0;entryDy=0;entryPerimeter=0;" edge="1" parent="1">
          <mxGeometry relative="1" as="geometry">
            <mxPoint x="487" y="220" as="sourcePoint" />
            <mxPoint x="320" y="220" as="targetPoint" />
          </mxGeometry>
        </mxCell>
        <mxCell id="vsZ_btFCeawxVtwOrlOw-10" value="c_data_out" style="edgeLabel;resizable=0;html=1;;align=center;verticalAlign=middle;" connectable="0" vertex="1" parent="vsZ_btFCeawxVtwOrlOw-9">
          <mxGeometry relative="1" as="geometry" />
        </mxCell>
        <mxCell id="vsZ_btFCeawxVtwOrlOw-12" value="" style="endArrow=classic;html=1;rounded=0;entryX=-0.017;entryY=0.242;entryDx=0;entryDy=0;entryPerimeter=0;" edge="1" parent="1">
          <mxGeometry relative="1" as="geometry">
            <mxPoint x="322.89" y="260" as="sourcePoint" />
            <mxPoint x="489.89" y="260" as="targetPoint" />
          </mxGeometry>
        </mxCell>
        <mxCell id="vsZ_btFCeawxVtwOrlOw-13" value="operation_req" style="edgeLabel;resizable=0;html=1;;align=center;verticalAlign=middle;" connectable="0" vertex="1" parent="vsZ_btFCeawxVtwOrlOw-12">
          <mxGeometry relative="1" as="geometry" />
        </mxCell>
        <mxCell id="vsZ_btFCeawxVtwOrlOw-14" value="" style="endArrow=classic;html=1;rounded=0;entryX=-0.017;entryY=0.242;entryDx=0;entryDy=0;entryPerimeter=0;" edge="1" parent="1">
          <mxGeometry relative="1" as="geometry">
            <mxPoint x="487" y="290" as="sourcePoint" />
            <mxPoint x="320" y="290" as="targetPoint" />
          </mxGeometry>
        </mxCell>
        <mxCell id="vsZ_btFCeawxVtwOrlOw-15" value="operation_result" style="edgeLabel;resizable=0;html=1;;align=center;verticalAlign=middle;" connectable="0" vertex="1" parent="vsZ_btFCeawxVtwOrlOw-14">
          <mxGeometry relative="1" as="geometry" />
        </mxCell>
        <mxCell id="vsZ_btFCeawxVtwOrlOw-16" value="" style="triangle;whiteSpace=wrap;html=1;" vertex="1" parent="1">
          <mxGeometry x="200" y="290" width="40" height="50" as="geometry" />
        </mxCell>
        <mxCell id="vsZ_btFCeawxVtwOrlOw-17" value="" style="triangle;whiteSpace=wrap;html=1;" vertex="1" parent="1">
          <mxGeometry x="490" y="310" width="40" height="50" as="geometry" />
        </mxCell>
        <mxCell id="vsZ_btFCeawxVtwOrlOw-18" value="" style="triangle;whiteSpace=wrap;html=1;" vertex="1" parent="1">
          <mxGeometry x="830" y="410" width="40" height="50" as="geometry" />
        </mxCell>
        <mxCell id="vsZ_btFCeawxVtwOrlOw-19" value="&lt;div align=&quot;left&quot;&gt;Operation_req----&amp;gt;include&lt;/div&gt;&lt;div align=&quot;left&quot;&gt;&lt;span style=&quot;white-space: pre;&quot;&gt;&#x9;&lt;/span&gt;read,&lt;/div&gt;&lt;div align=&quot;left&quot;&gt;&lt;span style=&quot;white-space: pre;&quot;&gt;&#x9;&lt;/span&gt;write,&lt;/div&gt;&lt;div align=&quot;left&quot;&gt;&lt;span style=&quot;white-space: pre;&quot;&gt;&#x9;&lt;/span&gt;flash&lt;br&gt;&lt;/div&gt;" style="text;html=1;align=left;verticalAlign=middle;resizable=0;points=[];autosize=1;strokeColor=none;fillColor=none;" vertex="1" parent="1">
          <mxGeometry x="190" y="368" width="160" height="70" as="geometry" />
        </mxCell>
        <mxCell id="vsZ_btFCeawxVtwOrlOw-20" value="&lt;div align=&quot;left&quot;&gt;Operation_result----&amp;gt;include&lt;/div&gt;&lt;div align=&quot;left&quot;&gt;&lt;span style=&quot;white-space: pre;&quot;&gt;&#x9;cache_hit&lt;/span&gt;,&lt;/div&gt;&lt;div align=&quot;left&quot;&gt;&lt;span style=&quot;white-space: pre;&quot;&gt;&#x9;cahe_miss&lt;/span&gt;,&lt;/div&gt;&lt;div align=&quot;left&quot;&gt;&lt;span style=&quot;white-space: pre;&quot;&gt;&#x9;&lt;/span&gt;flash_done,&lt;br&gt;&lt;span style=&quot;white-space: pre;&quot;&gt;&#x9;&lt;/span&gt;c_ready&lt;br&gt;&lt;/div&gt;" style="text;html=1;align=left;verticalAlign=middle;resizable=0;points=[];autosize=1;strokeColor=none;fillColor=none;" vertex="1" parent="1">
          <mxGeometry x="190" y="438" width="170" height="90" as="geometry" />
        </mxCell>
        <mxCell id="qmO_saQ9gAC04FWyoIDI-1" value="" style="shape=image;verticalLabelPosition=bottom;labelBackgroundColor=default;verticalAlign=top;aspect=fixed;imageAspect=0;image=data:image/png,iVBORw0KGgoAAAANSUhEUgAAA2cAAAD6CAYAAAAlWz9lAAAABHNCSVQICAgIfAhkiAAAABl0RVh0U29mdHdhcmUAZ25vbWUtc2NyZWVuc2hvdO8Dvz4AAAAqdEVYdENyZWF0aW9uIFRpbWUARnJpIDE2IEF1ZyAyMDI0IDExOjMxOjQ4IFBLVI+eVf4AACAASURBVHic7N13dBRVG8Dh3+ymh/RA6L2F0EMHP0AEURQQBBVBAUEEVERRFBCxi2IH6UgRBJQSSiAEEpASJLRAQu8tgfSebJn5/tgQQhIkQSNLfJ9zOGfJzN69M/vOnfvO3DuraJqmIYQQQgghhBDivtLd7woIIYQQQgghhJDkTAghhBBCCCGsgiRnQgghhBBCCGEFJDkTQgghhBBCCCsgyZkQQgghhBBCWAFJzoQQQgghhBDCCkhyJoQQQgghhBBWQJIzIYQQQgghhLACkpwJIYQQQgghhBWwyuRs4MCBKIqCoih07979flenWB7kugshhBBCCCHunxJPzjRNY9GiRXTp0oWyZctia2uLh4cHtWvXpnv37kyePJnIyMiSroYQQgghhBBCWDWbkixc0zT69evHqlWrbvt7UlISSUlJnD17lqCgIHQ6HQ0bNsxdXrNmTfz9/QGoW7duSVZRCCGEEEIIIaxCiSZn69atuy0x8/Lywt/fH71ez8WLFzl37hxZWVkF3vfRRx/x0UcflWTVhBBCCCGEEMKqlOiwxpCQkNzXvr6+XL58maCgIAIDA4mKiiI+Pp7ff/+dNm3a3Pa+u83b2rZtG+3bt8fJyYmyZcsyePBgrl+/TqdOnXLfN3DgwNz1z5w5k/t3RVHYu3cvS5cuxd/fH0dHR3x8fBg5ciRpaWm3fc727dsZOHAgjRs3xsfHB3t7e5ycnKhTpw5Dhw4t9nDM8+fPM3z4cGrVqoWDgwMODg5UrFiRdu3a8frrr3P27NlilSeEEEIIIYQoPUr0zplOdyv3c3R0xNbW9rblTk5O9O3bt1hlrl69mv79+2M2mwHIzMxk0aJF/PHHHzg5ORWpjMmTJxMcHJz7/6ysLGbNmsW1a9cICAjI/fv27dtZunRpgfefOXOGM2fOsHTpUrZs2ULHjh3v+pmxsbG0bt2a2NjY2/4eHR1NdHQ0YWFhPPzww9SqVatI21Cw/DhGjXkTb28vunTqyNN9et9TOfn1nRzFqN4V6dLcgz1RKXyy+AKBUxsX6b2btwSzbsMmYuPi+OKTD6lVs8Y/UichhBBCCCFKoxJNztq2bct3330HwMGDB6lRowbdunXD39+fli1b0qxZM2xsil6FtLQ0hg8fnpuY2dvbM2TIEOzs7Fi4cCHnz58vUjnBwcHUqVOH1q1bs2XLFm7cuAFYhmGePn2aOnXqAGBjY0OXLl3o1q0blSpVwsXFhUuXLvHjjz9y6tQpDAYDb775JgcOHLjrZ65atSo3MfP19WX8+PG4u7tz5coVIiMjWbduXZH3w1/54esvCyTB/5SaFRwY2atS7v8HfXac/p3K8WQ7r0LX796tK927dWXAi0NLpD5CCCGEEEKUJiWanPXr14/FixezceNGAK5cucKCBQtYsGABAJ6engwdOpQpU6bg7Ox81/LWrFlDQkJC7v8XL15M//79AejTpw+dOnUqUr38/f3ZuXMnjo6OHDp0iObNm+cu279/f25yNmHCBCZNmpS7LDs7G6PRSM2aNenRowdgSTrj4+Px8io8QbkpPT0993WHDh144YUXUBQl928//fQT2dnZRar//VLe0+6OiZgQQgghhBDi7ynROWeKohAQEMC8efNo165dgbtkCQkJTJs2jT59+hSpvLx3qJydnXn66adz/9+xY0eqV69epHJGjRqFo6MjAM2aNUOv1+cuS0xMzH2dkZHBhx9+SNOmTXPniLm4uOQmZjddu3btrp/ZokWL3Ndz587F29ub//3vf4wYMYIFCxaQkJCAg4NDkep/rzQNftseS78pUXQcc5hBnx3n4KnU3OVGk8a0FZfpOi6Cx8YfYeHmmNvevycqhcfHHwHg65WXOXs1kx9XX6H3pEjGzz5XonUXQgghhBCitCvx3znT6/W89NJL7N69m6SkJLZv385HH31E1apVc9fZsmULYWFhdy0rKSkp93W5cuVum9MGUL58+SLVKf+8Lnt7+9zXqqoCYDKZeOSRR5gyZQoRERF/eVerKHe8OnbsyLhx43LrnJCQwM6dO5kzZw4vvfQS1atXZ8eOHUWq/71aEXqDpVuv8+mwmoR+15RhPSowdsZZricaAJi3MZrwE6n8MtGXgE8acj3RwJXYwrftrf5VqFXJkdf6VGbtJw2ZOqJmidZdCCGEEEKI0q7Ek7O8nJ2d6dixI++//z6bNm26bdmJEyfu+n53d/fc17GxsWiadtvymJiY/G8pVN5kDLhteOFNISEh/Pnnn7n//+GHH0hOTkbTNPbs2VOkz8nvq6++4uLFi8yfP58333yTHj164OLiAljm040dO/aeyi2q5SE3ePnJitSt7IhOgY5N3GlSy5nQQ5akd31YPC/1qICPhx12tjpe71MZ/b8aIUIIIYQQQvx3leics6+//poLFy7wwgsv0LJly9uW5U/GijLnLO/QwLS0NNauXctTTz0FQGhoKBcuXPj7lc6RtyydTsfIkSNzh2XmTyyLIjk5GWdnZypXrszQobcekBESEkKXLl0AOHbs2N+r9F/QNLgWb2BmwFXmb4zO/XtmtpkG1Z3RNIhLMlCl7K3E1dFeh5dbyTxcRAghhBBCCHG7Ek3OUlNTmT59OtOnT8fDwwM/Pz/c3NyIiYnh4MGDuevZ2dnxv//9767l9e7dG09Pz9yHggwYMIDnn38eGxubQh95/3dUqVIl97WqqgwbNoxevXoRFhbGt99+W+zyNm3axGuvvUbfvn3x8/OjUqVKmEwm5s+fn7uOt7f3P1L3wiiK5YEeY/pWoktzj0LX8Xa3Iz7FmPt/s6qRlGb6izIL3nEUQgghhBBC3JsSTc7ydt4TExPZtWtXoet98cUXRZovVqZMGebOnUu/fv1QVZWsrKzc5KZGjRpUq1aNqKgogALz0Yqra9euNGnShIiICAAWLVrEokWLAHjsscfu6e5ZXFwcs2fPvuPy9957794qW0TPPlyOGWuvUcnbnnpVnDCYVCLPp1PB046K3vY80daLZVuv08rXFTsbhRWhsWRmq3csz9vNlovXs0q0zkIIIYQQQvxXlOiMogkTJrB161bGjh1LmzZtqFatGg4ODtjb21OtWjWeeeYZtm/fXqy5Vn369CEoKIh27drh4OCAl5cXL7zwAnv27MFkunWXJ+/8tHthY2NDSEgII0eOpEqVKtjb29OgQQOmT5/Op59+Wuzy2rRpw8SJE3nkkUeoVq0azs7O2NjYUL58eXr06MH69esZPXr036rz3Tz3cDkGPlKOKQsv0OmNwzw5IZIlW65jzsm/hvWoQPUKjgz85BijvztNWqaZqj53foLki4/6sP1wEp3HHmbUd6dLtO5CCCGEEEKUdoqW/6kaVi4zMzP3Mfh5RURE4O/vn/sD1YsWLeKFF174t6t338THJ/D2e5NwcXGh0/868FSvJ+93ldiyNYSNm4JITUtj8oTxVK9W9e5vEkIIIYQQ4j/qgUvOfvnlF7744gueffZZ6tati62tLVFRUfzwww/ExsYCULFiRU6dOlWkh4wIIYQQQgghhDUo0TlnJSUqKor333+/0GVly5Zl7dq1kpgJIYQQQgghHij6KVOmTLnflSgOBwcHsrOzyczMxGQyYTQacXNzo2nTpgwfPpyFCxdSp06d+11NIYQQQgghhCiWB25YoxBCCCGEEEKURiX6tEYhhBBCCCGEEEUjyZkQQgghhBBCWAFJzoQQQgghhBDCCkhyJoQQQgghhBBWQJIzIYQQQgghhLACkpwJIYQQQgghhBWQ5EwIIYQQQgghrIAkZ0IIIYQQQghhBSQ5E0IIIYQQQggrIMmZEEIIIYQQQlgBSc6EEEIIIYQQwgpIciaEEEIIIYQQVkCSMyGEEEIIIYSwApKcCSGEEEIIIYQVkORMCCGEEEIIIayAJGdCCCGEEEIIYQUkORNCCCGEEEIIKyDJmRBCCCGEEEJYAUnOhBBCCCGEEMIKSHImhBBCCCGEEFbApqQKXrJyXUkVLYQQQgghhBAPhEH9exZ53RJLzgC6d+lYksULUWI2b9sh8StKlMSYKO0kxsWDRmJWlITN23YUa30Z1iiEEEIIIYQQVkCSMyGEEEIIIYSwApKcCSGEEEIIIYQVkORMCCGEEEIIIayAJGdCCCGEEEIIYQUkORNCCCGEEEIIKyDJmRBCCCGEEEJYAUnOhBBCCCGEEMIKPNjJmekQ3/RsQauWzWnTZRI7svIsOvglPVs3tyzrNY3DplvLMrdPpEur5rRq2YK+P0RivuvnHGDakzmf0+trInLK0pIOs3bebObOmc3P286j/tPb97epXPllMO1bNqdVyza8vTnjL9c2R33P020s++XRT8Mw/ku1FDn+o/H89+NO5WLoz8ydM5u581ZxKEErgVo+gP6j8ST+g9SrLBvWmlYtm9/616oF7R7qxBPPDGfSzCDOZtzHdsG4i48fsRwjbftP5/hdD6q/p3htaiqBb7ax7LN2Q/n1mhyp90VaIOPaN78thlu3bkmHzt14eug4vlsbSfJ9/GryxtQnn3x0T2UcP34sd9vutYzQ0BDLuX7ObJKSku6pjAfBg52c2dSlsZ8jCqCmR3HkzM0WT+Xq0UjicgJZvXGUyOibUW3idMRR0jVAKYNf41ro7/HjtaRDrJ0/m7lz57Aw5Dymu79FiDuTeL5HJi6GLmDe3NnMnb+KQ4mSnAEST+K/TVMxZaVw49wBtiyYyMhJ64iWvEM8QDTVjCEtjktHQ1j22UjeWnLmP9+OhoaEMHfubObOLd3Jmc39rsDf44hf47rYbD2E0XyNo5E3UBtWQKelEnXkLGZFQQE081mORKVDFRdQrxN59DoqoNjWo7Gf/V9+gmo0otnUps/kb2mTDYp9JWrea2+llFGNRjRb23vuvIn8JJ7FP+k/Gk+qESO22D7Ylx7FvdJ58+jE7xhU10Ts4WV8830wl00qSWGr2Hr1SQZVkcD4e0wYTTbYPuC9R2umOLRjzKzX8NcSORnwHdMCTpGlpRMZsIETz79BQ9n3pd4D/hXrKNuwMeV1h7ismjgdEUnWsxVwMp7gyPFsNF112rQ0sG9vNMeOnMDYvSW2GZEcOW259qCr1JiGnjrAQOjEzry7JRPNpgGv/DASVs9kzd4zJPi8yM+LWrHuo7GsjFHRVXye2avewHZ2P15aeCFnyI9G5pZxdNgCoKfa4IUsH+2HHo3UU5tYsvB3th86w7UkAzZuFanX8lGeG/4inao6/OXWmc+s4fOf1nPs7GVik1JJzwY7t3JU9+vAky8O46kmnnlufaokHVnO99//yh8nY9E86tK+36s8faeyb4Sx8JsfWRN2jhRbH3w7D+TVhwtb8y77ZulI6uqLup1GovcsZvbiTYSfukJiBti7euDlU5VaTXszeuxjVNWBlnqC9XNmsWrnUS7eSMFoUwZXD28qVq9PpxffZmBzV5RiRMmDo3THMxQj7rQE9s6byi87T3MhJp7UtAyMemc8K9XDv8uzvDSoM1UdsAwFeXQSfxhy3mc6waxnWzALwK4jHwZ9S7eY4hxHpUlpjieN+NWj6PX5nxiwo807c+gVM5/5gQe4kNKAN1bPor+PDjUhgrULF7N+VwTnr6dgsvOkSoP29HhhOM+0Lo9tTmlZF4JZMHsZIYfOEJOUjeLkhodXearVbcczb4ygQ1kd6tl5vDjwJ06aFJy7T+brxkeZuzyEqJgsHCs1o/vQcYzsXoNbtVZJPraeRYvWsOPwWa6nGLFx9aFmk470fnEoT/i558Td7ft3+Dcj0G+YS0DYKeLMrtRo/QxvvDuEFp45UarGc3jlTOav28Pxy3Gkq/aUcfOgbKWaNOj+CuP71s/Zrr9/vD6YbHGvUpe69W2oW9eD81tC+OGoCdRYYm6okJucFXH/FLUtuslwiW2zv2bexv1cznCkUtPHGPpqY4p8P7+Yn1f0czmgpXN6/Y98u2gLkTEGXKq3pueIlylfyKq3x/vHTG91hJ8WB3P0cgbtPg7li64O/+jxVdT+wX+CzpWKdepRzw7qVn2e7YFT2GXQ0GKjuXHb3d9MLm7/hZ9XBrP/xGUSs3SUKV+bZp37M3TI49Qtk9NTKsmYuoPY2Bt8Pe0r9u4NQ29jw8MPd6Fbt0cLXXfb1mB++20lly5dJDU1FVVV8fb2pmXLVrw84hXKlfPBYDDQoX2b297Xv1+f3Ne7du9FURQ+mDyJM2fPEB8XR3p6Oo6OjtSqVZs+ffryeI8nircR99EDnpyBTe3G+JVRuJyikRkVwSlTVxpfPkJUoorOvRl9emZx7M+rJEQe4arakkonDxOVpQE6XBs2pkb+q7zqZVZOeovEBAMaoPe515ppJO76glfe/Z3z2RqKjRPuHmXITrjIoc2zidizn9EzpzOo7p2vTJtjDhG6K4J0Wxc8Pb3xNiQRl3iFYzuXczz8MAlzFjLc1w4Aw6mFvPXaDI7eHFcfE0nQ9DEc9HYoMGdES9/Pj6+N5ddzhpwTxmUOrZ3K67u9+cszSKH7pujbqZ5ZxPi3Z3LCoKHYlsG7nAtaejxXTl7nyo0q9Hn9MaoqyYR++RqfbY5HVXQ4upfD2y6b5OvnOHrtEvq2I3m+1CZnpTueixV3Wiqn94Sy74SGk7s37t6OpMfHEXs2nE1nDxB+7lMWf/oo3kWoeXGOo9KmNMfTLSZOzBtLeGIiZg1u9gjV6EAmvTyFbTEmNMUWZ08PHNPjOLdvDT/u30nExAV80bMy+uwDzHjjPVZeVUFnh4t3WZxMKcRfPEbM5UwaDHyZDmVv/8TM7V8yZpsN7j5O2KrJJJ4PY/kHrxCrW8In3cqhQyVuxye8MiGAS4ZbwW1IuExk6C9E7f6DI5/OY0In79svDJjPsnT8WLLM9tipRoymOE6FzuQ9rQLLv3wcL0Uleu1kxn4TRrqmYOPkSTkPPRmJ1zh7+AqX3B/lzb71sf1H9++DTIdOl3O2UFxxd7155ijG/ilqW6QDtHi2fzaSSYHRllgkk/Nhy/jgRDCemUVMz4rxecU7l6tcDZjAq5/vJDGng591KpQF449S1vWvB8tl//ktb2yJz5nzZGkr/+njq0j9g/9KcpaHotPnthGKizu3QjidiDkjeWNBJOmqgs7eFS9XE0lXjhKyOJKwvWf4dtbrNHdRSjCmCpeZmckrI17m8uVLuX8LWLuGPbt3F7p+ZFQkBw8ewNbWFk9PT1JTU4mOjmbdugDCw/exYuUqdLq7f/lGo5GtW4MBcHNzw8vLi7i4OI4cieDIkQjSMzLo169/0TbiPnvwQ93ej8b1bC3zKmKPcPSameSoI1wwK9g1aEyTpk2pZ6tgPn+EyBQzV48eJV4FFBvqNW5AgS6ZmkayfXve+GkNgUGBLJn8GBUK7CU9DUavZvdvr9HABkDBsds0doUfZF94OL+N9kNvOMiCr1ZxPltDV7EHH/++jaDArWxa+iatXXSoKQeZP31jvqsgt7Op1oMJs9cS/Md2AtdvYF3QdgKm9aGKHrSsU6xavR8DgJbM9gWLicrQQHGg3rPfsmrrdtb9NISq2an5JuKrxGyYw6rzBjR0uDR/hZnrtxO8+ht6eqWQ8Vdj8gvbN6aibqdGcuQhzhk0sGnAiCXb2LhuI4HbdhO8ah4fj+xERT1gPsfhiERUdLh3+4INQYEEbNhG6I7NLPl2Ik/7lSm1iRlQiuO5mHGnuOM/9GuWBO4idMsmAtZtJjh4Oa+2cEZBJX7HCrbEqFDmcabt3su0x5wtcWFTn1eW72df+EH27f6Wx8oU4zgqjUptPN1WKZLTPXhs4kLWBgWzZv5Y2rmmsv2nbwiJMYFdHZ79fgPBm4MI2riAwQ3sQI1j5/RZ7EzVUK8dJuK6iqbY0Wr8erZs3Mi6oJ1sD1rJjx+8SCvv/C2OhkZNBs4JZN2aQNbPf5mGDgqaGkvIrGUcMwHZB/j563VcMmgodjV56vM1hOzeye9f9KG6rYJmuMSGb+ZxKDt/0UZsGr7Ooi27CN3wJY+X0wEqKXu3si8NwMSpQ0fI0EBX+Rl+3BxsOTZ2/MHaBdN48/Haltz0H92/DxqVrOR44mOvcWLbYjYcNwEK9vW60fnmmNvi7J+itkWA+dRKZm+2JGa6sh0ZtzCIbUEr+KC9A0nGIvZsi/x5xWxTs8NZMm83iSooNlXp8dFKgkKCWDC2IVrSXwWChik5m8r9v2Dx+mACV81laKOsf/j4KmL/4L9CyyY1IZ64mDPsXvQ7B00aKDZU7vooDW9efDq7jGmLokhXdXg+NJ6lW0LYuHkbv03pSlmdRubpZXz32zlL/6+kYuoO1gWszU3MGjZqxJq161mx8ndcXFwKXb9D+w78svRXdu3ey/oNm9gWsoPnnhsAQHR0NKGhIdjZ2bEv/CDduz+e+76Vv622nOvDD2JnZ4etrS1TpnxE6PadBG8NZWNgEL+vWpv7ub8u++Vevo374oG/c4bOi4aNKqMLP4fZfJYjUQnUjDiOUdNTt1Ej3DwNNK6iI/z8MY4cT0A5cs5yJ0lXnUZ+HgU7+ooTHUa+z7Mt3VEAb0/AFF/saplP7SLsugoo6I1nWPvpGAIAyMLSjmtkRvzJ0ew+dHG8w6ZV8adZ2g42zV/J2egEUjONqMZosjQAldRLl0hQ21HefIz9h9Is80Qc2zNoREeqlAFaDGZot9Uc+v1GngQtgyP7IzFoln3X9aXB+Je3A/7H8Bc6sG7iVsvDAApTyL4xRwYUeTvbe5fFWQcG8ylWTnmHK01qUbVqTeo09KdDLx8cFQAvynnrUaKNJO/8gXcm/kn9GlWpVrM+Tf0fp5v7gx+yf6nUxnMx405xw9e/GuHbfmXG8YvEJmdgMJtJjsWSaJgvc+myGSre/fpSkY+jB/9SVUGlNp5u20i8H3uTt3s1xhHA0wsMu1gQlmRpE/XpHFnyPmOWWMpNS7BslZq8n30nTHSsXY6ydgonMowcWvA2E441pHrVatSo24QWXZ7Eq5CbqrZNnqKfn+WCgJNvH3o0+pnIcANq9AEOXFGpn7qHvTnbZ9t8AC93qUYZBco8PJLn1m7gi70G1Ot72XPKhH+jvJviycMvPEs9ZwWcW9Gqng2BNwxopnjiklRw0eNVzhsd6ajXAvlyfAr+dapTtXptfJu1onejMuj+8f37gFGvE/D2YznbCyj2VGj1HOMmvUjtnA5+8fZPUdsiuHFoP5fMAHpq9BpBX7+y6CnLo688x7qgqRwoyqNoi9z2ZRerTTWf28+hnKcA2TR+llcerY2HDjz6jqDXmp3MO3PnR0jqqz3DO2O6Ud8GwAtvwy6W/8PHl2OR+gf/DVpmKB8/GZr7f8XWi8a9xjJpVPOcYdMqV/fu5pxRAxS0q1v5ZlyIZWVTbM5FeyNn9x8gfnAtyupKJqbuZP/+8NzXw4ePoFKlSgC8OHgIH0yeVGD9Zs392b17F5s2BRIXF4fJaCQuLi53+cWLF4q032xtbfFv0ZK1a1Zz/sJ5MtLTUVUVFEvwXLlyBbPZjF5v/Zl+Kejp6qnRuCGuunMkqtkcOxhI1ahkVJ03jRpVRqfXaNzQHd3ZJCIPBmI+ZrlVq3NvSONqhfTG9JWpV+fvD5szJyWSlNPIG2NPsj+24DqaKYXkdI3CW51sTiwezaszDpJyh6sVmiHbchCaUkhOs6ykeFSgfO7YYRt8KpRDR57kTE0jOcVsuTut86Giz60QcChfAQ+FOx98heyb4mynQ9vhvNXzFF9tOEnCiR1sOLHDsoKiw63hEL74bhT+rlXoNWYE+9+fR1j0FQ4EX+FATjmKfWW6vDudj5+oWoofQlJK47mYcafGhfDJ8AlsvGIofCSFZiSrSFeii3EclUqlNJ5uY0P1enXIO+1Hy0okKdPyhWuZ1zgWfq2QD0ghOU1D8ejGyNd3cfnHbVy8foSQgCM5KyjYlm3D6G+/YUC9vMP/FPRuHtyczoHihrtbzsNV1GSSUlXU5ASSNMu6Dt7lbg1FUlwp5+0IGEBLJjH/s7F1ZamQe2zYYntz0g4qak6nv8GAcQw4+iErDsdxPiyQ82E5ReucqfXUR3z/Tmfc/tH9+6AzkhJ7g6SsW/u6OPGnpocWsS3SSElKyTnX6vGpUD53aJLOowI+DgoUoc0qcttX3DY1JYmUnJi0L18Bj9zKlaeCjx7umJwp2NaqR808vcWSOL6K1j8o7bF6B+Z04m4kkGG2JGOgkpyQlDNlRSXx3H7CzxV8m5aSTArgVUIxdSd5n6J4MzEDqFixYsGP1jTeemssu3ftvGN52dn5hxgU7uDBA4x5/dW/XD87OxsnJ6cilXc/lYLkDOx8m1LfZj1hBpX43SsJSlBRHBrQuJ4toOHbtAF263ZxPnAlyYmWq2V2DZpQ37aw0v6ZpxDp3T1wUyBF0+Ha/SvWfdyZYoWDYR8rFh8mRQWdRwfGfD+FvvU8sU0JYGyPD9mTtzdp44pbGR0kqJCWTGruOSjvySKHrgxurnoUjJaORIrKzdGtanIyaX9ZqYL7pnjbWYluE5fRadQFThw/zYVLFzi1Zx1r914lOXIJC7b0o9nT5XBpMpTv1j5LzKkoTp6/wKVzhwleHcSJlCuEzFxG3+7v4l8qIrdwpTKeixV3Klc3LWLzFQOaYkOtftOYNro9FZ00jnz3FCOWXi36b2YV5zgqpUplPOWvVb5KKQ7uuDvqwKCiqziAWb+Po2mh22NRu+9UlveI5dzx45y9eImLUaGsXX+YuNi9zFu0k96fPZIn+dMwRV/hhgqVdYAaw7WYmx0aN9xddOjwxF2BVE0jK+4GKRp4KYCWwo3YzJxKuuHhrofbZgXr0OX2P5WbF3xvo/Nqz2tzAhl8+QTHTp/n0qUz7AtcxR/n0zkTMIeApzsy5B/evw8UXQWembWWMbWvsXveRD749Rjp5zcxdWJ5avz8Kg3tixN/KpeXFLUtUnB1d7XcuUQlJTkFDcsdZi0rmZQitTXFaPuKeS7XU7aU/gAAIABJREFUuVrmK8UDhpRkMjWwy4nJ5Dtducqht7W97YJMSRxfTvqi9Q9K4wCH/BSn7kwN/phW8Qf49eN3mRuexLWd3/HetzX4ZUJ7XBQdbp7u6LiEqtjRZsJGvu/tdYeLZiqXSyim7sTd3T33dVJSElWrVst9nd+xY1G5iVmDBn58MfUrypcvT2hoCOPfGVdw3/xFfr540cLcxGzS+x/Qvftj2NnZMeC5/pw5c6aItbcOpSLOFfeGNK5uuZeixkZzw6yhr9WEBs4ACq5+Taih1zDfiCZWhZtXk13+7kUYB0ccFAAN47XzXMq6dUlBX6c9bX0s8wVS/1jA/L03cn4IUsOQcIbdK6Yy9tsdd75ib0glNWcCseLtR4u6ntjpTFwL2UZk/rm7Ng1o0cwynEVN3c3aoGuYADVhDwGhV/J1ZJ1o3KKhpVFWrxIasIcEFTBdY0vA7jveXbiT4myn+dxWlm34k2u6SjRq15Wezw5jxHOtczotKqkpaaAlcWDtckJOpOJatyUdH+vHoBGjeKyOjeUkl5aSJ/ksnUplPBcr7jRSU1JzrvA5UL1Zcyo56SE1gpA9MYVc+VOwd3SwnJjUOC5eSLrV3S3OcVRKlc54ugvbxrRv7WZpE2MCmbv0CEk5QaFmXudYyCI+eXu25ce3s6MIXLqJI/GO1Gj2Px7tPZBhI/vSyNkyF8aQmkJWvqAzRS3np4BjxKbEciJgBr8fsxSuq9AC/8o6bOq2y9k+DeOBX5i19TwpWSlc2DqDXw8aLXcnfdrQrk5xxwCoRO9ayepd5zD4NKD1w0/Sb/BIhnaubBlNoKaQkqqW/P61ego2LtXo+OoUXvS1Q0HDcGY5M9ZazodF3z/FaYt0lGvegqp6ADOnNq3haJoGZHN+3XoOGopwy6FYn1e8c7m+ZguaeefE5MH1rDuXDWikR65h88li/ip2CRxfReof/KfocarQiiHvv0qrMgpoKjEbf2DZSSOgo2LrdtS0VUAzcmDpDEKuZOXEh5GUi/sI+GEcn2+4gVqCMXUnLVq0zH3928oVqKqKyWRi9arfC6yblZmZ+7pevXqUL18eTdPYsiWo0LJd3dxyX589cxpNu7UFmXnKateuPXZ2dpw6dZLz588XreJWpHTcf9BVpVFDD3SnYnMSEcsjpG9OVNdVbkwjLx3Hr+dEls6Lhg0r/+3MVOfdAN/yOg5eVjFFzmDAQzNAceXxb7YwpYM/Q97uzb5313AhI4olr/dglbsXzqSTlJSBUdOw69L8zg+/cWpKu2ZO7PwzHfOZhbw1/Dj1HK8SERlNgWHrihudhr6AX9gMjmYk8Mcn/ei50Ad9/BWSzLYoZOf5HB3ln3iZvquP8Os5A1fXvUXfvVXwMl/nWqqGjQJFOofcZF/07VSv72bhxwF8p+mwdXLH3clMSnwK2SoottVo27oKOu0GJzd8y3cRX6Lo7Cnj6YZtZgKJ6SY0dLi36pA7IbbUKo3xXKy401OzTRvKL7nIVXM6oZ8P4bWgiqSfOMi55Px3GgBsqO3ni8OaXWSocWx69xE2ATYNx7B8bteiH0elVamMp7tQ3Og0aiydIz4i5HoS4TOG8PhCTzwcTaQlppBp1tCV7Ud3DTBeJOSnSfzxnYLOrgzu7vYYk+JJM2igONGgrT/utyWqCnovlUNTB9Hjs1s1VHRleXjEc5aHoNj4M/itnoRNCOCy4QIBE/remgMFKHZVeeLNYTQr9sMSNRIjlvPVwi+Yqtjg4OpBGV0aCUmZmFHQlWtL27o2xWqXSzXb2vQf+SRrx6wiWs3g0OJ5hD3+Ae1dirp/itcW6ev05+VH1zNhUwyG04sZ1SuYSq6ZXLuRiaJTyHmE418ozucV81xu35JBw9oR8vkukjIOMP2Fx1lT0ZHkqwkYi3uwl8DxZS5K/6CY1SwNdBWeYOQzKziw4DRG41lWztlEn2k9KVt7AOMG7uSNhVFkXFjLhL6bcPFywyYziaR0A6pmi/87b1OiMXUHPXv1ZuXKFVy+fImgoM2Eh4djNpvIysoqsK5vAz88Pb1ISIgnIGAtN2Jjib1x47YnPebVsGEjVvArAO+9Nx6A+r6+LF68lA4PPcShQwcBeHn4UGrVqk14eDi2traYzcW8AHGflZJYt6V+kwbY547rz/nx1dzF9Wns55h7y/fWkJ6/yaYRg99/jUd8fXC21eW73arg9dAE5i/4iMGP+lPD2xFTaiJpqhM+tZvRpf9o3n2+GXesha4ivadM45VH6lPWUSX+TBQX8Wf016/RopCU2q7uYL7+4U0eb1QRZxsTGZm21O37MV+8WK9ABq44t+C1H75heJf6lHXUYUzPokyzwUyd0vceHopQ9O3UV3mIp3p0pGmtCrjqM0mMT4MyPtRp3YtXv53OcD9bUFxp+GgfurZuQBVvJ9SUeJKN9nhWbczDg6Yw/YPHKPDwtFKnFMYzxYs7B//X+Pr9frSo4opNxmWOnUygfK9PmdynYiGNloLXY+OY0L8V1Twc0OeteDGPo9KpdMbT3egrPcEni+YwfsDDNKrqiZ0xmeQMBdeK9WjZfRCvvdmHujaAfR0efvpx2jeqTrkykJ6QQJbenYq+D9HvnRlMfbZagZiz93+DHz8ZRLuaXjja2eNerS3PfDiTyY/eHHalw7vjJObPmczznRtRxdMJW70tjh6VadhpIBNmLyz4GP0iUSjXoic9O7egTiUP7IzJJKSYcfKuSbPuw/l8xtu0df539u+DwrnVSwxt45LzxNLNzFl5FlMx9k+x2iLFi84TZ/LJ8x2o6WkPWemYyj7E6O/epUuZop24ivN5xTuX66jU63OmT+iHfxU3bLVM0pWqdH/ne15tWfxI+KePryL1D/6T7Kg/4BW6eufc6d09nyWHM0EpQ9NRs1k4dSRPtK6LTxmFjMRkjPZlqd6oI08NH89LHTzQUZIxVThHR0dmzZ5D584P4+joSHZ2Fi1btuKTTz4rsK6TkxPf//AjzZv7Y29vz9EjR6hTty7vvjex0LK7du3GoEEvUq6cT4HH6z///CBeGjYcHx8fbty4wdWrV3j//cnUrl27aBW3IoqW957gP2jJynV079KxJIoWosRt3rZD4leUKImxB8ttP8r72DcEfdSx4E8NiNtIjIsHjcSsKAmbt+1gUP+eRV6/lNw5E0IIIYQQQogHmyRnQgghhBBCCGEF/jOzLoQQQoh7pas1jCVhw+53NYQQQpRycudMCCGEEEIIIayAJGdCCCGEEEIIYQUkORNCCCGEEEIIKyDJmRBCCCGEEEJYAUnOhBBCCCGEEMIKSHImhBBCCCGEEFZAkjMhhBBCCCGEsAKSnAkhhBBCCCGEFZDkTAghhBBCCCGsgCRnQgghhBBCCGEFJDkrCaYDTHuyBa1aNqdNr6+JMN3vCv2z1LPzGNS2Oa1a+tN58g4M97tC4q5K93emEb96JB1aNqdVyzaMCUhEu99VEsVU2r9DA6ET29O6ZXNatR3Eogvq/a6QKDGl/Lsu5f2b0qJ0n/Nh9arfadWyOa1aNidg7Zr7XZ1/nCRnQgghhBBCCGEFJDkTQgghhBBCCCtgc78r8CBSkyLZuGQJ63ce5uy1JLL1ZfCqVIdmfccyqW+9fDtVI+NsIN/NWMDmw1fIcKhEsydf5d2RnamQs6L5zBo+/2k9x85eJjYplfRssHMrR3W/Djz54jCeauKZk0UbCJ3YmXe3ZKLZNGD4NyPQb5hLQNgp4syu1Gj9DG+8O4QWnjosw4RG0evzPzFgR5u3ZvJk3BIWBYZzIVnBs25HBo4bTz+/Mii5dc3k4vZf+HllMPtPXCYxS0eZ8rVp1rk/Q4c8Tt0yCsIaaaSf3cqyJasI3X+CKwlZKE4eVKjZhB4jJzGwWZl8qxu49sdMZs4J4M/zSdiUa0y34e/y+uM1cQDQEtg7byq/7DzNhZh4UtMyMOqd8axUD/8uz/LSoM5UdbAUpZ6dx4sDf+KkScG5+xR+aHGMuUu3EnE1Fdv85RYrfnMYovnztwX8uimMqEuxZGhOeFdvzEO9hvJSnyZ4yOWlB0Q2l3ctZ8lvQew7dom4dBV79/JU9+vC0PEjae+dr20xx7F/8dfM/P0PTsVTsL0qqRg1HWDaUyNYGaOiq/gcn0+qxO65K9lxLJosp8o0z9d2A6gJEaxduJj1uyI4fz0Fk50nVRq0p8cLw3mmdXls/50dLP4tphscWL2I5Zt2c/RcDCkmO1zLVcG33SDefKs7VfK1SWpKJKs++5FlIZFcN7pQPX87lxXBsk/nsPXkea7Fp5CWbgBHdyrUasb/+gxlyGP1sJx6i3dOL17bbCk/9dQmliz8ne2HznAtyYCNW0XqtXyU54a/SKeqDghrcf/O+ZgO0L3HuyQkxFO2bDk+/fRzfvrpR44dO4aXlxdPPNmTl14ajk5nie+JE94lOHgLAD/9NJvVq39n794wbGxsaN2mLW+//Q6urm65VTWZTCxfvozNmzZx6dJFNE2jevUa9O79FH36Po2i/Df6oZKcFZMavZkPXvmALdeMeeZEJBJ9eh/x4Zd4L39ylrSNz0Yt53pKzrjzzPOELZnEB17LmDWgGjrAHHOI0F0RpNu64OnpjbchibjEKxzbuZzj4YdJmLOQ4b52t1fEfJal48eSZbbHTjViNMVxKnQm72kVWP7l43jdFr8mIma+yr5sFQcbE0aDmZjIjXwz3p6qKyfRxgnQ0omYM5I3FkSSriro7F3xcjWRdOUoIYsjCdt7hm9nvU5zl//GgfHg0EgM+4rR76zgTFaeWTrJ1zl3KJQ9Z8byfL6G2nDgW0YFXyfOnLP+lf2s+ng8LtWXMbKBLWipnN4Tyr4TGk7u3rh7O5IeH0fs2XA2nT1A+LlPWfzpo3jn64Rk7pjKqC0GFHsdBqOBzPzl5lWU+DWcYcVbI/j2z0RUdNi5eOJGCtdP7mTll3sJO/4FcyZ2xksSNOumZRA5fzRj5kaQmmf6jSH2Akd37iDq5VfyJWcmTv78OmOvX8eQE6IF26uSj1Etbi1TxmRjsrEHgwljdsG2W40OZNLLU9gWY0JTbHH29MAxPY5z+9bw4/6dRExcwBc9K6Mvif0q/n2Gc/z29gi+DotHzW1uDSRcOU5Y6CGuv5EvOVOvsPq9Udy4kZHTX8gu0M5phouEh4QRZXLA1csDL8dMEmPjuRgRzJKjezmetpjp/avlG+ZUhHN6HnePe43EXV/wyru/cz5bQ7Fxwt2jDNkJFzm0eTYRe/YzeuZ0BtW1L6k9K4rMes75SUmJjBo1Ap1Oh8FgIDo6mrlzZuPtXZannupToOZvvfUGBoNl9pvZbCZo8ybQND7+5DPAkpi9/vpo9oeHA+Di4gKKwsmTJ5g69XOioqKY/MGUf2Y3Wjnp1hSHlsKOn6YRfM2Ipuip0GkcMwN2smvnNlYv+Jzh7SsUOAmrmXHo/N9i5opVzHn7YcrpAC2TqNDdxOR0VGyq9WDC7LUE/7GdwPUbWBe0nYBpfaiiBy3rFKtW7y84mVMzYtPwdRZt2UXohi95vJwOUEnZu5V9aflXVsl2bs/E37YTGrKW8e1dLR2L2O1si7CUrJ5dxrRFUaSrOjwfGs/SLSFs3LyN36Z0paxOI/P0Mr777RylbGrzg89wmJ+nrrQ00jpPWg7/nt+27WXnto0snjaGrtUduD2d1jDGZ1Nz2Pcs+20JH/asjh7QTBcIDT2NGUBxx3/o1ywJ3EXolk0ErNtMcPByXm3hjIJK/I4VbInJHwkamrEsj321npAdofzySmPslHzl3rb63eJXJWbDN8z8MxEVZ5q+vICNwVsI3LKRb/pUR68ZubzhGxZFlLZpzqWPeu5Xvvz5CKkq6Jz9ePbzFQTt3Eto4Eq+f7s39QvckVdJTC3L058vZeXSbxjga2+5E5Cnvfo3YlQzalR/fg4bt+9k86wB1NBze9utJbP9p28IiTGBXR2e/X4DwZuDCNq4gMEN7ECNY+f0WexMLV2PNvnvUrm+8WtmhMWjagp2NZ5k0s+b2b57F5t+m8P7A5rjmb9HpaaQ6PwIkxas4tfpI2nhWvA8rdg3oP+niwkI3UVw4EYCNoSwdfUHdPbSgZrKod/Wc7JAA3r3c/otRYh7w0EWfLWK89kauoo9+Pj3bQQFbmXT0jdp7aJDTTnI/OkbuSEdgPvPas75YDQaefrp/vyxcw8zZ83J/fuWoM2FVr1u3XoEbw1lY+BmPD29ANi6NRhVtZS9LmBtbmL20rDhBG8NJTg4hJ49ewGwYcM6IiIO/80d+GCQO2fFYTzCrrAkVEBxfIgRE5/D310BnKnc6FFebFTwLYpdSwa/8yz+3gpU7kmLWaEEpmqY42+QoEJFHeiq+NMsbQeb5q/kbHQCqZlGVGM0losiKqmXLpGgtqN83oZf58nDLzxLPWcFnFvRqp4NgTcMaKZ44pJUuO0Ol55qTwzh8Sr2KFSgVYvq6HcfQVXTiIvPRMOGq3t3c86oAQra1a18My7E8lZTrCUx1Iyc3X+A+MG18CqRnSvuhfnUH+yJUQEF20ZDmDDsISrpACpQv+MA6uesl7d7aFN3AG8O7UBNHVTv1YE5Gy5wVVWJj4vHDOgVN3z9qxG+7VdmHL9IbHIGBrOZ5FgsnWTzZS5dNluCN2+5jfoxpIMPNgrUaN2M8nOOcMmcp9y8K98tfsukcmDXITI1QKcjIewnJhzM2Zak1JyKxLA//CLmZrVLYM+Kf4bKtbCdnDVogJ6q/d7l9UfqWE48DrVp2/fmd5c3QnVUePINRnXxxY56PNWlDiuPR2LKba/sUP6FGFUc2zJgUDPcdQo0akPDMr9yPlm91XarR2+dD/TpHFnyPmOWWLYlLcHS/qrJ+9l3wkSnliWyc8W/SUvlwM6bbZIX3d94l54NHQFwqt6CHtULeY/Olc4j3+bJRs6g9aN7w/ns35P3PK0D+9r41z9M6NqZLD0fQ1JaNiY1g8s5T0FUoy9w2QC+jnkLvts5/faRNneLe07tIuy65TyiN55h7adjCAAgK+ciskZmxJ8cze5DFxmne19Z0zlfp9PxyshR6HQ6/P1b4OjoSGZmJjEx0YXWffCQoZQpUwYog2+DBuzetROz2UxsbCw+Pj7s3PlH7rr7w8M5EhEBQGJiQu7f9/35J02aNP2be9H6SXJWDFpWIomZlgxf8apG1SLMwVI8alDdPWc9xR4HewVSNTCbc67UZnNi8WhenXGQlDtcldIM2QXvnOnKUsHn5tdni21ug6miFrjKpqdcxXK5t0lt7W413KpZBVSSE5Jy6qOSeG4/4ecKqUdKMikgyZkVMSclkpQTNw5VqlL2rvfCFeyq1aRyznqKgyMOOeFpiQVQ40L4ZPgENl4xFP44c81IljH/EgVbnwq3hhja2uV2D26We5u7xa+WQmKS2fL5aiqXjuzjUsGKkJaSUsoeuV7aqCTlti16KlWrUoQhfjZUqVktd66Wg+OtK8H/ZowqbhXwcbr5yXliNKft1rISSco5H2iZ1zgWfq2QeqSQnCYRWipoKSQkmSzxpqtAtSpFGOKnq0CNajlZleKAY+60rZvnaY3U/T8w8q3FnMooPE40zYDBqEG+5Oyvz+l53T3ub51HNIyxJ9kfW0g9TCkkp2vgftetFiXIes754O7ugZPTrTG0trZ2ZGZmYjAYC61JpUqVc1/b3Trp5w51TEi4lYTd6Q5ZcnJSoX8vbSQ5KwbFwQMPRx0YVLT4C1xK1WjocZcETafLM3ZUR4G5jIZ9rFh8mBQVdB4dGPP9FPrW88Q2JYCxPT5kzx1HbenQ5ZalFCw3/9rKrVoUnFCpw83THR2XUBU72kzYyPe9vbhTkTKywXro3T1w10GKGbIuXeSG+lBuI3wnii7PCoqS73tWubppEZuvGNAUG2r1m8a00e2p6KRx5LunGLH06h2/f0W5vdy/dpf4VVzxcNejYEKz8WXksiUMqXGnDZPOr/XS4e7pjp5LqJi5euESZhre9cSj0/1Ve/Uvxehtx0bBGFUc3HHPOR/oKg5g1u/jaHrHuwoy/PaBp7ji6W5jaZPUaC5ezoYqjnd5kx59bsgV0s5pyexYuoLTGRroKvLo5O9559GauOgusWhIP2Ycu/OPiP31OT1f1e8S93p3D9wUSNF0uHb/inUfd8apwFo55HfN7itrOufr9bdfartbk5p3/cJi1tPTM/f1ipW/U6NGzb8usBSTOWfFYduYDm3dsUwb28WsT38h/EoKWRkJXIkKYdnGSAq/XvAXDKmkZlo6l4q3Hy3qemKnM3EtZBuR/1ojqKNi63bUtFVAM3Jg6QxCrmTldHmNpFzcR8AP4/h8ww1JzKyMvu5DtCtveTqnMfJnPp3zB+cTM8lMvsbJ3b8REJ5czNRFIzUlNec9DlRv1pxKTnpIjSBkT8y/lwYpLjRv1xRHBTCdZPWstZxJz4k+czrXDgcy9/1JLD8rEWnddFRs+xC17BTAzMXfvuC7oBPEZWSSev0M4Rt+Y1d0cb9DK4lR28a0b+1mmesTE8jcpUdIyhm1oGZe51jIIj55ezaHpTNbOigu+D/UzNImqfFs/vYz1h6NIS0rjbiLhwlaHszZAqNW7kJLJyU1Z4SAvhJNWtXAxUYh68xW/jhX3MLunb5Oe9r6WObDpf6xgPl7b+T0ZTQMCWfYvWIqY78tfT9k/CAqted8oEOHh3Jf//DD96SmpACWh4ccPnyYCe+N5/z5QoZ1lUJy56w4FFc6jhpH1yOWpzXG7PiW0Tu+zV1s12UqfXs0LF6ZTk1p18yJnX+mYz6zkLeGH6ee41UiIqOLn+j9DfraAxg3cCdvLIwi48JaJvTdhIuXGzaZSSSlG1A1W/zfeftfrJEoErtmDBnfn/B3VnA2K5ED89/gmfk3F9ri/87/eLKl21+VkI+emm3aUH7JRa6a0wn9fAivBVUk/cRBziXroeCjPUqIjgo93+TlkBH8sD+J6yGfMnDX93i62ZGdkkhatoqmr82wFyzzJIX10tV8jneG7LI8rTHjGCsnDWDlzYX62gxb0ocOxfoOrSRGFTc6jRpL54iPCLmeRPiMITy+0BMPRxNpiSlkmjV0ZfvRXW7slhI6fHq8yejQV/h6bzyGCxv5bOhGPru5tGw/pvftSrEezakrT8s2tbA7cgKD8QDTR4zgz5pw7sBx4ktiE+7E3p8hb/dm37truJARxZLXe7DK3Qtn0klKysCoadh1aS5jFKxBqT3nQ89evQkO3sLBgwfYvWsnXbs+jKenJykpKblDH18aNvxfq8/9JHfOiklXoTsfLprPxEFdaVrdmzJ2Ntg6uVO+Tku6tCjKfIr8BVak95RpvPJIfco6qsSfieIi/oz++jVa/Jups1KGpqNms3DqSJ5oXRefMgoZickY7ctSvVFHnho+npc6eEjAWB0Fj7ZvM+/nzxn2eEtql3PF3sYWB1cfajTrRLvazsVOXRz8X+Pr9/vRooorNhmXOXYygfK9PmVyn4r/7vdvV4cB3y3l+zFP0963Iq76LJKSs7HxrEqDdj0ZPPY1ulWSiLR6ihMNh81i4dev07ttfSq4OWJrY4+LdzUaduhIA/fiJ9fWEqP6Sk/wyaI5jB/wMI2qemJnTCY5Q8G1Yj1adh/Ea2/2oa5cAi097GrR75ulzBj3LB0bVsHDyQ4bO2c8KvnSplNTfIrdAdBT58Wv+PSFh6jpaYfh+gmOXXOm03tTefFfDRwFr4cmMH/BRwx+1J8a3o6YUhNJU53wqd2MLv1H8+7zzeQ3+6xC6T3n29ra8uP0nxgzZiz1fX2xt7cnJSUFT09P2rZtx1tvvU3FipX+xRrdP4qmaSVyMWTJynV079KxJIoWosRt3rZD4leUKIkxUdpJjIsHjcSsKAmbt+1gUP+eRV5fLjsLIYQQQgghhBWQ5EwIIYQQQgghrIAkZ0IIIYQQQghhBSQ5E0IIIYQQQggrIMmZEEIIIYQQQlgBSc6EEEIIIYQQwgpIciaEEEIIIYQQVkCSMyGEEEIIIYSwApKcCSGEEEIIIYQVUDRN00qi4CUr15VEsUIIIYQQQgjxwBjUv2eR17UpwXrQv/djJVm8ECVm5dpNEr+iREmMidJOYlw8aCRmRUlYuXZTsdaXYY1CCCGEEEIIYQUkORNCCCGEEEIIKyDJmRBCCCGEEEJYAUnOhBBCCCGEEMIKSHImhBBCCCGEEFZAkjMhhBBCCCGEsAKSnAkhhBBCCCGEFZDkTAghhBBCCCGsgCRnQgghhBBCCGEFrCI5Uy8v4vnGvvg2G85vsdqtBeZjfP+EH42H/MoNLe87jIR92JEGvo0ZvOw66m2L/uSjTn60GLORE4sG0sTvUb48bLzDB1/ll0FN8Ov+FRG5q2gkrn+Vlr6+NHx6DmfNBd9mPvEjPf0aM3RFHFrBxYBKzNIXadSwDzNP3ywgi01jmlC/fn3q16+Pr68fDZu2ouNjzzBiwg+sPniDO9RSWB0Dez54CL+WbxKUfvuStMAxtPD1peXYzaTdvoTNY1vg1/FDwlJ3MbmjH81fWU184QFE1p4pdPbz55U18bkxdsfj5CbjXj78nx/N3grGcKeqF7KOJZ7r58SmLw38muDf/hF6v/AGn/68jbNpd6ikKGG3txn16/vi69eEVp2f4uVPVhKZogEql++pncti1+T/0aC+H92+OFBIvBTWhhVlHWnnxL0pWvvW4FZsNfCjaavO9B4+haWHEiz9gKx7a1sxR/F/9u48Lqqyffz458wMiwq4oKi477IIzAygoiKouCHkbtqqaVlWmmVPPS2W1fOtLG21zTJzybBFZxBEzS13h800l8x931AQRGBmfn8AsgtjENjver9e/MGce845DNe5znXf5z5n5g7xorNnEM//er3kmyS3CuBWziuUkz276OgxYCzPfLSWY5m5be4sJ1dG7VlaG8nJd6Ma0DkzczTGSHK2FWvmLgxxZwo6W+r2+OvqY94TNyQiAAAgAElEQVRnIvlG4bccIT7xMvaOav6IT6bIomPxJF5S4eGvo/3ACPR2p1htTORmaVs+sRpjUg7twofgbZf3ovUia1du5brVSs5+I6sOlVWY3BlVg1Cmf/I5n332MXP/9yKTwj0gaRGv3D+E+2Zv44rk6ruAHd4BfjhkJGH6I6fQ69nsi99DloMDWUkm9hfOeNn72Z10A0cff7ycA4no35SbO6JZc95SfOVABjuMa7lQpyeRfRqgALc9TiqFBo/73uGzzz/j0w/fYebUsfRwO0vc3CcZds/TRB0u7QgS/4T8nPH5558x74O3mDqkMUeXv8aE537kjEVFszvJc2lbMKy7hAUzp+OMmDKrZp8lz4mKqXh+cwh4jI8//5zPPv2AN57sh8vB5bw58WkW/mUGxzvJrZCVZCTmqBksKWxcuYmrlRqfklv/ddQtiXx1Hp9//hkfz36RcV5pbPp8GhPe2kSq9Q5zstSeopDq75yZDxJt3A/tetHTPYckYywnbsWkHd7+vtinJ2PaX1AEW68kkXC8OZEjArEkmShYZCUl0cQRayv0ejc0bmHc06MW59dGs7tE8WHmSEw0+/BkSHhH1HmvWk7HYdydRZMewXRSHWGV8fdKHVVQHJqhDQkhJKQPYYOHcf+Tr/HFyl+YHVmPPxbMYFbM5TJHRERNoeDkp8dDdYGEhOPcClfzMeITU/AYMQKPlATijxckV/PxeBIvqvAI8MMJe7SRg2mVbSJ69ekSRYg19TeMG65SL/QeguvmlQ+3PU4qg4r6HXsQEhJCaL+BRI5+hBnvLSN60VP4pv3KmzO+5A8ZXqsWBTkjhNCwIdz37Ie8MaIx6TvXsC3FisrmPGfl6qaVbLzmRGCwFvsLazFsTy+x3crZZ8lzogIqnN8UVG7e9A4JISQ0jIgHX+KzN4bhdiOJlav/wnwnuZVMTIbVnLHzJbhbPdK3GFlf1mW3OyK59V9HcaJNQG9CQkLoO3AUU2bP4ylfFWdjV7I9gzvIyVJ7iqKqvXOWvcdIzFEVXsP+w9SINlj2Gok+nJ+VFZz9/OmsOkdC/MlbRfCNpN3sc/Sj96iutL+cQMLxgik1Sbv3kVNPi387NSj1CY3sjfPldRi3FpuqYN5P9KpDqP0iGNw6//AwcyzGSFJOC8Kf/C8j/TScijUQX9UDW3bNGfTfGQysl8L6pUZOVe4lEVEFVE116Jpb+cuUeGuU1ZqSSPzRxugHDUbf+CjxiVfzkp2Vq4km/rK2RK9rggrQeA4hvKOF5FWxHCtShFhJ2Whkc1oj+t0ThFPeq7c/TqqKgovvY8yc4IH1YBTf76zkyyviDmlwdq4DVkDB9jxnvcQ6w1bS6/djwsz76FknhQ2GzaRW9ZlZ8pwow9/Jb7U9vGirsXDl4mUs2J5bub6Nlesu4tj9Xl6d2J9GN3dgWHOukmcmFCe59V9F7Y6npyuqm5e4lGqR2lP8bdXcOcsdsTql0RI5qC2eQyLorBxmVfQ+8i+GqZrp0Llb+TMhMa94yOFAfDJZ3nr82mrRuh3BlHQttwjOOUB88nXsff3xtgdQcOkVQZ/619hg3My1QsVHVlI0scfsCYgYiHv+p2D+k1XR+7C0C2eIT0sGRARgf2ENhu0ZVf5JKC7dCNU7kr0/kb2Sp2s+dUf02rpk7zXxe14CzUw2sc/BF72XF3o/R/bG78mb0nCTPfF7yannh75DXjJWt2NIhDeqP6JZVfieHuslfjVuJcN9ABH+jnkvln+cVOEfSpvgYFopV0hOPEZVdwdFaXLIzMggIyOD9NSLHN7yNR/9chTnoIH0qKdga56znF2DYddN3MIi6Obem8je9bi+2cD6f2Bei+Q5UdLfy2+WC2e5YFbj3rJZbkFjU261cm3zSjak1KFnRB+aBUYwwD2bBEMsJ6s82Ulu/dewpnP+XCpW5+Y0q69Cak/xd1Vv5yxjB4Y1F7APjKB/UxXqtoOJ8FVzIsZAYv4dtepOBGhdyN5jYs9NwHyKhISLtNFrqWfXGZ2PHXtNuUWw+XQCCWdUdPLX4pI/Y6F2dyIHuJG+JZoNt4qPTOKj4zhdO4jIfo1ufQjZvxuI/kvBc0g4HdQqGvWLpEftK6w3bqn6UWVq0cS9Aarsy1xMkeGLms8BX38f7FKTMB00AzkcNCWT6emPj6MDPnpPMhNNHMwBcg6yOzENuy4B+Njnv19Ni0GR6Oz+ImZVQRFiObsG464sWg+KwC+/bUWOkyqkauxOE7WVy3kj0+KfZT67jEmBOnQ6HfrAXgyZ9CG/N5/I3P8bTtP85FXhPGfOjZvsZgyM8MdRcaZnZF9cM7djWHv+H/j/Sp4TxdiY36w5N8nIyCAjPZULB9fx4dtRnG45gslDW+RNEbMht1qv8KthC+n1Q4kMroti70fEoNaY9xpZdaTqu0uSW+9WFrIzcwfMrqecxLRsFp9ucSBw8nh65Pf7pfYUf0M1ds6spG5ayfqU2vSM7EdDBVDlFgx259Zg2Jn/mA8HugR0we5aEvF/mrGmJWE6XB+trhVqHPHVe5KRFM8hs5W0RBOHrO7odO6F/jAH9BGDaH5jG8ZfL+QmwLyTgXPwPYTUz+/F3STBGMspjR9DBrdGDSj1Q4gMdiF1s4GNKVU/qmy1yozfu4eCi1ZPR+U0CYlnsJjPkJBwntZ6PxooCvX9dLQ+n0DCGQuWMwkknlHoFKDFWSlYg6rJACK7OXAiNjqvCDFzMtZAorkj4REeaICKHydVySpz0auRynUAr3y3hCVLlrBk0Td8+sYkfC5+y9TJ80i+NbBawTxnPkx09F4sbQYxxDf3TvRaXSPp3yQbk3E1p/+Bc7PkOVHA1vxmJTPuObrpdOj0gQTf8xTzj3gx4+OXCWlQkFwrllvBci4Ow45MGvaNoIcTgAaPiHA6cYhVxv3/wMwEya13pZwDzBsVgE6nw797GPfP+hXNyHf54IEO2N1qJLWnuHPV1zmzXmG9YTNpTt3oo1eTlppKaup1anfri97+Er8atpAGgEI9P3/aKydJSDxH5h4Tv6t90HvYAQquflpank0g4exN9sbvIcvZD//OmiKbsusSwZB22ZiMazhrsZK6xciGq/XpE9Gz4ApbxnZWxp1H49OXHs7XSU1NJTUNfPr0oF76VgzrLlbxyNYNzp9NwWLXELf61X4roKgAdQsduiYWDsQnk5aWiOmwC3663OSqbqPDt+4hTElppCaZOGBpik7X7NbNvwAoDegb0Ys6Z9cQbcoE8xFWrdqH4h1BeNv8+4MqepxUHcv5M5w3KzR0c63uedD/X1LsG9FRp0ev16MPCKLvyGl88NYoXPZ+xYfGgqtdFclzOXuNrPoT2oT2pll6am6ey2xHaIg75uR/4mqB5DlRiM35TcGh+zMsXLKEJYvm8/5zg2mTsZ3Zz39KcuEpWRXJrXkdtoTsRgSHepCVmns8pDcKpk8nhWOxRpKqeGaC5Na7lLo1o95ZxJIli/l23izGB9Th2Pcv8mp00XsVpfYUd0pTfpOqYTm/FsP2DCyZa3mxz9oSy5VNBjZd7ceQegrqVjp0jS38tNtE4qVE0juNwbdObjt1Oz1+Tt8Rb0ogJfEqGm9/fB2KrUzdkfAhnnz5cTSxxwbT2LCZNLcIIrvXzmtgJfU3I+uvWLh56R2GdH2n+N6w2xjHmZEP0LyKYteauoMN8ZnYeenwdiy/vagBNB7o/eqwaOduEuIt7FF8ecErb9xM44W/j8I7pgQSSCbLKajEoAEo1O19D6H11rHOsJ1nXZKIOahB999BtMirH2w5TqqGmSObNnPM6spwbeuinUtRbRxat6OFOpujf57AQuO8e23Ky3O5I7QnzGbMX42j21fF16omOvogk6Z5Vtn/WfKcKOxO8puqQVu0ej32AAHd8XG6yohZC5i9bCgLH26VF7vl51bMR1hl3EuWOYflj/dgefGNq+Mwmp7BP6iqAlVy611LqY27py7vHnJ/unVtRc6ICSydM4+tobPolf+0Gak9xR2qps6ZhVOxBkzZbgx+9W3ubV80LeXsX8SMd7diWHeZ8JENUTSeBPjVYcmuGBZfOE3TQC1N8gPVzgtdFwvvxS7mwnGF9hFaStapaloPjsTv03cwLvwc160ZNB8biT6/E2dNYYNhE6lOPZn+/qP4FencWTi1YiavGI3EHBvHo22rIIVmn2b1/2az+mp9+o8Lp5kMXtwlauEX4I0m1sQPyy1c7zAaX6e84FOc8NF1IG35D0SRkjtoUFricwrinn6NiF79E58oBznq0I0JA5rkjaLaeJxU+t9nJTX5S2YtOIC68xOMDZTMXVPcOLSfY2YFV7cGhf7v5eS5GzsxxJ1D4zuRD6cHF4zcAlhT+PWd51gca2TPFE+0dlQ+yXOiiMrIb2pajJzBQ1GjmLfwa7aPmkXPvIHb2+dWyPnDSPQhK+3GvMsr4U2KXrnK2MWn0z9j3cptzAjqU/Bkx0ojufVfpU4gT0wbSMyzBr74cSJBD7e8df+j1J7iTlRP58x8hBjjHswtHuKhUd3xLV4I+CoM+m49PxrjODv8PtxVtfD190Ids5mNV+oR+XiHglEmxRk/fQeuvr+Ry6rG3KdrVeoIlKrZACIC5jAzagmo2vH4kC635gZbLqzDsO0GDQbez329AqlT7L36+vew2PAp0av+5JGnOue/i8v7NhAX51L0pKFyxTNYR1m1jfXmaRI3biRdYyX7xjUuHE3mt+hofjum4DXhA14e6FoFRbaoGgoNtHraKp+waZOKluN1BQ9oQIW71o/G733LJosajwgd9Uv9xzriHzkA9x+/Y/EKBaewafRxzb8/yMbjBAAr5rOJrI2zFD24FTVNfPvg26Csv8VCyqGtbNxYF8WcxfXLpziwew3GNcmkNOzHy+9OwqMqCnZRroKcAViyuHp8Fz8v+InzLr2YEt6mSL67XZ5L22Lg18uOdJ8+nr5di+cZCy1HB/DDG6sxmKai7Z73xARrKoe3riHuSNGztsq5Pd27t6nAPkueE2W4o/xWCk0n7n9iEMumGvnyl0kE3d8ir6N1m9xKFonGGI6rvZk+PpxurYtVDdbOpIQuZvqGlWy+Fsrg2iC5VZRNoX7Y4zzouY6PFi1g5+iZBOVdHPtna0//Mo8Tycl3l2rpnJkPGIk+CJ2mDC34dvTCHLQMi2jD918biD1xL4+0VuOq1dNGtZ1Ddt74dyk8vKCmudaPJqpkTtfWEuBZRpZTGhF2Tw9mb/2VGx4RhHe69dV/nFltwJTVlNHDu5c4OADU7SK4x+8L3l1lZO/kzngDkMPBqFeYFlWssX13Xls3n5Ay/nbLlQ3MeXIDKApqe2dcm7ams+5+3nhzLBE6tzI7daJmUrfRo22osP+CE37+nYocUJpOenzqfMvx9EZo9aUPGgDY+0UyuM1ivjhSl5DI3reu/Np8nDTLfTkr4RueTSjWVnFk0Ie7mBta1l+Sw/4l/+HxJQqKSkOtuo1o3r4L/ad9wphRfWjvJGm7utzKGYCi0uBYz52OAY8w+6nHGFx8qLOsPGdNYaNhE6kuIQzv26CUk7CKxgOG0WvOC6wx7GBG9+Dcl82nWPX2M6wq1lrj8RQ///g4LuXts+Q5UYY7zW8lKdQNnczDXdYwZ+G37B75Cl3zLkSVlVvJ3IUx7ix2/pMIb1lKZlZcCB7Wn4arV2FYf4VBQ3JfltwqyqRux9gp4Xw/ZSXzV06i29i8B9P9o7XnN4wqY/ckJ99dFGsVPaZlUZSB0UMHVcWqhahyUStiJX5FlZIYE/92EuPibiMxK6pC1IpYHhgdWeH2MsNUCCGEEEIIIWoA6ZwJIYQQQgghRA0gnTMhhBBCCCGEqAGkcyaEEEIIIYQQNYB0zoQQQgghhBCiBpDOmRBCCCGEEELUANI5E0IIIYQQQogaQDpnQgghhBBCCFEDSOdMCCGEEEIIIWoAxWq1WqtixYuiDFWxWiGEEEIIIYS4azwwOrLCbTVVuB+MHjqoKlcvRJWJWhEr8SuqlMSY+LeTGBd3G4lZURWiVsTa1F6mNQohhBBCCCFEDSCdMyGEEEIIIYSoAaRzJoQQQgghhBA1gHTOhBBCCCGEEKIGkM6ZEEIIIYQQQtQA0jkTQgghhBBCiBpAOmdCCCGEEEIIUQNI50wIIYQQQgghagDpnAkhhBBCCCFEDVAjOmeWkwu5z8cDD+0kll+0Fiww/8GHQ7zwGf89F6yF35HN9td74+nhw8NLz2Mpsmgns0K88J8aQxpgPvAxkV6d6dy5M507e+Dh5UtA8BAefOErtp7LKboj2Tt4Pdgzr23xny7cu+BE0W3dbt9LXacHHp7e+AX0YsCICcyYvZRtpzLzVnSWX54IwqvXs8ReKrmejPh3GeLjx+jP95NV4U9WVI0sts3shVfAdOLSiy65HjMVfw8PAp5ZzfWiS1j9jD9evV9nezZAJrFTfQviy8MTb79u9B35BO+s2E9akRAo1rbYj+/jK0gtvovmfcwd4kVnzyCe//V68aUl1unh4YW3XyC9B43hsf9+xM8JF8gGIIfD39yH3nsAb2xPo3hkWlPW82KoF4ETf+Ck2dbPUdxe8f97bv4KDB3Go29GsTfVWnbbyo4nMtnyajCenb3o/3Z8KTlI4kn8PbadSzvj4emFX2AoQye9xpLEK8XqABvaSn4VFWbh3JKH6FIoJ3t20dFjwFie+WgtxzKLtral/izattiP10De21MyACqr/rRe3chLfbwInLCUEyU2k8Ph+WPRdRnE/3all9iEqBqa6t4BMHM0xkhythVr9i4McWcYcX+z3F6juj3+uvp8udpE8o2xhNXOf8sR4hMvY+9oxx/xydwY1586+YuOxZN4SYWHv5Y6kJfsNHjc9xZP96qLkpPO2T1GFiycw+N/pLEoajq+jkX3yF43gf97yLfYh6OiXudGxXqzt9n3YhwCHuO9R7TYWbO5ce0iJ/ZtJ/bn/zFx6VKG/9+XvD7QnXtefpa44a/y9tv9CZw9AFcl782ZyXwxazGnOj7G0vEe2N/5hy0qhR3eAX44/JiE6Y8cBgTkR0o2++L3kOXggJJkYn/2QALs8hftZ3fSDRx9/PGyK1iTqkEo02aNoaPGQtbVI/y2dD4L//sIJ/mFj4Y2LhJLqvrBTHllBO3VRfdG5eZD7aIvkZVkJOaoGSwpbFy5iat9wqmnUELh7WdnXOP8kWR+i1nEKysWs2z8B3z+XBDtH3iNyWvH8NGsjxmw/L8EOuW92XqNzXPewpjelf++OpIW6pLrF39fwf8IrNnXObMnmm+/e40JJxRWfD4Kd1VpbSs3nkjbgmHdJSxYOB1nxDRNT5Bj8UYST+JO3dm5NO3kLpbPX8qbEw+TFbWQ8e3Ud9xW8quoMHVLIl96gcHuKsyZFzmwZiFffz6N5IvzWDGrNy5FYsGW+lNDp9EzebyHC0VWoapDm9bFj4bKrD9789zLkWx76gNmLe/FF/e2ID/ccv5axOuf7cVtzFc8HVCnlLWLqlD9nTPzQaKN+6FdL3re2MZOYywnxk6ktRrADm9/X+x/Ssa0P4cwfe7uWq8kkXC8OZEjWhGzwcT+nP74awCspCSaOGJtxXi9GyogdxBARf2OPQgJaZgb8P3C8GI4Y782YEh+Gt+uhT8GBXVTLWEDwsrvBN123wtTULl50zskpGCdQ8cx8bGtvDNxCotffhEPz2+4r+UwXnl2DSNe+z/eHRjA2/0aoJDJ71++zrfH2zNp8UQ8He78oxaVRcHJT4+HagMJCccxB7TLTWTmY8QnpuAxYgTKTwnEHzcTkHemNx+PJ/GiCo8AP5wKr8mhGdqQEHL7d30I69WQywNfZPPK9VyMHEvjQplWcWxJYP8BBJR71GZiMqzmjJ0vwQEn2LrFyPrLgxnesGT1UHT7AMO4/7GJxLwygecXzGCWp4G54R14+LXJrLv3Y17/JIyoFwKog5XUbR/w1i+pBLw4kzEtpXKoKiX+R2FhtEsfyCM/rWFbykhGuipltK2seLJyddNKNl5zIjC4Hb9vXYth+wyCQkueqCWexB2543NpGH1a3WDw4ytYufovHpzSEfUdtZX8KmygONEmoDchHXL/L33DulL7bDjvxq5k+wu9GVAkNdpSf6pw9QplwICGlNLXL6qy68/QGbw0ZDtT577Jz70+Y1QzFZiPseyNeSQ2HMWXU7viVO5OicpS7dMas/cYiTmqwmvYf5ga0QbLXiPRh/Ovqyo4+/nTWXWOhPiT5L96I2k3+xz96D2qK+0vJ5BwPH9JJkm795FTT4t/u9slM3s6eXXAzpLCxcs5t2n3d/a9fOqGPXj2pdE0v2Fi6Y/7MaOi2fCXeSboBtFvzWZDipWsP77m9W/+ou3415noLT2zmkLVVIeuuZW/TIlczZtNYE1JJP5oY/SDBqNvfJT4xKt5V26tXE008Ze1JXpdk9sedEo9T7yaqTFfvsSVUmYpVMj1baxcdxHH7vfy6sT+NLq5A8OacyWm5JbJrjmD/juDgfVSWL/UyCkL2HV6mNce8+D00tf5ND4D6/WdfPTGclL0T/Pqva2Q0uGfpMHZuU7utIByTpaVEk/WS6wzbCW9fj8mzLyPnnVS2GDYTGpF1yfxJMrxd86ltT28aKuxcOXi5XJznC1tyyT5VRSndsfT0xXVzUtcSi0vEmpo/ak0oO/z/2Ww4xbmvPELZyxmTkS9wUem+ox8dRrdnaVn9k+q5s5Z7gjUKY2WyEFt8RwSQWflMKui95EfsqpmOnTuVv5MSMwrBnI4EJ9Mlrcev7ZatG5HMCVdyy2Ccw4Qn3wde19/vG972cvCxbMXMKua0rKZXYml1qwM0lJTSS38k5bOzSJxX/6+V4SDXwjdG1g5kZzMRQugbsHIV6bRNd3Am29/xdzX5vNnq4d47bEulDKLSFQXdUf02rpk7zXx+83clzKTTexz8EXv5YXez5G98XvIXXSTPfF7yannh75DOafZ7POcu2zFwb1FkascAFizSC8el6lpZGQXPhlYubZ5JRtS6tAzog/NAiMY4J5NgiHWpnsWFJduhOodyd6fyN5MAHs8xr/GpI6nWPza+8yfPYsfLmmZMnMsbaRyqGI5ZGZkkJGRQXrqRQ5v+ZqPfjmKc9BAepQ2l6qwvx1PYDm7BsOum7iFRdDNvTeRvetxfbOB9Tb09iSeRNn+3rnUcuEsF8xq3FuWPqWrwm0lv4o7ZU3n/LlUrM7NaVa/3Ci8Tf1pJSczrUT9mXY9k6LhVTX1p+Iaxn9eHIjdb+8za96nzPpgJy7DX2Z6kEv5V/JEparezlnGDgxrLmAfGEH/pirUbQcT4avmRIyBxPw7ztWdCNC6kL3HxJ6bgPkUCQkXaaPXUs+uMzofO/aacotg8+kEEs6o6OSvLTbn14o5K7e4yUi7zNGtX/Pmgt9x7fcE47oUz3xWMtf+hx6BgQQW/uk2go/3FTo8KrLvFaFqTLPGKiyXL3A5r9ZRtxzNzKmBXDfO4dsDLXjw9cdL3BcnqpsDvv4+2KUmYTpoBnI4aEom09MfH0cHfPSeZCaaOJgD5Bxkd2Iadl0C8CkxaJBfeKdz7ezvGN6ew6obHjz0aH8aFMuG5nNRTA4qFpeBQUxYfKpg1NZ6hV8NW0ivH0pkcF0Uez8iBrXGvNfIqiO23FFeiybuDVBlX+ZiSt7aHTyZ+NpE2p9cyvtR5/GdMpP721b/zOh/O/PZZUwK1KHT6dAH9mLIpA/5vflE5v7fcJqWyOCVHE+Yc3NadjMGRvjjqDjTM7IvrpnbMaw9b8PVB4knUQYbz6XWnJu55/L0VC4cXMeHb0dxuuUIJg9tUeIKky1tJb+KirOQnZlbU15POYlp2Sw+3eJA4OTx9ChRq9lSf2az6/8GFYvBQLr2m8WW7ELNqqz+VGjY/wVe6K9m8yefsd1pKC8/26tYPS3+CdV45FtJ3bSS9Sm16RnZj4YKoOQWAB+8sQbDzmcJ6FULcKBLQBfsjEnE/2kmuEUSpsP10T7XCjUafPWeZHwXzyFzb1ommjhkdWeszr1YrzObnW/1R/9W/u8qnHye4Ou3I4vcTJ/PodvTfPaEf9EPR3Gkabv8xhXd9wp+EiUGoNW0GjWJQZ/v5Bev8Uz0rfi6xD9FwUWrp6OylYTEM1i8rSQknKd1sB8NFAX8dLQ+v4WEMxa6kEDiGYVOo7UUnxmQW3gvK1irpimD3lnKU7oSj2RA5RrGC7MfoHPRwMS5ZcGDHizn4jDsyKRhZAQ9nAA0eESE0+mbT1ll3M+j070rfNBbSwYmDt4TeKTXfGbsDmPi2PY14KbVfz+V6wBemvsgndWA5SZXj+9i+RcLmDrZnq8WTMG3UKhUdjxhPkx09F4sbSYyxDd3lLdW10j6N/mZKONqTo9+mBYVHOKTeBIl2XoutZIZ9xzd4vJ/V1A1COKl714mpPjog01tJb8KG+QcYN6oAObl/6440m7cx3zwQAdKzsWypf7U4DV+Ls+H1i1ypUrRNKLjrWCo4vpT1YgBk0Yyb81X1Bk3iV51pWdWHarv2LdeYb1hM2lOQfTRq0lLzX1Ybe1ufdHb7+BXwxae7xWGMwr1/Pxpr2wnIfEcmSkmflf7EOmRewi4+mlp+c5OEs7eJDV+D1nOPfHvXPzP0tDlkY/4T5+6WG9e4eDqL/jwx895/m1fol7rRdHYU1C5dsA/MLDsB4JUeN8rwHye0+ctqNo1psj9xCo77DQKisYOOzk2aiR1Cx26Jhai4pNJG2rGdNgFv2mtc0dk2+jwrfsNpqQ0hmHigKUp9+qalRitvVV4q3K4fmoX33/0BatfewE/j695sNioqWLfGI/AwNvcsG7mZKyBhOxG3BPqQVZqau4jzxsF06fTPD6LNZL0pDf+FXrc5w3On03BYtcFtyLTNDTY2yugtsdOptv8IxT7RnTU6dHn/98DgujR8jpDxn/Fh8aRzB9TUDxWbjxBzl4jq/6ENryvf1wAACAASURBVBN60yw9Ne+R4u0IDXHn+x+MrDryAJOLP96uVBJPohQ2n0sVHLo/w5dP+qOx3OBc8i/M+ySW2c9/ivfSqcVmmNjSVvKrsIG6NaP+9wZDmytkXzvCpm8/5LvvX+RVvx/5IKL4feW21J8q6rbWEhh4mweC/BP1p5099oqCnZ1GpjNWk2rrnFnOr8WwPQNL5lpe7LO2xHJlk4FNV/sxpJ6CupUOXWMLP+02kXgpkfROY/DNexqOup0eP6fviDclkJJ4FY23P74lnpuhwrmlD3p9bsAHdNfRKGMY0396h29GduWZLrY9nN6WfS9PZvIGtqcotNL60bDaH88ibKLxQO9Xh0U7d5MQb2GP4ssL+c/J13jh76PwjimBBJLJcgoqZdCgWOHt35XundTcN/YT5s2NYdBHkTSyJTOaj7DKuJcscw7LH+/B8uLL1XEYTc/gX9oz0Iuxpu5gQ3wmdl46vGVKbY3j0LodLdTZHP3zBBYKOmeVGk/cJMEYywmzGfNX4+j2VfHlaqKjDzJpmme5DyyQeBKluZNzqapBW7R6fe7gaUB3fJyuMmLWAmYvG8rCh4s+PMOWtuWS/CryKbVx99Tl3UPuT7eurcgZMYGlc+axNXQWvQo/klnqT3EHqqlzZuFUrAFTthuDX32be4uNvObsX8SMd7diWHeZ8JENUTSeBPjVYcmuGBZfOE3TQC1N8gPJzgtdFwvvxS7mwnGF9hHaUr9vpAjFlbBnJhO44U2WfbmaBz+KxLXCRYuN+36bNZkvbWXOW8s5XSuQl4Z3licy3XVq4RfgjSbWxA/LLVzvMBrf/GfNKk746DqQtvwHokjJHTSowEnY3mM8z434hQk/fMnifYN4xrvkJImy5PxhJPqQlXZj3uWV8GKjdxm7+HT6Z6xbuY0ZQX2KPM6/hOzTrP7fbFZfrU//ceE0k6Rd49w4tJ9jZgVXtwa3zTF/J564sRND3Dk0vhP5cHpw0fsOrCn8+s5zLI41smeKJ9rbrVbiSZSqMs6lalqMnMFDUaOYt/Brto+aRc8yv4rJlrYlSX4VZaoTyBPTBhLzrIEvfpxI0MMty67npP4UFVA9nTPzEWKMezC3eIiHRnXHt/iJ3Vdh0Hfr+dEYx9nh9+GuqoWvvxfqmM1svFKPyMc7FASS4oyfvgNX39/IZVVj7tNVbDRM1Ww4U0Yt5KHFX7N0/2Ce8sz/KKyYzyayNs5S7MNRcGihJ7hTim37nrdOy4W9bNpoh501h8y0S5zYt43VxvUcuNGa4W+/xb0tJUPffRQaaPW0VT5h0yYVLcfrCj2gQYW71o/G733LJosajwgd9SuUgGsRMHESQYbXiZq/hofmht96kIM18wS71sRxpfiXpDq3o1v3lhwwxnBc7c308eF0K/5lJ9bOpIQuZvqGlWy+Fsrgunkv3zxN4saNpGusZN+4xoWjyfwWHc1vxxS8JnzAywNdZVpDNSv4HwGWLK4e38XPC37ivEsvpoS3KSff3Wk8tYctBn697Ej36ePp27V4HFhoOTqAH95YjcE0FW334vsq8STKYWsdUNZ6NJ24/4lBLJtq5MtfJhF0f4uyn3R2m7aSX8WdU6gf9jgPeq7jo0UL2Dl6JkElb/O9pez608LlfRuIiyv+dEQVTXz74NvoqNSf/5+ols6Z+YCR6IPQacpQSh3IddAyLKIN339tIPbEvTzSWo2rVk8b1XYO2Xnj36XwvEU1zbV+NFElc7q2lgDPio4MO6IbP5ngn1/m+6/Xcf97A6mftyQr4RueTSjeXkWje+ezdtRO2/a9We7LN3d/wVO7QVHU2NWpR5OWnfAZ9iLP3TuCoBYyr+FupW6jR9tQYf8FJ/z8OxU5oDSd9PjU+Zbj6Y3Q6is+hUbV9B6eHLOQcQu/5vuDA5jSOfd1S8pmPp6+ueQ+dHiCH5fpMMadxc5/EuGlfWGp4kLwsP40XL0Kw/orDBqWO2RsubKBOU9uAEVBbe+Ma9PWdNbdzxtvjiVC51bKzc3in3brfwQoKg2O9dzpGPAIs596jMEVGHa/o3j65QEOGzaR6hLC8L6lXZ1T0XjAMHrNeYE1hh3M6N6t6L5KPIly2FwHNCtrTQp1QyfzcJc1zFn4LbtHvkLXsi9blGybd/qV/Cr+FnU7xk4J5/spK5m/chLdxpY5nEBp9acLADkcjHqFaVHF2zvQf85O5ra6s2NG6s+7j2It7ZFBlWBRlIHRQwdVxaqFqHJRK2IlfkWVkhgT/3YS4+JuIzErqkLUilgeGB1Z4fZyLVMIIYQQQgghagDpnAkhhBBCCCFEDSCdMyGEEEIIIYSoAaRzJoQQQgghhBA1gHTOhBBCCCGEEKIGkM6ZEEIIIYQQQtQA0jkTQgghhBBCiBpAOmdCCCGEEEIIUQNI50wIIYQQQgghagDFarVaq2LFi6IMVbFaIYQQQgghhLhrPDA6ssJtNVW4H4weOqgqVy9ElYlaESvxK6qUxJj4t5MYF3cbiVlRFaJWxNrUXqY1CiGEEEIIIUQNIJ0zIYQQQgghhKgBpHMmhBBCCCGEEDWAdM6EEEIIIYQQogaQzpkQQgghhBBC1ADSORNCCCGEEEKIGkA6Z0IIIYQQQghRA0jnTAghhBBCCCFqAOmcCSGEEEIIIUQNoKnuHQCwnFzIA+Fvk6Duyaw1XzKqkZK7wPwHH94ziq8bvcy6b8bipuS/I5vtr/fjkWUpBL6ylm/GNS7oZWbvZFbYBAy+s9nw4WCcy9tGHvOBjxk24lMOmQEUVGp7atVrRIt23gSERnDvqD60cyr8nkxip3blmbibACiKGrVDHVybtqGztgcDRt5LhM4Nu4K/knNLxhP2xk6yyduGXS3qu3ciMHwCUx8No7Vj5X2moiplsW1mXybFBDBn4xwG1ClYcj1mKiHPrkEZOJcNcwfiVLCE1c+E8GxCBPPXzaS7na3xU4h5H3PvGc0XR+oS+fEa3u3rBOZjzB83hPeSc26/6/bdeW3dN9zrpgCZbHm1P49GXab5w98R/YIe+7/92YjKUzRGQEFR2+Ps1ha/vmN5+ulReLsopbdVVGgcXGjcXkf/+5/iiXs8cFbKWm9RDqFv89tnQ3EB4AZH18znk4Wr2HHgDKlmR+o1akobTz0hYybzcJAbquK5TVFQ29WhQQtPegyfzDMPBdG4RpxpRE1W3jma7B283ncC31+wAKCo1Dg4udHatzejnniasdoGpYw2l5fjSoldTS2cG7rT1lNP8OAxjBnoSX11wTtsrhXuaL9FzWRbHWd7XZnPSorxKfo//ys3vJ5h5Q+P0k4N1mu/MLnXi2zKuv1eajye4ucfp9BRXYHjStRINeCUaeZojJHkbCvW7F0Y4s4w4v5muclK3R5/XX2+XG0i+cZYwmrnv+UI8YmXsXe044/4ZG6M609+fWw+Fk/iJRUe/lrqVGQbRWjwuO8tnu5VF3IySbtymoO71mCc+yQ/LO7Hy1+8x+j2DkXeoWoQyrRZY+iosZCdcY3zR5L5LWYRr6xYzLLxH/D5c0E0KHwsqFsS+dILDHZXYc68yIE1C/n682kkX5zHilm9cZHj5i5gh3eAHw4/JmH6I4cBAfmHUTb74veQ5eCAkmRif/ZAAvJ7V9n72Z10A0cff7wK9bhsjh8gK8lIzFEzWFLYuHITV/uEU0/lRr/pc2lx1ZLXKofkhS/y7Z/+PPbaGDrn76LKFc+6eStM24Jh3SUsWDgdZ8Q0TU+QDBDUOAUxAtbs65zZE823373GhBMKKz4fhbuqtLYWsq4e4bel81n430c4yS98NLRxkZynqh/MlFdG0F5dbHtuPuSmWgunf5rO/a9uw7HbGCa+rKN5rUwunDzC/l0bif7tJA8GuRWss3Buu3GBfTEL+Ob9yexN+ZYfn9MhoSXKVtFzNDgEPMZ7j2ixs2aTdnIXy+cv5c2Jh8mKWsj4dsWCuaI5rnDsZl0n5fSfJGyM5ovnfmTRj9OY9/FEfIsU0bbXCjbtt6jZbKrjbI8VrBdZu3Ir161WrPuNrDr0CE97qFHqdOWx9z9keP5p3nyYn974lO0t7uetR/Tkr0Xl3D7vvFDx40rULNXfOTMfJNq4H9r1oueNbew0xnJi7ERaqwHs8Pb3xf6nZEz7cwjT5+6u9UoSCcebEzmiFTEbTOzP6Y+/BsBKSqKJI9ZWjNcXKhpuu43CVNTv2IOQkIbcOrZGT+Cx5M+YMukT3pzxJd5RT+FZqLhWHJqhDQnhVn3OMO5/bCIxr0zg+QUzmOVpYG64a8H6FCfaBPQmpEPuxvuGdaX22XDejV3J9hd6F7kKI2oqBSc/PR6qDSQkHMcc0A41gPkY8YkpeIwYgfJTAvHHzQTkVb7m4/EkXlThEeBX6GraHcQPmZgMqzlj50twwAm2bjGy/vJghjesTeuuYbS+1S4L1ZqX+fZ4c/z7D6BHiUtwVq5uWsnGa04EBrfj961rMWyfQVCoBGBNUyJGwsJolz6QR35aw7aUkYx0Vcpo24ewXg25PPBFNq9cz8XIsTQudFZWHFsS2H9AodgrxvwXKxf/xjXPp1n05aO0LZwvJ00nJ8dc9ARSPLf1D6DWuEjm/hjF9id1hErvTJSlwudoBZWbN71DQvKugIXRp9UNBj++gpWr/+LBKR0peIsNOa5Y7AKMHD+ZCUun8/CbH/Ds+16snBlUaMDX1lrBlv0WNZ5NdZztdaXldBzG3Vk06RGMy66trDL+zuMefthp3NGFuRc0zGnA7tnz2OnmQ78BA6hNMRU+rkRNU+0d6Ow9RmKOqvAa9h+mRrTBstdI9GFz3lIFZz9/OqvOkRB/kvxXbyTtZp+jH71HdaX95QQSjucvySRp9z5y6mnxLzQSdfttlEfBxfcxZk7wwHowiu93Zpb/FrvmDPrvDAbWS2H9UiOnLLdpq3bH09MV1c1LXEq9XUNRk6ia6tA1t/KXKZGr1tzXrCmJxB9tjH7QYPSNjxKfeJXcRVauJpr4y9oSva5J+Qfd7eLn+jZWrruIY/d7eXVifxrd3IFhzTlsjhzrJdYZtpJevx8TZt5HzzopbDBsJtVq64rEP0+Ds3MdsALlXGlX6nni1UyN+fIlrtj6v7WmcDnFiqaxO26lnMw1mnLO8OoW+Hi7QvpZzlyV3CbK9nfO0bU9vGirsXDl4uWiefBv57hatL93Jk93d+CMcSm/Xi3vjbbVCmXut7j72FzH3S5WzByLMZKU04LwJ//LSD8Np2INxJc+C/22/l7tK6pTNXfOcq8CnNJoiRzUFs8hEXRWDrMqeh/5d86omunQuVv5MyExL6nmcCA+mSxvPX5ttWjdjmBKupZbBOccID75Ova+/njbV3wb5VPTJjiYVsoVkhOPUZHQVly6Eap3JHt/Intvl6Ot6Zw/l4rVuTnN6ld7X1lUlLojem1dsvea+D0vaWYmm9jn4Iveywu9nyN74/eQu+gme+L3klPPD32Hig1ZlR4/Vq5tXsmGlDr0jOhDs8AIBrhnk2CI5aSN+dZydg2GXTdxC4ugm3tvInvX4/pmA+ttruBF1cshMyODjIwM0lMvcnjL13z0y1GcgwbSo145vbPs85y7bMXBvUWRq2YAWLNIT00ltchPGhnZecWFuh1dPGuTteUzXvt2IwcuZtpWRFpTOXsmFavGhXp1JLeJsvy9c7TlwlkumNW4tyw6XatScpzKjV6hXqgz9pB4oCJ7U/Faoaz9FnehO6rjyogV85+sit6HpV04Q3xaMiAiAPsLazBsz7Bxpyqj9hXVpXpzQsYODGsuYB8YQf+mKtRtBxPhq+ZEjIHE/Bse1Z0I0LqQvcfEnpuA+RQJCRdpo9dSz64zOh879ppyi2Dz6QQSzqjo5K8tmPNbkW1UgKqxO03UVi5XeJSrFk3cG6DKvszFlMLvsJCdmVtoXU85iWnZLD7d4kDg5PH0kGk/dxEHfP19sEtNwnTQDORw0JRMpqc/Po4O+Og9yUw0cTAHyDnI7sQ07LoE4FPhJ26UEj/WK/xq2EJ6/VAig+ui2PsRMag15r1GVh2xpXdmzo3/7GYMjPDHUXGmZ2RfXDO3Y1h7XkZxaxjz2WVMCtSh0+nQB/ZiyKQP+b35ROb+33Calsjg+R25dK6d/R3D23NYdcODhx7tX+LeRfO5KCYHBRIYWPgniAmLT+XGgOJKxEv/Y1ynFFa/M5mhwf4EhtzDQ8++w+ItJyk55lQot105zs7vZvLxb5nU7RlGV6cSjYXIZeM52ppzk4yMDDLSU7lwcB0fvh3F6ZYjmDy0RaGpgZWV41S4Nm2Cg/UaFy9VrGAoq1ao2H6Lu0Pl1HGlxUr27wai/1LwHBJOB7WKRv0i6VH7CuuNW2yb2VJJta+oHtV4z5mV1E0rWZ9Sm56R/WioAEpuIv3gjTUYdj5LQK9agANdArpgZ0wi/k8zwS2SMB2uj/a5VqjR4Kv3JOO7eA6Ze9My0cQhqztjde55vc6KbqNi+2vzrCBrKe/IOcC8UQHMy/9dcaTduI/54IEOpT+ZT9RQCi5aPR2VrSQknsHibSUh4Tytg/1ooCjgp6P1+S0knLHQhQQSzyh0Gq0t9MS88hWPH8u5OAw7MmkYGUEPJwANHhHhdPrmU1YZ9/PodO+KHdDmw0RH78XSZiJDfHOjrlbXSPo3+Zko42pOj36YFjKUW2OoXAfw0twH6awGLDe5enwXy79YwNTJ9ny1YAq+hW40yO3ILbv1u6JpyqB3lvKUrsTdCKhcw3hh9gMFD4vJfQfOLQseHKJuFsbLy3oxce82ftuRwO97Etmx+Tveil3Oykc/Z8FUf249J6FYblNUtWkRPIUPXhuSm3uFKMHWc7SVzLjn6BaX/7uCqkEQL333MiGFRx8qOcdZ87ZV0dYlz/wV3G9xd6i0Oq54rNwkwRjLKY0fzw9undtprx9CZLAL6zcb2JgSRmSF4qUya19RHaqvBLNeYb1hM2lO3eijV5OWmkpq6nVqd+uL3v4Svxq2kAaAQj0/f9orJ0lIPEfmHhO/q33Qe9gBCq5+WlqeTSDh7E32xu8hy9kP//xqo8LbKJ/l/BnOmxUaurlW8EO7wfmzKVjsGuJW+DK3ujWj3lnEkiWL+XbeLMYH1OHY9y/yavQd3DckqpW6hQ5dEwsH4pNJS0vEdNgFP11uQlW30eFb9xCmpDRSk0wcsDRFp2tmwwhp8fgxczLWQEJ2I4JDPcjKm4aW3iiYPp0UjsUaSargaFjOXiOr/oQ2ob1plp43nS2zHaEh7piTbb0KJ6qaYt+Ijjo9er0efUAQfUdO44O3RuGy9ys+NBa9CqByHcAr3y1hyeKFfPH2FHq7XWT1ay+w+EjJiSyKfWM8AotfOQvAo0mxJ4cpjjTp0odRk55j1sdLWL1uCVN8rexb8DErzxXaen5uW7qUZVEriNuyjbjPp9DNVXr6ogw2n6MVHLo/w8IlS1iyaD7vPzeYNhnbmf38pyQXupRbeTnOwqUz58hS6uHWsGJld+m1QsX2W9wlKqmOKxErGdtZGXcejU9fejhfz43bNPDp04N66VsxrLtYsfVXYu0rqke1XTmznF+LYXsGlsy1vNhnbYnlyiYDm672Y0g9BXUrHbrGFn7abSLxUiLpncbgm/c0HHU7PX5O3xFvSiAl8Soab398HWzfxu2ZObJpM8esrgzXtq5QgW1N3cGG+EzsvHR4F77MrdTG3VOXd++RP926tiJnxASWzpnH1tBZ9JLpP3cPjQd6vzos2rmbhHgLexRfXsh/Tr7GC38fhXdMCSSQTJZTUMGgQQWUiB/zEVYZ95JlzmH54z1YXvwN6jiMpmfwL/dZ+LkjcyfMZsxfjaPbVyVWRHT0QSZN85SpNjWYQ+t2tFBnc/TPE1gouNJ1qyOnAfy70r2TmvvGfsK8uTEM+iiSyviKG1VdX8YM9eXLPUc5ctLCrbmVRXKbEOW7k3O0qkFbtPq87ysL6I6P01VGzFrA7GVDWfhwK9SVmeMs5/ltwz7MtXug86hI/i67Vih/v8Vdo1LquOKxYiX1NyPrr1i4eekdhnR9p/hG2W2M48zIB2heznhX5dW+orpUU+fMwqlYA6ZsNwa/+jb3FvuinZz9i5jx7lYM6y4TPrIhisaTAL86LNkVw+ILp2kaqKVJfnDaeaHrYuG92MVcOK7QPkJLbrzZto2yWUlN/pJZCw6g7vwEYwMrMKE4+zSr/zeb1Vfr039cOM1udyDVCeSJaQOJedbAFz9OJOjhlpKk7xq18AvwRhNr4oflFq53GF3wXTiKEz66DqQt/4EoUnIHDSo6F72U+Mn53Uj0ISvtxrzLK+HFnviYsYtPp3/GupXbmBHUh9ueF27sxBB3Do3vRD6cHlz0+1isKfz6znMsjjWyZ4onWplnW2PdOLSfY2YFV7cGt51sZe8xnudG/MKEH75k8b5BPONtwz/Veo2Tx3No0tq12FSdGxw5dAqz0pDG8oWm4o7ZWAeUug41LUbO4KGoUcxb+DXbR82ip6qyctwNDv8wi4933qTZveMIrVterNtSK5Sy3/ItJncvm+u4UmLFeoUNhk2kOvVk+vuP4ldkAoOFUytm8orRSMyxcTza9nZrr4zjSlS36umcmY8QY9yDucVDPDSqO77FE6SvwqDv1vOjMY6zw+/DXVULX38v1DGb2XilHpGPdygIfMUZP30Hrr6/kcuqxtynyxuBsnEbjQGwkHJoKxs31kUxZ3H98ikO7F6DcU0yKQ378fK7k/Aoth7rzdMkbtxIusZK9o1rXDiazG/R0fx2TMFrwge8PNC1nOBXqB/2OA96ruOjRQvYOXomQSVvDxE1kkIDrZ62yids2qSi5XhdoQc0qHDX+tH4vW/ZZFHjEaGjfimBULH4ySLRGMNxtTfTx4fTrfiXlFg7kxK6mOkbVrL5WiiDb1NEpG0x8OtlR7pPH0/frsVj00LL0QH88MZqDKapaLvLE2pqgoIYASxZXD2+i58X/MR5l15MCW9TThFQi4CJkwgyvE7U/DU8NDf81oNBrJkn2LUmjivFv4TauR3durfH2fwXSyY9wupGYUSEBdK5eX3ssy5y8LefWWo8Tf0+U4hopQaZkC3uhK11QFnr0XTi/icGsWyqkS9/mUSXxrbkuLwnNFmvc3T3JjaeVmHJTiflzGESNkYTs/MMtbtO471nulGn2HpsrRXK2++g+1vIUxvvWrer4yoWK5bz6zBsu0GDgfdzX69AivfV9fXvYbHhU6JX/ckjT3UuO+/bXF9X5ucgKku1dM7MB4xEH4ROU4ZS6kCug5ZhEW34/msDsSfu5ZHWaly1etqotnPIzhv/LoWHFNQ01/rRRJXM6dpaAvK+yc/WbTwMQA77l/yHx5coKCoNteo2onn7LvSf9gljRvWhvVPJotdyZQNzntwAioLa3hnXpq3prLufN94cS4TOrWI3h6rbMXZKON9PWcn8lZPoNtZdkvRdQt1Gj7ahwv4LTvj5dypyQGk66fGp8y3H0xuh1Zc+baVC8ZO5C2PcWez8JxHespS1KC4ED+tPw9WrMKy/wqBhZQwIWFPYaNhEqksIw/uWdsVFReMBw+g15wXWGHYwo3tIyS+1FP+4WzECKCoNjvXc6RjwCLOfeozBt70sn0vV9B6eHLOQcQu/5vuDA5jSOW+9KZv5ePrmEu3VHZ7gxxVP46Fuz9Bnn8S6djObvpvNoovXydbUwa2lF8FPfsTj4/uW8rRIISrG5jqgWVlrUqgbOpmHu6xhzsIvWNDBlhwXnLczJzDMegKDoqBSO+DcsDltvYJ4bPYYxgz0pH6JtGt7rXD7/f6W3SNfoauMh929SqnjclUkViycWW3AlNWU0cO7l+iY5a4+gnv8vuDdVUb2Tu5cstOV507qa1HzKNZSHyn49y2KMjB66KCqWLUQVS5qRazEr6hSEmPi305iXNxtJGZFVYhaEcsDoyMr3F7GPYUQQgghhBCiBpDOmRBCCCGEEELUANI5E0IIIYQQQogaQDpnQgghhBBCCFEDSOdMCCGEEEIIIWoA6ZwJIYQQQgghRA0gnTMhhBBCCCGEqAGkcyaEEEIIIYQQNYB0zoQQQgghhBCiBlCsVqu1Kla8KMpQFasVQgghhBBCiLvGA6MjK9xWU4X7weihg6py9UJUmagVsRK/okpJjIl/O4lxcbeRmBVVIWpFrE3tZVqjEEIIIYQQQtQA0jkTQgghhBBCiBpAOmdCCCGEEEIIUQNI50wIIYQQQgghagDpnAkhhBBCCCFEDSCdMyGEEEIIIYSoAaRzJoQQQgghhBA1gHTOhBBCCCGEEKIGkM6ZEEIIIYQQQtQAmureAQDLyYU8EP42CeqezFrzJaMaKbkLzH/w4T2j+LrRy6z7ZixuSv47stn+ej8eWZZC4Ctr+WZc44JeZvZOZoVNwOA7mw0fDqb2gY8ZNuJTDpkBFBS1Pc6NWuMbei9PTh2Dbz0VYOHckvGEvbGTbHLbqexqUd+9E4HhE5j6aBitHYvvdRbndv7AVwtWsin5CBfSwalJB/R9hjNh0ki0rurcVhtfoOfjK0i13u4TUNP0vgWsfSWwZvxDRDmy2DazL5NiApizcQ4D6hQsuR4zlZBn16AMnMuGuQNxKljC6mdCeDYhgvnrZtLdDsg+y5aFHzN/xRb2nbhClkNdXBu3wkPbnWGTniD4yEsVj50XLLzVdwLfX7AAoKjUODi50dq3N6OeeJqx2gaFRmIyiZ3alWfibub9nndcuLXFr+9Ynn56FN4uSinbEkKIqlFmHZAvewevVzTHldbWpQnt9QN44OkniOzkhAKYS6kPnFxb4BF0D49NG0+PJiXPyDdObGDRF4tYtW0vxy/fROPSjM5dwxg98RGGeLigAqzXfmFyrxfZlHX7v1nj8dT/a+/Ow6Is1weOf9+ZQQgBFRIFFHdRQWBmAJVyTdz1uKepqZmpWWmdNDvZqZ9mZplLp7yyItfjgkuJ5paWluU2rGquzhR5TgAAEnBJREFUuZCCqKiBIMosvz+YUXaHU+Ro9+e6+EPmmZcZvJ9n7vtZXli/djyN1X/gFyf+QuXLFcsTX4XbFqGuy7Mrv+HV4PxAMWXEserjhazdlciZK7mo3byo4d+Y4IjujBzfiwAX7O4DwjE5QC1g4szmjSTlWbDkHSB2Wyr9hvrlD7LqhoTpqvHZVgNJNwcT5Wp7ymniEjKo5OLEL3FJ3HyqE7b82HQ2joQrKpqGaakM5Oe1GpoOmcFLraugGLO5ELeeL5ZP55njN1m97Bka2gZGtT+93phCN18VptzLHNu+hOhPJ5J0eQFfT2vL3Xw1hyOLXuC52QcgqCdPTRhBo2oWLh/fzfoV0xi27Qfe/HwOTzZ0RhM0lPfmtyfPmmCb07bz4Qdbcf7HVF5s62ntHAou/o2Q8flB4URQeCjOaxMx/GKkc7itG+VxJC6Z287OKIkGjuZ1IdzJ9tBRDibexCU4jEAnwHKVnf8ewoTY2wT3e5rJz9fDw3iV1DNHMezexM6TY+gQUp7YOQ6Ac/gYZo/S4mTJI+u3A6z5YgXvPHuK2zFLGNmgcISpPNszcdqTNNaAJe8GqcmbWLz0bZ5JUfj60wH4yrq6EOIvUUYeUER5xriCbTPP/syqL5bw+sizmNd9TB8f29UL5wdpyRtZtGQO437JYlnMK4TcSbYtXN83lzEvfcHRyhH0GzyJMfXcuZ16mJ1rljNl8Hb2zozmna6+qCu3YMyH8+lrtr29U6yb/gl7aw9lxig9ztZvq9wbyjj7ILI7VwT74yu/bcDAtxj3mEfhwklVmXp1rYGSc5APR4xmyaX6dBv6MqOaeKFcS+XMyST2bNtO8oieBLjcfbZ9fUA4mvtfnJmOs2njUWjQmsdv/sz+jVtIGfwsddUATgSFhVBpXRKGo0ai9Pkv13I1kfhztejVrw6bvzdw1NiJMA2AhWsJBk5b6jBS740KyJ+EUFGt8WO0a/dofsB3fIKm9GHY0lWsO/Q0r4VaA1Rxo154W9o1yh/gn4hqgWtad97fsoG9U9reWSG5eWAer8zeT6Uu7/Pf97vja/s86NyTAb0ieGnI/zHj1YUExbxE4KNBdOgUdPftnjzN57NVuDZpQ6fOJX/4CEen4Baqp6nqe+Ljz2EKb5BfWJvOEpdwjab9+qGsiyfunIlwa+VvOhdHwmUVTcNDcQMsl7fz383p+D29lC9f01NwfB45wUieUYNKU47Yyct/XSrvINq2a0clAKLoUOcm3cZ9zYatv/L0+MaFJgAUZz+07dpxp7aMiqJBdhdGrdvOz9f6099L5tWEEH+BMvOAgsozxhVt25F2dW7S/YVNrPwmhV7P1rW2K5ofRBFIXwZHxxKb9BIhLWx5x7e8MymaX7wHsWDJVFp72UbgLvQe0JWFo4cz/83XCQz8kqH+vuiifO++bKMnBz9YwH7vYDp27owr4oFmZ66Yz774srX1CmxP586Plrqqlb1nFWtOV6b7/MXM6li4iHthihGjUvA79+4DsijgmO57bZCXvJHNZ1QE9nmNCT3rYT68kU2nbOu6Cu6hYTRRXSQ+7jds372ZeJAjLqG0HdCChhnxxJ+zPZJL4sEjGKtqCWtQVsi5EBjaBCfzJVLTjKU3U/vSrJkXqltXuJJpnQKzXGX74vX85tqGCa93u1uYWVWq2583ntOinFjF0h+zy/8LEQ8ElY8OXS0LvxoSuG5d2bJcSyDuTA30Xbuhr3GGuITr1pVbC9cTDPxq8Uevq4kKMF/P4JpJRfWaNa2DZkEanP6kaRPXpoHU15i5ejkD8z1ba3B3r5y/3Cx1mRDiL1J2HlA2+8c4BfegEBqozVy8cLGMtpUICGyEk/kalzNs+YGZ3zYsZnuGJz1f/WeBwsz2IgJ55l9DqH/TwJIVSdYtb+Jvo6RcsVQlxZe9LGRnXOUWVfHxqVz8Y1qtQVNmVm9vHxD3230uznIxxG7lvEZLr671adajJ02UU3yz6Qi2kFX56dD5WjgZn2A9e2PkWFwSt4P0hNbXovU+jSHx9/wk2HiMuKQbVAoJI6h4xluAmfQLaZgUN6pUKaOIs2STfjETi3st/KpZf1W3k9kXn4NT6BO0KXFlQYVvu/Y0Uf3Owf1HKW/XEw8IdWP02irkHTZwyHp0KzfJwBHnEPSBgehDXTgcl0z+Q7dIjjuMsWooeutMm7pWEM2qmUhcMp1PtyWTlm1fIlJe5ktpXDKp8fUvaZXWSG5ODjk5OWRnXubUnmg++uoM7pFdeKyqVGdCiL/CvfOAspQ9xhVmSrtAulnBo6pHGW3NXE67hEnlg7+fdV+6JZP4/b9gdI+kY8vKJT7LKaADbWtB2sEDnKuY4Vw4qpJyxVKVEF93L4QxN4uszEwyC3xl3ci1Lk4oeAYG4ccZ1s6aS2xcCpnlTDLt6wPifru//zc5+4jdfolKET3p5KNCXb8bPUPUpGyOJcF2kFYdQLjWg7xkA8m3ANN54uMvU0+vpapTE3TBThw25CfBpgvxxKeqCAjTFtnza8F0Oz8Jzcm6wqldC3g7OhlzjQ50CinYOczk5ea3u3HtNwyrpvHJHmcixo7kMeu+M0tWOuk54OHnh3sp+au6Ri18NWaupqXLDNpDy5mQsGCcMhMxHDcBRo4bkshtFkawizPB+mbkJhg4bgSMxzmYkIVT83CCbZMGrm14ZdZYws17+c+EgXSICOPxHkN5cXo0357Kosx7gJTBYryVH+fZmVw6voP578Vwwb8fY3vXLrZ9wZS2itEROnQ6HfqI1vQYPZ9DtZ5l7sy+yFZ0IcRfwp48oIDyjHEF26b/soXZ767mnKo+T3QoeMa7YH6QwZmfonln0SG8Oj7PU82trcxXSLtkRKnhh0/RfNpG7UMtHxXm9DQuyZLEQ+7eueJddsTXHXkcmNmViIiIQl8tOk5jjzWZ1DR/jlmTOuB2KJrJQzrTUt+Kzk+O5c1PNnL4WvFZAfv6gHA09/HMmYXM3Rv47porj/fqyKMKoPjRpWcY86ZvJ3b/Pwlv/QjgTPPw5jhtTCTupIk2tRMxnKqG9tU6qNEQom9GztI4Tpja4p9g4ITFl8E63yJVZx77Z3RCP8P6T0WNR4MuTJk5iccKToIZj7FgQDgLbP9WXGjw1H+YN6wRRcdje9YV/tcEWzwIFDy0ehorPxGfkIo5yEJ8fDp124TiqSgQqqNu+h7iU800J56EVIWAgdoCBb2CV+RLLPp2CMf2/cjeuCQOJR5g7+rZ7Fi3joFzl/F2e69y7i60kLvtVVpuu/szVJ6RvLF0Ku08i19J5dWZN+Y+TRM1YL7F9XMHWLNwERPGVuLzReMJkYMRQogKZW8ecLe9/WNc8bZOXkH0mz6Tcc0LfqIXyQ9Q4Rb8PNHv9Spwsw7LnWuU/lYs8pn/d1GOXNG++LLREDhyLpPbVykUaYqmOo1t2briTvCIj9nc5zQH9/yMISGJxLh9xH68m6/W7uCdZXPoXctWdtnbB4SjuX/FmeUq38X+QJZbJB30arIyMwFwbfkE+kr72Bm7h8mto3BHoWpoGA2VvcQnXCT3moFD6mB6Nc0PLK9QLf6z9hOfdovMuGRuuz9OWJOib0tD81Ef8VqHqqg0+bcyrVerSvFOpK7LgHen07uWQt7vp9m9eD5LV77Ov0PXMq9n/lkhxb0G3q4Ql5pKlgVKyHkxXbpAqlGFV03vEjqqeFioa+vQ1TQTE5dEVm8ThlMehE60HrCtpyOkypcYErPog4FjZh8G6fyKz1Q5edGkdW+atO4NQM6J5Uwc8S5r565gcJsX8wsnuyk4t3qZz14IQ2O+ycWkr1jw8RY+mPwJQSsmFLkrFCiVqtNYp0dv6y7hkTzmf4MeIz9n/sb+fPFkDdn2IISoOHbnATblGePutnVSaXB298a/ng/uxcZUW35QBcutqxzfupD5az9l8nshxLzdmioKoKpOTW81loTzpOVB05LGZfNFLqSZUXn74C0D58PNjlzxLjvi6w4VVepqiYgo/YYgd15Clfq07F6flt2HArf4bdNURry2mXnRB+j2VivrWXZ7+4BwNPetODOnf0vs3hzMud/yeodviz2u7I5l9/WO9KiqoK6jQ1fDzLqDBhKuJJAd8CQh1hUvdQM9oW5LiTPEcy3hOpqgMEKci15Nhbt/MHr9PQJeccW3mc56LiiMli3qYOz3DCvmLOCn9tNo7QZUak5L7SPEGnbyw9W+9C527sxM2q7vOWb2oHPLZg5wO0xRYTRN0YdWZtn+g8THmUlWQpgSaC3HNYGEBSvMMsQTTxK33SJLmDQozrVxf/q3nMOP350hxUg5izNQedZHq9fnD8zhrQh2u06/aYv4YFVvloyoc89tDM51G1BbnceZkymYkeJMCFFxypMH2JRnjCvUtlSF84PwVjqq5/ThlXWz+LJ/C15uXgkUd/QRTVH/sJed+7Pp0Lb4uTPjiV38cB58hoVTR5Lfh5s9ueIddsTXH+ZM7S4Daf/hZmLOnuN3Syuq2366XX1AOJr7lHuZOb8lFkOeN93+vYilS5cW+vry9Sg8s38idkdG/jYBTTPCQyuTm7iZ5fsv4KPVUtP2yp0C0TU3k7BlOfvOKTQM1/Kn3cugcgTPT+xC1UuxLFybkn8gU/Gi0/De1MrZzUfvbSWtyBbfvJT1zPwsHkujJxnWuuSDw+Jh8Qih4UForhpYvcbAjUY6Qtyswae4EaxrRJZhNTGGa/mTBgVmdS3ZqZxNzy1+ybwUTp69jap6DR79wx/wamr3n8TwJiYSlkSz146bh948cZSzJgUvb0+5YaMQogKVMw8oUfnHuHtSvIh6eSwRzqdZ9dlWMizWn/OP4UR5ZrBx9jx+vlbkFd08yqKZy/nVRcewQaGyY+bvpqRcsTQlxpf98tLPcj67+JPMl09x+rqFR7y9S70fgnhw3J+FHdNpNm9MxlR7OMMHtCKk6EgWotB16Xes3biNtL5D8FU9QkhYIOrNP7DralV6jStwkFFxJ1TfiOsf7iJDVYMhunuvDthPoVrUOJ5utoOPli1i/8C3iHQF1xavMHviKcbOm8SA83sY0ieShtUsXDn+I+v/u4mjlVrzrw/G8qdMiAgHpuCp1VNf+Zjdu1X4j9QVuJGGCl9tKDVmL2a3WU3TnjqqFRgwzembmNR3Caa2PekaGUgdr0cwXj/NwdgVrD3mim5yP4L/jN6pCWDo811ZNWEjn301msihte/MyFhuXSBh1y6yNYD5NtfPHWD9onWke7RmfPd6clhYCFFxypsHlHadMsa4/5XKry/jByxh+PJoVhztxovNNCheXZj6/iFSJixmXL9f6f9Ud8LquHH74mF2xqxiR4onPWa8y5Dif5xNPPRKzhVLU1J85TOTceR7tm0r8keoUVEzpAMhNVVk/TiDHu+n0bJHd9qE1MfbDW6kJLJl1Ur2WRozelAkxe5JIh4496U4Mx3byKbjEDC+N0ElTTE5a+nTsx4ro2PZkjKIUXXVeGn11FPt5YRTEGHNC+5bVFNLG0pNVRIXXLWEN/uT56zUDRg8vjsrx2/giw2jaTnYF5VSmeDRn7MucCWfLdnAmg+/4XKOglvNRuh6TmXK6AHoq8uGxr8DdT092kcVjl5yIzQsoFCH0gToCa68mHPZ1dHqC08aqH2iGP/PTLbu+pnV81dz8ffbqFy9qB0QxjOzxvBsj4Z/UudUqNJ+LCOab2fOksUc7P8mLawjt/nq98x54fv8VioNLlV9aRw+ig9eHEM3P9nQKISoOOXOA/xKu1IJY9wfro9c0I0cS5v1U1kZvYOhs7tQTVHwjJzE0jV6li1czjfLZ7EuIxe1hy8BEYN4d9YoejWrKlvB/65KyBVLVzy+PAAwcjzmTSbGFG3vTKc5+/momwsekaOYMvQbdu35mk82pHE914JLVV8a6gbx9vvP0b/o4XLxQFIsFkuF3GBoWUwsA3t3rYhLC1HhYr7eIvErKpTEmHjYSYyLB43ErKgIMV9vYdjAXna3l0keIYQQQgghhHAAUpwJIYQQQgghhAOQ4kwIIYQQQgghHIAUZ0IIIYQQQgjhAKQ4E0IIIYQQQggHIMWZEEIIIYQQQjgAKc6EEEIIIYQQwgFIcSaEEEIIIYQQDkCKMyGEEEIIIYRwAIrFYrFUxIWXxcRWxGWFEEIIIYQQ4oExbGAvu9tWWHEmhBBCCCGEEMJ+sq1RCCGEEEIIIRyAFGdCCCGEEEII4QCkOBNCCCGEEEIIByDFmRBCCCGEEEI4ACnOhBBCCCGEEMIBSHEmhBBCCCGEEA5AijMhhBBCCCGEcABSnAkhhBBCCCGEA/h/Zr4ADM3bSckAAAAASUVORK5CYII=;" vertex="1" parent="1">
          <mxGeometry x="594.5" y="480" width="531" height="152.42" as="geometry" />
        </mxCell>
        <mxCell id="qmO_saQ9gAC04FWyoIDI-55" value="" style="endArrow=classic;html=1;rounded=0;entryX=-0.017;entryY=0.242;entryDx=0;entryDy=0;entryPerimeter=0;" edge="1" parent="1">
          <mxGeometry relative="1" as="geometry">
            <mxPoint x="662.89" y="100" as="sourcePoint" />
            <mxPoint x="829.89" y="100" as="targetPoint" />
          </mxGeometry>
        </mxCell>
        <mxCell id="qmO_saQ9gAC04FWyoIDI-56" value="ra_vaild" style="edgeLabel;resizable=0;html=1;;align=center;verticalAlign=middle;" connectable="0" vertex="1" parent="qmO_saQ9gAC04FWyoIDI-55">
          <mxGeometry relative="1" as="geometry" />
        </mxCell>
        <mxCell id="qmO_saQ9gAC04FWyoIDI-57" value="" style="endArrow=classic;html=1;rounded=0;entryX=-0.017;entryY=0.242;entryDx=0;entryDy=0;entryPerimeter=0;" edge="1" parent="1">
          <mxGeometry relative="1" as="geometry">
            <mxPoint x="663" y="130" as="sourcePoint" />
            <mxPoint x="830" y="130" as="targetPoint" />
          </mxGeometry>
        </mxCell>
        <mxCell id="qmO_saQ9gAC04FWyoIDI-58" value="ra_addr" style="edgeLabel;resizable=0;html=1;;align=center;verticalAlign=middle;" connectable="0" vertex="1" parent="qmO_saQ9gAC04FWyoIDI-57">
          <mxGeometry relative="1" as="geometry" />
        </mxCell>
        <mxCell id="qmO_saQ9gAC04FWyoIDI-59" value="ra_ready" style="endArrow=classic;html=1;rounded=0;entryX=-0.017;entryY=0.242;entryDx=0;entryDy=0;entryPerimeter=0;" edge="1" parent="1">
          <mxGeometry x="0.1617" relative="1" as="geometry">
            <mxPoint x="830" y="114" as="sourcePoint" />
            <mxPoint x="663" y="114" as="targetPoint" />
            <mxPoint as="offset" />
          </mxGeometry>
        </mxCell>
        <mxCell id="qmO_saQ9gAC04FWyoIDI-61" value="" style="endArrow=classic;html=1;rounded=0;entryX=-0.017;entryY=0.242;entryDx=0;entryDy=0;entryPerimeter=0;" edge="1" parent="1">
          <mxGeometry relative="1" as="geometry">
            <mxPoint x="829.89" y="160" as="sourcePoint" />
            <mxPoint x="662.89" y="160" as="targetPoint" />
          </mxGeometry>
        </mxCell>
        <mxCell id="qmO_saQ9gAC04FWyoIDI-62" value="r_vaild" style="edgeLabel;resizable=0;html=1;;align=center;verticalAlign=middle;" connectable="0" vertex="1" parent="qmO_saQ9gAC04FWyoIDI-61">
          <mxGeometry relative="1" as="geometry" />
        </mxCell>
        <mxCell id="qmO_saQ9gAC04FWyoIDI-63" value="" style="endArrow=classic;html=1;rounded=0;entryX=-0.017;entryY=0.242;entryDx=0;entryDy=0;entryPerimeter=0;" edge="1" parent="1">
          <mxGeometry relative="1" as="geometry">
            <mxPoint x="830" y="190" as="sourcePoint" />
            <mxPoint x="663" y="190" as="targetPoint" />
          </mxGeometry>
        </mxCell>
        <mxCell id="qmO_saQ9gAC04FWyoIDI-64" value="r_data" style="edgeLabel;resizable=0;html=1;;align=center;verticalAlign=middle;" connectable="0" vertex="1" parent="qmO_saQ9gAC04FWyoIDI-63">
          <mxGeometry relative="1" as="geometry" />
        </mxCell>
        <mxCell id="qmO_saQ9gAC04FWyoIDI-65" value="" style="endArrow=classic;html=1;rounded=0;entryX=-0.017;entryY=0.242;entryDx=0;entryDy=0;entryPerimeter=0;" edge="1" parent="1">
          <mxGeometry relative="1" as="geometry">
            <mxPoint x="663" y="175" as="sourcePoint" />
            <mxPoint x="830" y="175" as="targetPoint" />
          </mxGeometry>
        </mxCell>
        <mxCell id="qmO_saQ9gAC04FWyoIDI-66" value="r_ready" style="edgeLabel;resizable=0;html=1;;align=center;verticalAlign=middle;" connectable="0" vertex="1" parent="qmO_saQ9gAC04FWyoIDI-65">
          <mxGeometry relative="1" as="geometry" />
        </mxCell>
        <mxCell id="qmO_saQ9gAC04FWyoIDI-67" value="" style="endArrow=classic;html=1;rounded=0;entryX=-0.017;entryY=0.242;entryDx=0;entryDy=0;entryPerimeter=0;" edge="1" parent="1">
          <mxGeometry relative="1" as="geometry">
            <mxPoint x="830" y="205" as="sourcePoint" />
            <mxPoint x="663" y="205" as="targetPoint" />
          </mxGeometry>
        </mxCell>
        <mxCell id="qmO_saQ9gAC04FWyoIDI-68" value="r_resp" style="edgeLabel;resizable=0;html=1;;align=center;verticalAlign=middle;" connectable="0" vertex="1" parent="qmO_saQ9gAC04FWyoIDI-67">
          <mxGeometry relative="1" as="geometry" />
        </mxCell>
        <mxCell id="qmO_saQ9gAC04FWyoIDI-69" value="" style="endArrow=classic;html=1;rounded=0;entryX=-0.017;entryY=0.242;entryDx=0;entryDy=0;entryPerimeter=0;" edge="1" parent="1">
          <mxGeometry relative="1" as="geometry">
            <mxPoint x="662.89" y="240" as="sourcePoint" />
            <mxPoint x="829.89" y="240" as="targetPoint" />
          </mxGeometry>
        </mxCell>
        <mxCell id="qmO_saQ9gAC04FWyoIDI-70" value="wa_valid" style="edgeLabel;resizable=0;html=1;;align=center;verticalAlign=middle;" connectable="0" vertex="1" parent="qmO_saQ9gAC04FWyoIDI-69">
          <mxGeometry relative="1" as="geometry" />
        </mxCell>
        <mxCell id="qmO_saQ9gAC04FWyoIDI-71" value="" style="endArrow=classic;html=1;rounded=0;entryX=-0.017;entryY=0.242;entryDx=0;entryDy=0;entryPerimeter=0;" edge="1" parent="1">
          <mxGeometry relative="1" as="geometry">
            <mxPoint x="663" y="270" as="sourcePoint" />
            <mxPoint x="830" y="270" as="targetPoint" />
          </mxGeometry>
        </mxCell>
        <mxCell id="qmO_saQ9gAC04FWyoIDI-72" value="wa_addr" style="edgeLabel;resizable=0;html=1;;align=center;verticalAlign=middle;" connectable="0" vertex="1" parent="qmO_saQ9gAC04FWyoIDI-71">
          <mxGeometry relative="1" as="geometry" />
        </mxCell>
        <mxCell id="qmO_saQ9gAC04FWyoIDI-73" value="" style="endArrow=classic;html=1;rounded=0;entryX=-0.017;entryY=0.242;entryDx=0;entryDy=0;entryPerimeter=0;" edge="1" parent="1">
          <mxGeometry relative="1" as="geometry">
            <mxPoint x="830" y="255" as="sourcePoint" />
            <mxPoint x="663" y="255" as="targetPoint" />
          </mxGeometry>
        </mxCell>
        <mxCell id="qmO_saQ9gAC04FWyoIDI-74" value="wa_ready" style="edgeLabel;resizable=0;html=1;;align=center;verticalAlign=middle;" connectable="0" vertex="1" parent="qmO_saQ9gAC04FWyoIDI-73">
          <mxGeometry relative="1" as="geometry" />
        </mxCell>
        <mxCell id="qmO_saQ9gAC04FWyoIDI-76" value="" style="endArrow=classic;html=1;rounded=0;entryX=-0.017;entryY=0.242;entryDx=0;entryDy=0;entryPerimeter=0;" edge="1" parent="1">
          <mxGeometry relative="1" as="geometry">
            <mxPoint x="662.89" y="310" as="sourcePoint" />
            <mxPoint x="829.89" y="310" as="targetPoint" />
          </mxGeometry>
        </mxCell>
        <mxCell id="qmO_saQ9gAC04FWyoIDI-77" value="w_vaild" style="edgeLabel;resizable=0;html=1;;align=center;verticalAlign=middle;" connectable="0" vertex="1" parent="qmO_saQ9gAC04FWyoIDI-76">
          <mxGeometry relative="1" as="geometry" />
        </mxCell>
        <mxCell id="qmO_saQ9gAC04FWyoIDI-78" value="" style="endArrow=classic;html=1;rounded=0;entryX=-0.017;entryY=0.242;entryDx=0;entryDy=0;entryPerimeter=0;" edge="1" parent="1">
          <mxGeometry relative="1" as="geometry">
            <mxPoint x="663" y="340" as="sourcePoint" />
            <mxPoint x="830" y="340" as="targetPoint" />
          </mxGeometry>
        </mxCell>
        <mxCell id="qmO_saQ9gAC04FWyoIDI-79" value="w_data" style="edgeLabel;resizable=0;html=1;;align=center;verticalAlign=middle;" connectable="0" vertex="1" parent="qmO_saQ9gAC04FWyoIDI-78">
          <mxGeometry relative="1" as="geometry" />
        </mxCell>
        <mxCell id="qmO_saQ9gAC04FWyoIDI-80" value="" style="endArrow=classic;html=1;rounded=0;entryX=-0.017;entryY=0.242;entryDx=0;entryDy=0;entryPerimeter=0;" edge="1" parent="1">
          <mxGeometry relative="1" as="geometry">
            <mxPoint x="830" y="325" as="sourcePoint" />
            <mxPoint x="663" y="325" as="targetPoint" />
          </mxGeometry>
        </mxCell>
        <mxCell id="qmO_saQ9gAC04FWyoIDI-81" value="w_ready" style="edgeLabel;resizable=0;html=1;;align=center;verticalAlign=middle;" connectable="0" vertex="1" parent="qmO_saQ9gAC04FWyoIDI-80">
          <mxGeometry relative="1" as="geometry" />
        </mxCell>
        <mxCell id="qmO_saQ9gAC04FWyoIDI-82" value="" style="endArrow=classic;html=1;rounded=0;entryX=-0.017;entryY=0.242;entryDx=0;entryDy=0;entryPerimeter=0;" edge="1" parent="1">
          <mxGeometry relative="1" as="geometry">
            <mxPoint x="829.89" y="387.40999999999997" as="sourcePoint" />
            <mxPoint x="662.89" y="387.40999999999997" as="targetPoint" />
          </mxGeometry>
        </mxCell>
        <mxCell id="qmO_saQ9gAC04FWyoIDI-83" value="b_vaild" style="edgeLabel;resizable=0;html=1;;align=center;verticalAlign=middle;" connectable="0" vertex="1" parent="qmO_saQ9gAC04FWyoIDI-82">
          <mxGeometry relative="1" as="geometry" />
        </mxCell>
        <mxCell id="qmO_saQ9gAC04FWyoIDI-84" value="" style="endArrow=classic;html=1;rounded=0;entryX=-0.017;entryY=0.242;entryDx=0;entryDy=0;entryPerimeter=0;" edge="1" parent="1">
          <mxGeometry relative="1" as="geometry">
            <mxPoint x="830" y="417.40999999999997" as="sourcePoint" />
            <mxPoint x="663" y="417.40999999999997" as="targetPoint" />
          </mxGeometry>
        </mxCell>
        <mxCell id="qmO_saQ9gAC04FWyoIDI-85" value="b_resp" style="edgeLabel;resizable=0;html=1;;align=center;verticalAlign=middle;" connectable="0" vertex="1" parent="qmO_saQ9gAC04FWyoIDI-84">
          <mxGeometry relative="1" as="geometry" />
        </mxCell>
        <mxCell id="qmO_saQ9gAC04FWyoIDI-86" value="" style="endArrow=classic;html=1;rounded=0;entryX=-0.017;entryY=0.242;entryDx=0;entryDy=0;entryPerimeter=0;" edge="1" parent="1">
          <mxGeometry relative="1" as="geometry">
            <mxPoint x="663" y="402.40999999999997" as="sourcePoint" />
            <mxPoint x="830" y="402.40999999999997" as="targetPoint" />
          </mxGeometry>
        </mxCell>
        <mxCell id="qmO_saQ9gAC04FWyoIDI-87" value="b_ready" style="edgeLabel;resizable=0;html=1;;align=center;verticalAlign=middle;" connectable="0" vertex="1" parent="qmO_saQ9gAC04FWyoIDI-86">
          <mxGeometry relative="1" as="geometry" />
        </mxCell>
      </root>
    </mxGraphModel>
  </diagram>
</mxfile>
